SplineFontDB: 3.0
FontName: DrCyrGolosText-Regular
FullName: Dr Cyr Golos Text Regular
FamilyName: Dr Cyr Golos Text
Weight: Regular
Copyright: Copyright (c) 2019, ParaType Ltd. All rights reserved.\nModifikacija dlja otlichimosti kirillicy (c) 2024 Denis Budjak
Version: 2.005
ItalicAngle: 0
UnderlinePosition: -100
UnderlineWidth: 50
Ascent: 774
Descent: 226
InvalidEm: 0
sfntRevision: 0x00020148
LayerCount: 2
Layer: 0 1 "+BBcEMAQ0BD0EOAQ5 +BD8EOwQwBD0A" 1
Layer: 1 1 "+BB8ENQRABDUENAQ9BDgEOQAA +BD8EOwQwBD0A" 0
XUID: [1021 666 531568750 5019230]
StyleMap: 0x0040
FSType: 0
OS2Version: 4
OS2_WeightWidthSlopeOnly: 1
OS2_UseTypoMetrics: 0
CreationTime: 1647629667
ModificationTime: 1719178847
PfmFamily: 17
TTFWeight: 400
TTFWidth: 5
LineGap: 0
VLineGap: 0
Panose: 2 11 5 3 2 2 2 2 2 4
OS2TypoAscent: 774
OS2TypoAOffset: 0
OS2TypoDescent: -226
OS2TypoDOffset: 0
OS2TypoLinegap: 200
OS2WinAscent: 980
OS2WinAOffset: 0
OS2WinDescent: 220
OS2WinDOffset: 0
HheadAscent: 980
HheadAOffset: 0
HheadDescent: -220
HheadDOffset: 0
OS2SubXSize: 650
OS2SubYSize: 600
OS2SubXOff: 0
OS2SubYOff: 75
OS2SupXSize: 650
OS2SupYSize: 600
OS2SupXOff: 0
OS2SupYOff: 350
OS2StrikeYSize: 50
OS2StrikeYPos: 250
OS2CapHeight: 700
OS2XHeight: 530
OS2FamilyClass: 1295
OS2Vendor: 'PARA'
OS2CodePages: 00000005.00000000
OS2UnicodeRanges: a000022f.100000eb.00000020.00000000
Lookup: 1 0 0 "'aalt' Access All Alternates lookup 0" { "'aalt' Access All Alternates lookup 0 subtable"  } ['aalt' ('DFLT' <'dflt' > 'cyrl' <'dflt' > 'latn' <'dflt' > ) ]
Lookup: 3 0 0 "'aalt' Access All Alternates lookup 1" { "'aalt' Access All Alternates lookup 1 subtable"  } ['aalt' ('DFLT' <'dflt' > 'cyrl' <'dflt' > 'latn' <'dflt' > ) ]
Lookup: 6 0 0 "'ccmp' Glyph Composition/Decomposition lookup 2" { "'ccmp' Glyph Composition/Decomposition lookup 2 contextual 0"  "'ccmp' Glyph Composition/Decomposition lookup 2 contextual 1"  } ['ccmp' ('DFLT' <'dflt' > 'cyrl' <'dflt' > 'latn' <'dflt' > ) ]

StartChar: .notdef
Encoding: 65536 -1 0
Width: 500
Flags: W
LayerCount: 2
Fore
SplineSet
442 8 m 1,0,-1
 442 504 l 1,1,-1
 58 504 l 1,2,-1
 58 8 l 1,3,-1
 442 8 l 1,0,-1
50 512 m 1,4,-1
 450 512 l 1,5,-1
 450 0 l 1,6,-1
 50 0 l 1,7,-1
 50 512 l 1,4,-1
EndSplineSet
EndChar

StartChar: exclam
Encoding: 33 33 4
Width: 300
Flags: W
LayerCount: 2
Fore
SplineSet
106 700 m 1,0,-1
 194 700 l 1,1,-1
 194 220 l 1,2,-1
 106 220 l 1,3,-1
 106 700 l 1,0,-1
150 -10 m 256,4,5
 121 -10 121 -10 100.5 10.5 c 128,-1,6
 80 31 80 31 80 60 c 0,7,8
 80 90 80 90 100.5 110 c 128,-1,9
 121 130 121 130 150 130 c 256,10,11
 179 130 179 130 199.5 110 c 128,-1,12
 220 90 220 90 220 60 c 0,13,14
 220 31 220 31 199.5 10.5 c 128,-1,15
 179 -10 179 -10 150 -10 c 256,4,5
EndSplineSet
EndChar

StartChar: numbersign
Encoding: 35 35 6
Width: 680
Flags: W
LayerCount: 2
Fore
SplineSet
147 198 m 1,0,-1
 65 198 l 1,1,-1
 65 272 l 1,2,-1
 160 272 l 1,3,-1
 189 428 l 1,4,-1
 104 428 l 1,5,-1
 104 502 l 1,6,-1
 203 502 l 1,7,-1
 240 700 l 1,8,-1
 324 700 l 1,9,-1
 287 502 l 1,10,-1
 449 502 l 1,11,-1
 486 700 l 1,12,-1
 570 700 l 1,13,-1
 533 502 l 1,14,-1
 615 502 l 1,15,-1
 615 428 l 1,16,-1
 519 428 l 1,17,-1
 490 272 l 1,18,-1
 576 272 l 1,19,-1
 576 198 l 1,20,-1
 477 198 l 1,21,-1
 440 0 l 1,22,-1
 356 0 l 1,23,-1
 393 198 l 1,24,-1
 231 198 l 1,25,-1
 194 0 l 1,26,-1
 110 0 l 1,27,-1
 147 198 l 1,0,-1
406 272 m 1,28,-1
 435 428 l 1,29,-1
 273 428 l 1,30,-1
 244 272 l 1,31,-1
 406 272 l 1,28,-1
EndSplineSet
Substitution2: "'tnum' Tabular Numbers lookup 6 subtable" numbersign.tab
Substitution2: "'aalt' Access All Alternates lookup 0 subtable" numbersign.tab
EndChar

StartChar: dollar
Encoding: 36 36 7
Width: 640
Flags: W
LayerCount: 2
Fore
SplineSet
278 -8 m 1,0,1
 225 -3 225 -3 186 13.5 c 128,-1,2
 147 30 147 30 120 55.5 c 128,-1,3
 93 81 93 81 77 114 c 128,-1,4
 61 147 61 147 55 185 c 1,5,-1
 149 185 l 1,6,7
 154 162 154 162 166 141.5 c 128,-1,8
 178 121 178 121 198.5 106 c 128,-1,9
 219 91 219 91 249 82.5 c 128,-1,10
 279 74 279 74 320 74 c 0,11,12
 404 74 404 74 447.5 106 c 128,-1,13
 491 138 491 138 491 185 c 0,14,15
 491 214 491 214 481.5 234 c 128,-1,16
 472 254 472 254 449.5 269 c 128,-1,17
 427 284 427 284 390.5 296 c 128,-1,18
 354 308 354 308 301 320 c 0,19,20
 242 333 242 333 199.5 348.5 c 128,-1,21
 157 364 157 364 129.5 387.5 c 128,-1,22
 102 411 102 411 88.5 444 c 128,-1,23
 75 477 75 477 75 525 c 0,24,25
 75 560 75 560 88.5 591 c 128,-1,26
 102 622 102 622 128.5 646 c 128,-1,27
 155 670 155 670 192.5 686 c 128,-1,28
 230 702 230 702 278 707 c 1,29,-1
 278 800 l 1,30,-1
 362 800 l 1,31,-1
 362 707 l 1,32,33
 453 696 453 696 500.5 645.5 c 128,-1,34
 548 595 548 595 560 525 c 1,35,-1
 466 525 l 1,36,37
 461 546 461 546 451 564.5 c 128,-1,38
 441 583 441 583 423.5 596.5 c 128,-1,39
 406 610 406 610 380.5 618 c 128,-1,40
 355 626 355 626 320 626 c 0,41,42
 248 626 248 626 208.5 596.5 c 128,-1,43
 169 567 169 567 169 525 c 0,44,45
 169 498 169 498 179 478.5 c 128,-1,46
 189 459 189 459 210 444.5 c 128,-1,47
 231 430 231 430 263.5 419.5 c 128,-1,48
 296 409 296 409 341 399 c 0,49,50
 406 385 406 385 452.5 367.5 c 128,-1,51
 499 350 499 350 528.5 325 c 128,-1,52
 558 300 558 300 571.5 266 c 128,-1,53
 585 232 585 232 585 185 c 0,54,55
 585 147 585 147 570 114 c 128,-1,56
 555 81 555 81 526.5 55.5 c 128,-1,57
 498 30 498 30 456.5 13.5 c 128,-1,58
 415 -3 415 -3 362 -8 c 1,59,-1
 362 -120 l 1,60,-1
 278 -120 l 1,61,-1
 278 -8 l 1,0,1
EndSplineSet
Substitution2: "'tnum' Tabular Numbers lookup 6 subtable" dollar.tab
Substitution2: "'aalt' Access All Alternates lookup 0 subtable" dollar.tab
EndChar

StartChar: ampersand
Encoding: 38 38 9
Width: 670
Flags: W
LayerCount: 2
Fore
SplineSet
285 -10 m 0,0,1
 232 -10 232 -10 190 5 c 128,-1,2
 148 20 148 20 119 46.5 c 128,-1,3
 90 73 90 73 75 109.5 c 128,-1,4
 60 146 60 146 60 190 c 0,5,6
 60 218 60 218 66.5 243.5 c 128,-1,7
 73 269 73 269 88 294 c 128,-1,8
 103 319 103 319 127.5 344 c 128,-1,9
 152 369 152 369 189 397 c 1,10,11
 165 425 165 425 150.5 446 c 128,-1,12
 136 467 136 467 128 485.5 c 128,-1,13
 120 504 120 504 117.5 521.5 c 128,-1,14
 115 539 115 539 115 560 c 0,15,16
 115 592 115 592 126.5 619.5 c 128,-1,17
 138 647 138 647 159 667 c 128,-1,18
 180 687 180 687 209.5 698.5 c 128,-1,19
 239 710 239 710 275 710 c 256,20,21
 311 710 311 710 340.5 698.5 c 128,-1,22
 370 687 370 687 391 667 c 128,-1,23
 412 647 412 647 423.5 619.5 c 128,-1,24
 435 592 435 592 435 560 c 0,25,26
 435 542 435 542 429.5 522.5 c 128,-1,27
 424 503 424 503 410.5 482 c 128,-1,28
 397 461 397 461 373 437.5 c 128,-1,29
 349 414 349 414 313 387 c 1,30,-1
 482 199 l 1,31,32
 507 257 507 257 507 330 c 1,33,-1
 595 330 l 1,34,35
 595 270 595 270 581.5 220 c 128,-1,36
 568 170 568 170 543 130 c 1,37,-1
 660 0 l 1,38,-1
 546 0 l 1,39,-1
 488 63 l 1,40,41
 448 28 448 28 396.5 9 c 128,-1,42
 345 -10 345 -10 285 -10 c 0,0,1
285 68 m 0,43,44
 372 68 372 68 432 126 c 1,45,-1
 242 337 l 1,46,47
 212 314 212 314 193.5 295.5 c 128,-1,48
 175 277 175 277 165 260 c 128,-1,49
 155 243 155 243 151.5 226 c 128,-1,50
 148 209 148 209 148 190 c 0,51,52
 148 136 148 136 183.5 102 c 128,-1,53
 219 68 219 68 285 68 c 0,43,44
203 560 m 0,54,55
 203 547 203 547 205.5 535.5 c 128,-1,56
 208 524 208 524 214 511.5 c 128,-1,57
 220 499 220 499 231 483.5 c 128,-1,58
 242 468 242 468 260 447 c 1,59,60
 290 469 290 469 307.5 485.5 c 128,-1,61
 325 502 325 502 333.5 515.5 c 128,-1,62
 342 529 342 529 344.5 539.5 c 128,-1,63
 347 550 347 550 347 560 c 0,64,65
 347 591 347 591 326.5 611.5 c 128,-1,66
 306 632 306 632 275 632 c 0,67,68
 245 632 245 632 224 611 c 128,-1,69
 203 590 203 590 203 560 c 0,54,55
EndSplineSet
EndChar

StartChar: quotesingle
Encoding: 39 39 10
Width: 220
Flags: W
LayerCount: 2
Fore
SplineSet
65 700 m 1,0,-1
 155 700 l 1,1,-1
 155 500 l 1,2,-1
 65 500 l 1,3,-1
 65 700 l 1,0,-1
EndSplineSet
EndChar

StartChar: parenleft
Encoding: 40 40 11
Width: 380
Flags: W
LayerCount: 2
Fore
SplineSet
90 260 m 2,0,1
 90 358 90 358 117.5 438 c 128,-1,2
 145 518 145 518 179 577 c 0,3,4
 218 645 218 645 268 700 c 1,5,-1
 370 700 l 1,6,7
 316 645 316 645 275 577 c 0,8,9
 257 548 257 548 240 513 c 128,-1,10
 223 478 223 478 209.5 438 c 128,-1,11
 196 398 196 398 188 353.5 c 128,-1,12
 180 309 180 309 180 260 c 2,13,-1
 180 240 l 2,14,15
 180 191 180 191 188 146 c 128,-1,16
 196 101 196 101 209.5 61 c 128,-1,17
 223 21 223 21 240 -14 c 128,-1,18
 257 -49 257 -49 275 -78 c 0,19,20
 316 -147 316 -147 370 -200 c 1,21,-1
 264 -200 l 1,22,23
 215 -147 215 -147 177 -78 c 0,24,25
 144 -20 144 -20 117 61 c 128,-1,26
 90 142 90 142 90 240 c 2,27,-1
 90 260 l 2,0,1
EndSplineSet
Substitution2: "'case' Case-Sensitive Forms lookup 8 subtable" parenleft.case
Substitution2: "'aalt' Access All Alternates lookup 0 subtable" parenleft.case
EndChar

StartChar: asterisk
Encoding: 42 42 13
Width: 450
Flags: W
LayerCount: 2
Fore
SplineSet
195 473 m 1,0,-1
 91 407 l 1,1,-1
 55 469 l 1,2,-1
 165 525 l 1,3,-1
 55 581 l 1,4,-1
 91 643 l 1,5,-1
 195 577 l 1,6,-1
 189 700 l 1,7,-1
 261 700 l 1,8,-1
 255 577 l 1,9,-1
 359 643 l 1,10,-1
 395 581 l 1,11,-1
 285 525 l 1,12,-1
 395 469 l 1,13,-1
 359 407 l 1,14,-1
 255 473 l 1,15,-1
 261 350 l 1,16,-1
 189 350 l 1,17,-1
 195 473 l 1,0,-1
EndSplineSet
EndChar

StartChar: plus
Encoding: 43 43 14
Width: 550
Flags: W
LayerCount: 2
Fore
SplineSet
231 319 m 1,0,-1
 50 319 l 1,1,-1
 50 401 l 1,2,-1
 231 401 l 1,3,-1
 231 585 l 1,4,-1
 319 585 l 1,5,-1
 319 401 l 1,6,-1
 500 401 l 1,7,-1
 500 319 l 1,8,-1
 319 319 l 1,9,-1
 319 135 l 1,10,-1
 231 135 l 1,11,-1
 231 319 l 1,0,-1
EndSplineSet
Substitution2: "'tnum' Tabular Numbers lookup 6 subtable" plus.tab
Substitution2: "'aalt' Access All Alternates lookup 0 subtable" plus.tab
EndChar

StartChar: comma
Encoding: 44 44 15
Width: 300
Flags: W
LayerCount: 2
Fore
SplineSet
95 0 m 1,0,-1
 95 110 l 1,1,-1
 205 110 l 1,2,-1
 205 0 l 1,3,-1
 105 -150 l 1,4,-1
 55 -150 l 1,5,-1
 95 0 l 1,0,-1
EndSplineSet
EndChar

StartChar: hyphen
Encoding: 45 45 16
Width: 380
Flags: W
LayerCount: 2
Fore
SplineSet
40 321 m 1,0,-1
 340 321 l 1,1,-1
 340 239 l 1,2,-1
 40 239 l 1,3,-1
 40 321 l 1,0,-1
EndSplineSet
Substitution2: "'case' Case-Sensitive Forms lookup 8 subtable" uniF6BA
Substitution2: "'aalt' Access All Alternates lookup 0 subtable" uniF6BA
EndChar

StartChar: period
Encoding: 46 46 17
Width: 300
Flags: W
LayerCount: 2
Fore
SplineSet
150 -10 m 256,0,1
 121 -10 121 -10 100.5 10.5 c 128,-1,2
 80 31 80 31 80 60 c 0,3,4
 80 90 80 90 100.5 110 c 128,-1,5
 121 130 121 130 150 130 c 256,6,7
 179 130 179 130 199.5 110 c 128,-1,8
 220 90 220 90 220 60 c 0,9,10
 220 31 220 31 199.5 10.5 c 128,-1,11
 179 -10 179 -10 150 -10 c 256,0,1
EndSplineSet
EndChar

StartChar: slash
Encoding: 47 47 18
Width: 480
Flags: W
LayerCount: 2
Fore
SplineSet
356 700 m 1,0,-1
 440 700 l 1,1,-1
 124 -200 l 1,2,-1
 40 -200 l 1,3,-1
 356 700 l 1,0,-1
EndSplineSet
EndChar

StartChar: zero
Encoding: 48 48 19
Width: 620
Flags: W
LayerCount: 2
Fore
SplineSet
310 -10 m 256,0,1
 259 -10 259 -10 213.5 7 c 128,-1,2
 168 24 168 24 134 65.5 c 128,-1,3
 100 107 100 107 80 176.5 c 128,-1,4
 60 246 60 246 60 350 c 2,5,-1
 60 370 l 2,6,7
 60 467 60 467 80 532 c 128,-1,8
 100 597 100 597 134 636.5 c 128,-1,9
 168 676 168 676 213.5 693 c 128,-1,10
 259 710 259 710 310 710 c 256,11,12
 361 710 361 710 406.5 693 c 128,-1,13
 452 676 452 676 486 636.5 c 128,-1,14
 520 597 520 597 540 532 c 128,-1,15
 560 467 560 467 560 370 c 2,16,-1
 560 350 l 2,17,18
 560 246 560 246 540 176.5 c 128,-1,19
 520 107 520 107 486 65.5 c 128,-1,20
 452 24 452 24 406.5 7 c 128,-1,21
 361 -10 361 -10 310 -10 c 256,0,1
310 72 m 0,22,23
 341 72 341 72 369.5 83.5 c 128,-1,24
 398 95 398 95 419.5 125.5 c 128,-1,25
 441 156 441 156 453.5 210 c 128,-1,26
 466 264 466 264 466 350 c 2,27,-1
 466 370 l 2,28,29
 466 448 466 448 453.5 498 c 128,-1,30
 441 548 441 548 419.5 577 c 128,-1,31
 398 606 398 606 369.5 617 c 128,-1,32
 341 628 341 628 310 628 c 0,33,34
 278 628 278 628 250 617 c 128,-1,35
 222 606 222 606 200.5 577 c 128,-1,36
 179 548 179 548 166.5 498 c 128,-1,37
 154 448 154 448 154 370 c 2,38,-1
 154 350 l 2,39,40
 154 264 154 264 166.5 210 c 128,-1,41
 179 156 179 156 200.5 125.5 c 128,-1,42
 222 95 222 95 250 83.5 c 128,-1,43
 278 72 278 72 310 72 c 0,22,23
EndSplineSet
Substitution2: "'tnum' Tabular Numbers lookup 6 subtable" zero.tab
Substitution2: "'onum' Oldstyle Figures lookup 4 subtable" uniF730
AlternateSubs2: "'aalt' Access All Alternates lookup 1 subtable" uniF730 zero.tab
EndChar

StartChar: one
Encoding: 49 49 20
Width: 485
Flags: W
LayerCount: 2
Fore
SplineSet
55 82 m 1,0,-1
 222 82 l 1,1,-1
 222 597 l 1,2,-1
 55 478 l 1,3,-1
 55 580 l 1,4,-1
 224 700 l 1,5,-1
 318 700 l 1,6,-1
 318 82 l 1,7,-1
 455 82 l 1,8,-1
 455 0 l 1,9,-1
 55 0 l 1,10,-1
 55 82 l 1,0,-1
EndSplineSet
Substitution2: "'sups' Superscript lookup 11 subtable" onesuperior
Substitution2: "'tnum' Tabular Numbers lookup 6 subtable" one.tab
Substitution2: "'onum' Oldstyle Figures lookup 4 subtable" uniF731
AlternateSubs2: "'aalt' Access All Alternates lookup 1 subtable" uniF731 onesuperior one.tab
EndChar

StartChar: two
Encoding: 50 50 21
Width: 580
Flags: W
LayerCount: 2
Fore
SplineSet
40 77 m 1,0,-1
 320 320 l 2,1,2
 352 347 352 347 372.5 369 c 128,-1,3
 393 391 393 391 405 410.5 c 128,-1,4
 417 430 417 430 421.5 449 c 128,-1,5
 426 468 426 468 426 490 c 0,6,7
 426 549 426 549 391 587.5 c 128,-1,8
 356 626 356 626 295 626 c 0,9,10
 222 626 222 626 183 586.5 c 128,-1,11
 144 547 144 547 144 475 c 1,12,-1
 50 475 l 1,13,14
 50 526 50 526 67.5 569.5 c 128,-1,15
 85 613 85 613 117.5 644 c 128,-1,16
 150 675 150 675 195 692.5 c 128,-1,17
 240 710 240 710 295 710 c 0,18,19
 348 710 348 710 390 693.5 c 128,-1,20
 432 677 432 677 461 647.5 c 128,-1,21
 490 618 490 618 505 578 c 128,-1,22
 520 538 520 538 520 490 c 0,23,24
 520 454 520 454 509 423 c 128,-1,25
 498 392 498 392 478.5 364 c 128,-1,26
 459 336 459 336 431.5 309.5 c 128,-1,27
 404 283 404 283 371 255 c 2,28,-1
 162 82 l 1,29,-1
 530 82 l 1,30,-1
 530 0 l 1,31,-1
 40 0 l 1,32,-1
 40 77 l 1,0,-1
EndSplineSet
Substitution2: "'sups' Superscript lookup 11 subtable" twosuperior
Substitution2: "'tnum' Tabular Numbers lookup 6 subtable" two.tab
Substitution2: "'onum' Oldstyle Figures lookup 4 subtable" uniF732
AlternateSubs2: "'aalt' Access All Alternates lookup 1 subtable" uniF732 twosuperior two.tab
EndChar

StartChar: three
Encoding: 51 51 22
Width: 585
Flags: W
LayerCount: 2
Fore
SplineSet
285 -10 m 256,0,1
 228 -10 228 -10 183.5 5.5 c 128,-1,2
 139 21 139 21 108 48 c 128,-1,3
 77 75 77 75 61 111.5 c 128,-1,4
 45 148 45 148 45 190 c 1,5,-1
 139 190 l 1,6,7
 139 139 139 139 174 106.5 c 128,-1,8
 209 74 209 74 285 74 c 256,9,10
 361 74 361 74 396 107.5 c 128,-1,11
 431 141 431 141 431 195 c 0,12,13
 431 251 431 251 395.5 285.5 c 128,-1,14
 360 320 360 320 285 320 c 2,15,-1
 210 320 l 1,16,-1
 210 400 l 1,17,-1
 285 400 l 2,18,19
 357 400 357 400 389 430.5 c 128,-1,20
 421 461 421 461 421 515 c 0,21,22
 421 567 421 567 390 596.5 c 128,-1,23
 359 626 359 626 285 626 c 0,24,25
 214 626 214 626 181.5 595.5 c 128,-1,26
 149 565 149 565 149 520 c 1,27,-1
 55 520 l 1,28,29
 55 559 55 559 70.5 594 c 128,-1,30
 86 629 86 629 115.5 654.5 c 128,-1,31
 145 680 145 680 187.5 695 c 128,-1,32
 230 710 230 710 285 710 c 256,33,34
 340 710 340 710 383 695 c 128,-1,35
 426 680 426 680 455.5 655 c 128,-1,36
 485 630 485 630 500 596 c 128,-1,37
 515 562 515 562 515 525 c 0,38,39
 515 465 515 465 483.5 423.5 c 128,-1,40
 452 382 452 382 395 365 c 1,41,42
 455 346 455 346 490 303 c 128,-1,43
 525 260 525 260 525 185 c 0,44,45
 525 145 525 145 509 109.5 c 128,-1,46
 493 74 493 74 462.5 47.5 c 128,-1,47
 432 21 432 21 387 5.5 c 128,-1,48
 342 -10 342 -10 285 -10 c 256,0,1
EndSplineSet
Substitution2: "'sups' Superscript lookup 11 subtable" threesuperior
Substitution2: "'tnum' Tabular Numbers lookup 6 subtable" three.tab
Substitution2: "'onum' Oldstyle Figures lookup 4 subtable" uniF733
AlternateSubs2: "'aalt' Access All Alternates lookup 1 subtable" uniF733 threesuperior three.tab
EndChar

StartChar: four
Encoding: 52 52 23
Width: 610
Flags: W
LayerCount: 2
Fore
SplineSet
376 169 m 1,0,-1
 20 169 l 1,1,-1
 20 241 l 1,2,-1
 366 700 l 1,3,-1
 470 700 l 1,4,-1
 470 251 l 1,5,-1
 560 251 l 1,6,-1
 560 169 l 1,7,-1
 470 169 l 1,8,-1
 470 0 l 1,9,-1
 376 0 l 1,10,-1
 376 169 l 1,0,-1
376 251 m 1,11,-1
 376 590 l 1,12,-1
 120 251 l 1,13,-1
 376 251 l 1,11,-1
EndSplineSet
Substitution2: "'sups' Superscript lookup 11 subtable" uni2074
Substitution2: "'tnum' Tabular Numbers lookup 6 subtable" four.tab
Substitution2: "'onum' Oldstyle Figures lookup 4 subtable" uniF734
AlternateSubs2: "'aalt' Access All Alternates lookup 1 subtable" uniF734 uni2074 four.tab
EndChar

StartChar: five
Encoding: 53 53 24
Width: 580
Flags: W
LayerCount: 2
Fore
SplineSet
290 -10 m 0,0,1
 233 -10 233 -10 191 5.5 c 128,-1,2
 149 21 149 21 120.5 46.5 c 128,-1,3
 92 72 92 72 77 104 c 128,-1,4
 62 136 62 136 60 170 c 1,5,-1
 154 170 l 1,6,7
 159 132 159 132 194.5 103 c 128,-1,8
 230 74 230 74 290 74 c 0,9,10
 358 74 358 74 397 116.5 c 128,-1,11
 436 159 436 159 436 235 c 0,12,13
 436 278 436 278 423.5 309 c 128,-1,14
 411 340 411 340 390.5 359 c 128,-1,15
 370 378 370 378 344 387 c 128,-1,16
 318 396 318 396 290 396 c 0,17,18
 236 396 236 396 205.5 376 c 128,-1,19
 175 356 175 356 159 330 c 1,20,-1
 75 330 l 1,21,-1
 75 700 l 1,22,-1
 490 700 l 1,23,-1
 490 618 l 1,24,-1
 169 618 l 1,25,-1
 169 423 l 1,26,27
 221 480 221 480 305 480 c 0,28,29
 409 480 409 480 469.5 417 c 128,-1,30
 530 354 530 354 530 235 c 0,31,32
 530 179 530 179 512.5 133.5 c 128,-1,33
 495 88 495 88 463.5 56 c 128,-1,34
 432 24 432 24 387.5 7 c 128,-1,35
 343 -10 343 -10 290 -10 c 0,0,1
EndSplineSet
Substitution2: "'tnum' Tabular Numbers lookup 6 subtable" five.tab
Substitution2: "'onum' Oldstyle Figures lookup 4 subtable" uniF735
AlternateSubs2: "'aalt' Access All Alternates lookup 1 subtable" uniF735 five.tab
EndChar

StartChar: six
Encoding: 54 54 25
Width: 605
Flags: W
LayerCount: 2
Fore
SplineSet
315 -10 m 0,0,1
 257 -10 257 -10 210 9 c 128,-1,2
 163 28 163 28 129.5 67.5 c 128,-1,3
 96 107 96 107 78 167 c 128,-1,4
 60 227 60 227 60 310 c 2,5,-1
 60 330 l 2,6,7
 60 433 60 433 81 505.5 c 128,-1,8
 102 578 102 578 138 623.5 c 128,-1,9
 174 669 174 669 222 689.5 c 128,-1,10
 270 710 270 710 325 710 c 0,11,12
 406 710 406 710 461.5 671.5 c 128,-1,13
 517 633 517 633 535 555 c 1,14,-1
 441 555 l 1,15,16
 413 626 413 626 325 626 c 0,17,18
 287 626 287 626 255 613 c 128,-1,19
 223 600 223 600 199.5 570 c 128,-1,20
 176 540 176 540 162 490 c 128,-1,21
 148 440 148 440 146 365 c 1,22,23
 160 389 160 389 180 406.5 c 128,-1,24
 200 424 200 424 223.5 434.5 c 128,-1,25
 247 445 247 445 272 450 c 128,-1,26
 297 455 297 455 320 455 c 0,27,28
 425 455 425 455 487.5 396.5 c 128,-1,29
 550 338 550 338 550 229 c 2,30,-1
 550 219 l 2,31,32
 550 169 550 169 531.5 127 c 128,-1,33
 513 85 513 85 481 54.5 c 128,-1,34
 449 24 449 24 406 7 c 128,-1,35
 363 -10 363 -10 315 -10 c 0,0,1
307 74 m 256,36,37
 380 74 380 74 418 111 c 128,-1,38
 456 148 456 148 456 218 c 2,39,-1
 456 228 l 2,40,41
 456 297 456 297 418 334 c 128,-1,42
 380 371 380 371 307 371 c 256,43,44
 234 371 234 371 196 334 c 128,-1,45
 158 297 158 297 158 228 c 2,46,-1
 158 218 l 2,47,48
 158 149 158 149 196 111.5 c 128,-1,49
 234 74 234 74 307 74 c 256,36,37
EndSplineSet
Substitution2: "'tnum' Tabular Numbers lookup 6 subtable" six.tab
Substitution2: "'onum' Oldstyle Figures lookup 4 subtable" uniF736
AlternateSubs2: "'aalt' Access All Alternates lookup 1 subtable" uniF736 six.tab
EndChar

StartChar: seven
Encoding: 55 55 26
Width: 530
Flags: W
LayerCount: 2
Fore
SplineSet
392 618 m 1,0,-1
 20 618 l 1,1,-1
 20 700 l 1,2,-1
 490 700 l 1,3,-1
 490 623 l 1,4,-1
 240 0 l 1,5,-1
 140 0 l 1,6,-1
 392 618 l 1,0,-1
EndSplineSet
Substitution2: "'tnum' Tabular Numbers lookup 6 subtable" seven.tab
Substitution2: "'onum' Oldstyle Figures lookup 4 subtable" uniF737
AlternateSubs2: "'aalt' Access All Alternates lookup 1 subtable" uniF737 seven.tab
EndChar

StartChar: eight
Encoding: 56 56 27
Width: 610
Flags: W
LayerCount: 2
Fore
SplineSet
305 -10 m 256,0,1
 243 -10 243 -10 196 5 c 128,-1,2
 149 20 149 20 117.5 46 c 128,-1,3
 86 72 86 72 70.5 107.5 c 128,-1,4
 55 143 55 143 55 185 c 0,5,6
 55 245 55 245 93 292.5 c 128,-1,7
 131 340 131 340 205 360 c 1,8,9
 178 369 178 369 154.5 384.5 c 128,-1,10
 131 400 131 400 113 421 c 128,-1,11
 95 442 95 442 85 468.5 c 128,-1,12
 75 495 75 495 75 525 c 0,13,14
 75 564 75 564 90 598 c 128,-1,15
 105 632 105 632 134 656.5 c 128,-1,16
 163 681 163 681 206 695.5 c 128,-1,17
 249 710 249 710 305 710 c 256,18,19
 361 710 361 710 404 695.5 c 128,-1,20
 447 681 447 681 476 656.5 c 128,-1,21
 505 632 505 632 520 598 c 128,-1,22
 535 564 535 564 535 525 c 0,23,24
 535 465 535 465 497.5 423 c 128,-1,25
 460 381 460 381 405 360 c 1,26,27
 480 335 480 335 517.5 294 c 128,-1,28
 555 253 555 253 555 185 c 0,29,30
 555 143 555 143 539.5 107.5 c 128,-1,31
 524 72 524 72 492.5 46 c 128,-1,32
 461 20 461 20 414 5 c 128,-1,33
 367 -10 367 -10 305 -10 c 256,0,1
305 74 m 256,34,35
 348 74 348 74 378 83.5 c 128,-1,36
 408 93 408 93 426.5 108.5 c 128,-1,37
 445 124 445 124 453 145.5 c 128,-1,38
 461 167 461 167 461 191 c 0,39,40
 461 219 461 219 449.5 242 c 128,-1,41
 438 265 438 265 417 282.5 c 128,-1,42
 396 300 396 300 367.5 310.5 c 128,-1,43
 339 321 339 321 305 325 c 1,44,45
 271 321 271 321 242.5 310.5 c 128,-1,46
 214 300 214 300 193 283 c 128,-1,47
 172 266 172 266 160.5 242.5 c 128,-1,48
 149 219 149 219 149 191 c 0,49,50
 149 167 149 167 157 145.5 c 128,-1,51
 165 124 165 124 183.5 108.5 c 128,-1,52
 202 93 202 93 232 83.5 c 128,-1,53
 262 74 262 74 305 74 c 256,34,35
305 395 m 1,54,55
 365 403 365 403 403 433.5 c 128,-1,56
 441 464 441 464 441 520 c 0,57,58
 441 571 441 571 407.5 598.5 c 128,-1,59
 374 626 374 626 305 626 c 0,60,61
 235 626 235 626 202 598.5 c 128,-1,62
 169 571 169 571 169 520 c 0,63,64
 169 464 169 464 207 433.5 c 128,-1,65
 245 403 245 403 305 395 c 1,54,55
EndSplineSet
Substitution2: "'tnum' Tabular Numbers lookup 6 subtable" eight.tab
Substitution2: "'onum' Oldstyle Figures lookup 4 subtable" uniF738
AlternateSubs2: "'aalt' Access All Alternates lookup 1 subtable" uniF738 eight.tab
EndChar

StartChar: nine
Encoding: 57 57 28
Width: 605
Flags: W
LayerCount: 2
Fore
SplineSet
285 -10 m 0,0,1
 200 -10 200 -10 144 28.5 c 128,-1,2
 88 67 88 67 70 145 c 1,3,-1
 164 145 l 1,4,5
 192 74 192 74 285 74 c 0,6,7
 321 74 321 74 352 87 c 128,-1,8
 383 100 383 100 406 130 c 128,-1,9
 429 160 429 160 443 210 c 128,-1,10
 457 260 457 260 459 335 c 1,11,12
 445 311 445 311 425 293.5 c 128,-1,13
 405 276 405 276 381.5 265.5 c 128,-1,14
 358 255 358 255 333 250 c 128,-1,15
 308 245 308 245 285 245 c 0,16,17
 180 245 180 245 117.5 303.5 c 128,-1,18
 55 362 55 362 55 471 c 2,19,-1
 55 481 l 2,20,21
 55 531 55 531 73.5 573 c 128,-1,22
 92 615 92 615 124 645.5 c 128,-1,23
 156 676 156 676 199 693 c 128,-1,24
 242 710 242 710 290 710 c 0,25,26
 408 710 408 710 476.5 633 c 128,-1,27
 545 556 545 556 545 390 c 2,28,-1
 545 370 l 2,29,30
 545 267 545 267 524 194.5 c 128,-1,31
 503 122 503 122 467.5 76.5 c 128,-1,32
 432 31 432 31 385 10.5 c 128,-1,33
 338 -10 338 -10 285 -10 c 0,0,1
298 329 m 256,34,35
 371 329 371 329 409 366 c 128,-1,36
 447 403 447 403 447 472 c 2,37,-1
 447 482 l 2,38,39
 447 550 447 550 408.5 588 c 128,-1,40
 370 626 370 626 298 626 c 0,41,42
 225 626 225 626 187 589.5 c 128,-1,43
 149 553 149 553 149 482 c 2,44,-1
 149 472 l 2,45,46
 149 403 149 403 187 366 c 128,-1,47
 225 329 225 329 298 329 c 256,34,35
EndSplineSet
Substitution2: "'tnum' Tabular Numbers lookup 6 subtable" nine.tab
Substitution2: "'onum' Oldstyle Figures lookup 4 subtable" uniF739
AlternateSubs2: "'aalt' Access All Alternates lookup 1 subtable" uniF739 nine.tab
EndChar

StartChar: less
Encoding: 60 60 31
Width: 550
Flags: W
LayerCount: 2
Fore
SplineSet
50 321 m 1,0,-1
 50 399 l 1,1,-1
 500 600 l 1,2,-1
 500 506 l 1,3,-1
 160 362 l 1,4,-1
 500 218 l 1,5,-1
 500 120 l 1,6,-1
 50 321 l 1,0,-1
EndSplineSet
Substitution2: "'tnum' Tabular Numbers lookup 6 subtable" less.tab
Substitution2: "'aalt' Access All Alternates lookup 0 subtable" less.tab
EndChar

StartChar: equal
Encoding: 61 61 32
Width: 550
Flags: W
LayerCount: 2
Fore
SplineSet
50 301 m 1,0,-1
 500 301 l 1,1,-1
 500 219 l 1,2,-1
 50 219 l 1,3,-1
 50 301 l 1,0,-1
50 501 m 1,4,-1
 500 501 l 1,5,-1
 500 419 l 1,6,-1
 50 419 l 1,7,-1
 50 501 l 1,4,-1
EndSplineSet
Substitution2: "'tnum' Tabular Numbers lookup 6 subtable" equal.tab
Substitution2: "'aalt' Access All Alternates lookup 0 subtable" equal.tab
EndChar

StartChar: greater
Encoding: 62 62 33
Width: 550
Flags: W
LayerCount: 2
Fore
SplineSet
500 399 m 1,0,-1
 500 321 l 1,1,-1
 50 120 l 1,2,-1
 50 214 l 1,3,-1
 390 358 l 1,4,-1
 50 502 l 1,5,-1
 50 600 l 1,6,-1
 500 399 l 1,0,-1
EndSplineSet
Substitution2: "'tnum' Tabular Numbers lookup 6 subtable" greater.tab
Substitution2: "'aalt' Access All Alternates lookup 0 subtable" greater.tab
EndChar

StartChar: question
Encoding: 63 63 34
Width: 510
Flags: W
LayerCount: 2
Fore
SplineSet
210 250 m 2,0,1
 210 269 210 269 212.5 285.5 c 128,-1,2
 215 302 215 302 223.5 318.5 c 128,-1,3
 232 335 232 335 247.5 353 c 128,-1,4
 263 371 263 371 289 393 c 0,5,6
 331 429 331 429 353 458 c 128,-1,7
 375 487 375 487 375 520 c 0,8,9
 375 568 375 568 343 599 c 128,-1,10
 311 630 311 630 255 630 c 256,11,12
 199 630 199 630 167 599 c 128,-1,13
 135 568 135 568 135 520 c 1,14,-1
 45 520 l 1,15,16
 45 561 45 561 59.5 595.5 c 128,-1,17
 74 630 74 630 101.5 655.5 c 128,-1,18
 129 681 129 681 168 695.5 c 128,-1,19
 207 710 207 710 255 710 c 256,20,21
 303 710 303 710 342 695.5 c 128,-1,22
 381 681 381 681 408.5 655.5 c 128,-1,23
 436 630 436 630 450.5 595.5 c 128,-1,24
 465 561 465 561 465 520 c 0,25,26
 465 492 465 492 456 467 c 128,-1,27
 447 442 447 442 431.5 419.5 c 128,-1,28
 416 397 416 397 396 376.5 c 128,-1,29
 376 356 376 356 355 338 c 0,30,31
 338 324 338 324 327 311.5 c 128,-1,32
 316 299 316 299 309.5 287.5 c 128,-1,33
 303 276 303 276 300.5 264.5 c 128,-1,34
 298 253 298 253 298 240 c 2,35,-1
 298 220 l 1,36,-1
 210 220 l 1,37,-1
 210 250 l 2,0,1
255 -10 m 256,38,39
 226 -10 226 -10 205.5 10.5 c 128,-1,40
 185 31 185 31 185 60 c 0,41,42
 185 90 185 90 205.5 110 c 128,-1,43
 226 130 226 130 255 130 c 256,44,45
 284 130 284 130 304.5 110 c 128,-1,46
 325 90 325 90 325 60 c 0,47,48
 325 31 325 31 304.5 10.5 c 128,-1,49
 284 -10 284 -10 255 -10 c 256,38,39
EndSplineSet
EndChar

StartChar: at
Encoding: 64 64 35
Width: 1020
Flags: W
LayerCount: 2
Fore
SplineSet
520 -210 m 0,0,1
 419 -210 419 -210 334.5 -176 c 128,-1,2
 250 -142 250 -142 189 -81 c 128,-1,3
 128 -20 128 -20 94 64.5 c 128,-1,4
 60 149 60 149 60 250 c 0,5,6
 60 349 60 349 94.5 433.5 c 128,-1,7
 129 518 129 518 189.5 579.5 c 128,-1,8
 250 641 250 641 332 675.5 c 128,-1,9
 414 710 414 710 510 710 c 0,10,11
 611 710 611 710 694 678 c 128,-1,12
 777 646 777 646 836 590 c 128,-1,13
 895 534 895 534 927.5 457 c 128,-1,14
 960 380 960 380 960 290 c 0,15,16
 960 221 960 221 944 169 c 128,-1,17
 928 117 928 117 900 83 c 128,-1,18
 872 49 872 49 833.5 32 c 128,-1,19
 795 15 795 15 750 15 c 0,20,21
 728 15 728 15 708 19.5 c 128,-1,22
 688 24 688 24 671 35 c 128,-1,23
 654 46 654 46 642 65 c 128,-1,24
 630 84 630 84 625 113 c 1,25,26
 602 69 602 69 568.5 42 c 128,-1,27
 535 15 535 15 475 15 c 0,28,29
 434 15 434 15 400 29 c 128,-1,30
 366 43 366 43 341.5 71 c 128,-1,31
 317 99 317 99 303.5 141.5 c 128,-1,32
 290 184 290 184 290 240 c 2,33,-1
 290 260 l 2,34,35
 290 316 290 316 303.5 358.5 c 128,-1,36
 317 401 317 401 341.5 429 c 128,-1,37
 366 457 366 457 400 471 c 128,-1,38
 434 485 434 485 475 485 c 0,39,40
 532 485 532 485 565.5 460 c 128,-1,41
 599 435 599 435 612 405 c 1,42,-1
 612 475 l 1,43,-1
 700 475 l 1,44,-1
 700 191 l 2,45,46
 700 162 700 162 703.5 143 c 128,-1,47
 707 124 707 124 713.5 113 c 128,-1,48
 720 102 720 102 729.5 97.5 c 128,-1,49
 739 93 739 93 750 93 c 0,50,51
 777 93 777 93 799.5 103 c 128,-1,52
 822 113 822 113 838 136.5 c 128,-1,53
 854 160 854 160 863 197.5 c 128,-1,54
 872 235 872 235 872 290 c 0,55,56
 872 373 872 373 842.5 437 c 128,-1,57
 813 501 813 501 763 544.5 c 128,-1,58
 713 588 713 588 647.5 610 c 128,-1,59
 582 632 582 632 510 632 c 0,60,61
 432 632 432 632 366 604 c 128,-1,62
 300 576 300 576 251.5 526 c 128,-1,63
 203 476 203 476 175.5 405.5 c 128,-1,64
 148 335 148 335 148 250 c 0,65,66
 148 163 148 163 175 92.5 c 128,-1,67
 202 22 202 22 251 -28 c 128,-1,68
 300 -78 300 -78 368.5 -105 c 128,-1,69
 437 -132 437 -132 520 -132 c 256,70,71
 603 -132 603 -132 658.5 -116.5 c 128,-1,72
 714 -101 714 -101 750 -80 c 1,73,-1
 750 -165 l 1,74,75
 712 -185 712 -185 657.5 -197.5 c 128,-1,76
 603 -210 603 -210 520 -210 c 0,0,1
490 93 m 0,77,78
 544 93 544 93 578 127 c 128,-1,79
 612 161 612 161 612 215 c 2,80,-1
 612 285 l 2,81,82
 612 339 612 339 578 373 c 128,-1,83
 544 407 544 407 490 407 c 0,84,85
 439 407 439 407 408.5 372 c 128,-1,86
 378 337 378 337 378 260 c 2,87,-1
 378 240 l 2,88,89
 378 163 378 163 408.5 128 c 128,-1,90
 439 93 439 93 490 93 c 0,77,78
EndSplineSet
EndChar

StartChar: A
Encoding: 65 65 36
Width: 670
GlyphClass: 2
Flags: W
LayerCount: 2
Fore
SplineSet
481 174 m 1,0,-1
 185 174 l 1,1,-1
 118 0 l 1,2,-1
 20 0 l 1,3,-1
 288 700 l 1,4,-1
 382 700 l 1,5,-1
 650 0 l 1,6,-1
 548 0 l 1,7,-1
 481 174 l 1,0,-1
216 256 m 1,8,-1
 450 256 l 1,9,-1
 333 580 l 1,10,-1
 216 256 l 1,8,-1
EndSplineSet
Position2: "'cpsp' Capital Spacing lookup 0 subtable" dx=5 dy=0 dh=10 dv=0
EndChar

StartChar: B
Encoding: 66 66 37
Width: 670
GlyphClass: 2
Flags: W
LayerCount: 2
Fore
SplineSet
100 700 m 1,0,-1
 350 700 l 2,1,2
 413 700 413 700 458 686 c 128,-1,3
 503 672 503 672 532.5 647.5 c 128,-1,4
 562 623 562 623 576 588.5 c 128,-1,5
 590 554 590 554 590 513 c 0,6,7
 590 459 590 459 560 420.5 c 128,-1,8
 530 382 530 382 486 365 c 1,9,10
 548 351 548 351 584 308.5 c 128,-1,11
 620 266 620 266 620 198 c 0,12,13
 620 155 620 155 606 119 c 128,-1,14
 592 83 592 83 562 56.5 c 128,-1,15
 532 30 532 30 484.5 15 c 128,-1,16
 437 0 437 0 370 0 c 2,17,-1
 100 0 l 1,18,-1
 100 700 l 1,0,-1
370 82 m 2,19,20
 415 82 415 82 445 90.5 c 128,-1,21
 475 99 475 99 493 114.5 c 128,-1,22
 511 130 511 130 518.5 152 c 128,-1,23
 526 174 526 174 526 201 c 256,24,25
 526 228 526 228 518.5 250.5 c 128,-1,26
 511 273 511 273 493 288.5 c 128,-1,27
 475 304 475 304 444.5 312.5 c 128,-1,28
 414 321 414 321 369 321 c 2,29,-1
 194 321 l 1,30,-1
 194 82 l 1,31,-1
 370 82 l 2,19,20
350 399 m 2,32,33
 392 399 392 399 420 407 c 128,-1,34
 448 415 448 415 465 430 c 128,-1,35
 482 445 482 445 489 465 c 128,-1,36
 496 485 496 485 496 509 c 256,37,38
 496 533 496 533 489 553.5 c 128,-1,39
 482 574 482 574 465 588 c 128,-1,40
 448 602 448 602 420 610 c 128,-1,41
 392 618 392 618 350 618 c 2,42,-1
 194 618 l 1,43,-1
 194 399 l 1,44,-1
 350 399 l 2,32,33
EndSplineSet
Position2: "'cpsp' Capital Spacing lookup 0 subtable" dx=5 dy=0 dh=10 dv=0
EndChar

StartChar: C
Encoding: 67 67 38
Width: 680
GlyphClass: 2
Flags: W
LayerCount: 2
Fore
SplineSet
355 -10 m 0,0,1
 296 -10 296 -10 243 10.5 c 128,-1,2
 190 31 190 31 149 74.5 c 128,-1,3
 108 118 108 118 84 185 c 128,-1,4
 60 252 60 252 60 345 c 2,5,-1
 60 365 l 2,6,7
 60 455 60 455 84 520 c 128,-1,8
 108 585 108 585 149 627 c 128,-1,9
 190 669 190 669 243 689.5 c 128,-1,10
 296 710 296 710 355 710 c 0,11,12
 412 710 412 710 459.5 695 c 128,-1,13
 507 680 507 680 543 652 c 128,-1,14
 579 624 579 624 601.5 583 c 128,-1,15
 624 542 624 542 630 490 c 1,16,-1
 530 490 l 1,17,18
 516 558 516 558 471 592 c 128,-1,19
 426 626 426 626 355 626 c 0,20,21
 318 626 318 626 283 612 c 128,-1,22
 248 598 248 598 220.5 567.5 c 128,-1,23
 193 537 193 537 176.5 487 c 128,-1,24
 160 437 160 437 160 365 c 2,25,-1
 160 345 l 2,26,27
 160 269 160 269 178 217.5 c 128,-1,28
 196 166 196 166 224 134 c 128,-1,29
 252 102 252 102 287 88 c 128,-1,30
 322 74 322 74 355 74 c 0,31,32
 433 74 433 74 477 112 c 128,-1,33
 521 150 521 150 530 210 c 1,34,-1
 630 210 l 1,35,36
 622 152 622 152 598 110.5 c 128,-1,37
 574 69 574 69 537.5 42 c 128,-1,38
 501 15 501 15 454.5 2.5 c 128,-1,39
 408 -10 408 -10 355 -10 c 0,0,1
EndSplineSet
Position2: "'cpsp' Capital Spacing lookup 0 subtable" dx=5 dy=0 dh=10 dv=0
EndChar

StartChar: D
Encoding: 68 68 39
Width: 700
GlyphClass: 2
Flags: W
LayerCount: 2
Fore
SplineSet
100 700 m 1,0,-1
 305 700 l 2,1,2
 384 700 384 700 446 678.5 c 128,-1,3
 508 657 508 657 551 615 c 128,-1,4
 594 573 594 573 617 510 c 128,-1,5
 640 447 640 447 640 365 c 2,6,-1
 640 345 l 2,7,8
 640 261 640 261 616.5 196.5 c 128,-1,9
 593 132 593 132 548.5 88.5 c 128,-1,10
 504 45 504 45 440 22.5 c 128,-1,11
 376 0 376 0 295 0 c 2,12,-1
 100 0 l 1,13,-1
 100 700 l 1,0,-1
285 82 m 2,14,15
 344 82 344 82 391.5 97 c 128,-1,16
 439 112 439 112 472 143.5 c 128,-1,17
 505 175 505 175 522.5 225 c 128,-1,18
 540 275 540 275 540 345 c 2,19,-1
 540 365 l 2,20,21
 540 432 540 432 523 480 c 128,-1,22
 506 528 506 528 474 558.5 c 128,-1,23
 442 589 442 589 396.5 603.5 c 128,-1,24
 351 618 351 618 295 618 c 2,25,-1
 194 618 l 1,26,-1
 194 82 l 1,27,-1
 285 82 l 2,14,15
EndSplineSet
Position2: "'cpsp' Capital Spacing lookup 0 subtable" dx=5 dy=0 dh=10 dv=0
EndChar

StartChar: E
Encoding: 69 69 40
Width: 610
GlyphClass: 2
Flags: W
LayerCount: 2
Fore
SplineSet
100 700 m 1,0,-1
 550 700 l 1,1,-1
 550 618 l 1,2,-1
 194 618 l 1,3,-1
 194 401 l 1,4,-1
 520 401 l 1,5,-1
 520 319 l 1,6,-1
 194 319 l 1,7,-1
 194 82 l 1,8,-1
 550 82 l 1,9,-1
 550 0 l 1,10,-1
 100 0 l 1,11,-1
 100 700 l 1,0,-1
EndSplineSet
Position2: "'cpsp' Capital Spacing lookup 0 subtable" dx=5 dy=0 dh=10 dv=0
EndChar

StartChar: F
Encoding: 70 70 41
Width: 595
GlyphClass: 2
Flags: W
LayerCount: 2
Fore
SplineSet
100 700 m 1,0,-1
 550 700 l 1,1,-1
 550 618 l 1,2,-1
 194 618 l 1,3,-1
 194 391 l 1,4,-1
 520 391 l 1,5,-1
 520 309 l 1,6,-1
 194 309 l 1,7,-1
 194 0 l 1,8,-1
 100 0 l 1,9,-1
 100 700 l 1,0,-1
EndSplineSet
Position2: "'cpsp' Capital Spacing lookup 0 subtable" dx=5 dy=0 dh=10 dv=0
EndChar

StartChar: G
Encoding: 71 71 42
Width: 705
GlyphClass: 2
Flags: W
LayerCount: 2
Fore
SplineSet
365 -10 m 0,0,1
 303 -10 303 -10 247.5 10.5 c 128,-1,2
 192 31 192 31 150.5 74.5 c 128,-1,3
 109 118 109 118 84.5 185 c 128,-1,4
 60 252 60 252 60 345 c 2,5,-1
 60 365 l 2,6,7
 60 455 60 455 84.5 520 c 128,-1,8
 109 585 109 585 150.5 627 c 128,-1,9
 192 669 192 669 247.5 689.5 c 128,-1,10
 303 710 303 710 365 710 c 0,11,12
 416 710 416 710 460 695.5 c 128,-1,13
 504 681 504 681 539 654 c 128,-1,14
 574 627 574 627 598.5 588 c 128,-1,15
 623 549 623 549 635 500 c 1,16,-1
 535 500 l 1,17,18
 513 566 513 566 466 596 c 128,-1,19
 419 626 419 626 365 626 c 0,20,21
 324 626 324 626 287 612 c 128,-1,22
 250 598 250 598 221.5 567.5 c 128,-1,23
 193 537 193 537 176.5 487 c 128,-1,24
 160 437 160 437 160 365 c 2,25,-1
 160 345 l 2,26,27
 160 269 160 269 178 217.5 c 128,-1,28
 196 166 196 166 225.5 134 c 128,-1,29
 255 102 255 102 291.5 88 c 128,-1,30
 328 74 328 74 365 74 c 0,31,32
 448 74 448 74 500 121 c 128,-1,33
 552 168 552 168 560 275 c 1,34,-1
 385 275 l 1,35,-1
 385 355 l 1,36,-1
 650 355 l 1,37,-1
 650 325 l 2,38,39
 650 244 650 244 630 181.5 c 128,-1,40
 610 119 610 119 573.5 76.5 c 128,-1,41
 537 34 537 34 484 12 c 128,-1,42
 431 -10 431 -10 365 -10 c 0,0,1
EndSplineSet
Position2: "'cpsp' Capital Spacing lookup 0 subtable" dx=5 dy=0 dh=10 dv=0
EndChar

StartChar: H
Encoding: 72 72 43
Width: 760
GlyphClass: 2
Flags: W
LayerCount: 2
Fore
SplineSet
100 700 m 1,0,-1
 194 700 l 1,1,-1
 194 401 l 1,2,-1
 566 401 l 1,3,-1
 566 700 l 1,4,-1
 660 700 l 1,5,-1
 660 0 l 1,6,-1
 566 0 l 1,7,-1
 566 319 l 1,8,-1
 194 319 l 1,9,-1
 194 0 l 1,10,-1
 100 0 l 1,11,-1
 100 700 l 1,0,-1
EndSplineSet
Position2: "'cpsp' Capital Spacing lookup 0 subtable" dx=5 dy=0 dh=10 dv=0
EndChar

StartChar: I
Encoding: 73 73 44
Width: 314
GlyphClass: 2
Flags: W
LayerCount: 2
Fore
SplineSet
110 700 m 1,0,-1
 204 700 l 1,1,-1
 204 0 l 1,2,-1
 110 0 l 1,3,-1
 110 700 l 1,0,-1
EndSplineSet
Position2: "'cpsp' Capital Spacing lookup 0 subtable" dx=5 dy=0 dh=10 dv=0
EndChar

StartChar: J
Encoding: 74 74 45
Width: 555
GlyphClass: 2
Flags: W
LayerCount: 2
Fore
SplineSet
235 -10 m 0,0,1
 131 -10 131 -10 80 41.5 c 128,-1,2
 29 93 29 93 25 180 c 1,3,-1
 117 180 l 1,4,5
 121 130 121 130 148 102 c 128,-1,6
 175 74 175 74 235 74 c 0,7,8
 266 74 266 74 290 82 c 128,-1,9
 314 90 314 90 329.5 110.5 c 128,-1,10
 345 131 345 131 353 165 c 128,-1,11
 361 199 361 199 361 250 c 2,12,-1
 361 700 l 1,13,-1
 455 700 l 1,14,-1
 455 250 l 2,15,16
 455 110 455 110 401 50 c 128,-1,17
 347 -10 347 -10 235 -10 c 0,0,1
EndSplineSet
Position2: "'cpsp' Capital Spacing lookup 0 subtable" dx=5 dy=0 dh=10 dv=0
EndChar

StartChar: K
Encoding: 75 75 46
Width: 690
GlyphClass: 2
Flags: W
LayerCount: 2
Fore
SplineSet
100 700 m 1,0,-1
 194 700 l 1,1,-1
 194 331 l 1,2,-1
 523 700 l 1,3,-1
 640 700 l 1,4,-1
 380 412 l 1,5,-1
 660 0 l 1,6,-1
 544 0 l 1,7,-1
 319 348 l 1,8,-1
 194 211 l 1,9,-1
 194 0 l 1,10,-1
 100 0 l 1,11,-1
 100 700 l 1,0,-1
EndSplineSet
Position2: "'cpsp' Capital Spacing lookup 0 subtable" dx=5 dy=0 dh=10 dv=0
EndChar

StartChar: L
Encoding: 76 76 47
Width: 570
GlyphClass: 2
Flags: W
LayerCount: 2
Fore
SplineSet
100 700 m 1,0,-1
 194 700 l 1,1,-1
 194 82 l 1,2,-1
 550 82 l 1,3,-1
 550 0 l 1,4,-1
 100 0 l 1,5,-1
 100 700 l 1,0,-1
EndSplineSet
Position2: "'cpsp' Capital Spacing lookup 0 subtable" dx=5 dy=0 dh=10 dv=0
EndChar

StartChar: M
Encoding: 77 77 48
Width: 860
GlyphClass: 2
Flags: W
LayerCount: 2
Fore
SplineSet
100 700 m 1,0,-1
 198 700 l 1,1,-1
 432 255 l 1,2,-1
 666 700 l 1,3,-1
 760 700 l 1,4,-1
 760 0 l 1,5,-1
 666 0 l 1,6,-1
 666 530 l 1,7,-1
 465 150 l 1,8,-1
 395 150 l 1,9,-1
 194 530 l 1,10,-1
 194 0 l 1,11,-1
 100 0 l 1,12,-1
 100 700 l 1,0,-1
EndSplineSet
Position2: "'cpsp' Capital Spacing lookup 0 subtable" dx=5 dy=0 dh=10 dv=0
EndChar

StartChar: N
Encoding: 78 78 49
Width: 760
GlyphClass: 2
Flags: W
LayerCount: 2
Fore
SplineSet
100 700 m 1,0,-1
 192 700 l 1,1,-1
 568 155 l 1,2,-1
 568 700 l 1,3,-1
 660 700 l 1,4,-1
 660 0 l 1,5,-1
 568 0 l 1,6,-1
 192 545 l 1,7,-1
 192 0 l 1,8,-1
 100 0 l 1,9,-1
 100 700 l 1,0,-1
EndSplineSet
Position2: "'cpsp' Capital Spacing lookup 0 subtable" dx=5 dy=0 dh=10 dv=0
EndChar

StartChar: O
Encoding: 79 79 50
Width: 740
GlyphClass: 2
Flags: W
LayerCount: 2
Fore
SplineSet
370 -10 m 256,0,1
 310 -10 310 -10 254 10.5 c 128,-1,2
 198 31 198 31 155 74 c 128,-1,3
 112 117 112 117 86 184 c 128,-1,4
 60 251 60 251 60 345 c 2,5,-1
 60 365 l 2,6,7
 60 455 60 455 86 520 c 128,-1,8
 112 585 112 585 155 627.5 c 128,-1,9
 198 670 198 670 254 690 c 128,-1,10
 310 710 310 710 370 710 c 256,11,12
 430 710 430 710 486 690 c 128,-1,13
 542 670 542 670 585 627.5 c 128,-1,14
 628 585 628 585 654 520 c 128,-1,15
 680 455 680 455 680 365 c 2,16,-1
 680 345 l 2,17,18
 680 251 680 251 654 184 c 128,-1,19
 628 117 628 117 585 74 c 128,-1,20
 542 31 542 31 486 10.5 c 128,-1,21
 430 -10 430 -10 370 -10 c 256,0,1
370 74 m 256,22,23
 411 74 411 74 449 89 c 128,-1,24
 487 104 487 104 516 136.5 c 128,-1,25
 545 169 545 169 562.5 220.5 c 128,-1,26
 580 272 580 272 580 345 c 2,27,-1
 580 365 l 2,28,29
 580 434 580 434 562.5 483.5 c 128,-1,30
 545 533 545 533 516 564.5 c 128,-1,31
 487 596 487 596 449 611 c 128,-1,32
 411 626 411 626 370 626 c 256,33,34
 329 626 329 626 291 611 c 128,-1,35
 253 596 253 596 224 564.5 c 128,-1,36
 195 533 195 533 177.5 483.5 c 128,-1,37
 160 434 160 434 160 365 c 2,38,-1
 160 345 l 2,39,40
 160 272 160 272 177.5 220.5 c 128,-1,41
 195 169 195 169 224 136.5 c 128,-1,42
 253 104 253 104 291 89 c 128,-1,43
 329 74 329 74 370 74 c 256,22,23
EndSplineSet
Position2: "'cpsp' Capital Spacing lookup 0 subtable" dx=5 dy=0 dh=10 dv=0
EndChar

StartChar: P
Encoding: 80 80 51
Width: 655
GlyphClass: 2
Flags: W
LayerCount: 2
Fore
SplineSet
100 700 m 1,0,-1
 340 700 l 2,1,2
 409 700 409 700 460 684 c 128,-1,3
 511 668 511 668 544.5 639.5 c 128,-1,4
 578 611 578 611 594 571.5 c 128,-1,5
 610 532 610 532 610 485 c 256,6,7
 610 438 610 438 594 398.5 c 128,-1,8
 578 359 578 359 544.5 330.5 c 128,-1,9
 511 302 511 302 460 286 c 128,-1,10
 409 270 409 270 340 270 c 2,11,-1
 194 270 l 1,12,-1
 194 0 l 1,13,-1
 100 0 l 1,14,-1
 100 700 l 1,0,-1
335 352 m 2,15,16
 385 352 385 352 419.5 361.5 c 128,-1,17
 454 371 454 371 475.5 388 c 128,-1,18
 497 405 497 405 506.5 430 c 128,-1,19
 516 455 516 455 516 485 c 256,20,21
 516 515 516 515 506.5 540 c 128,-1,22
 497 565 497 565 475.5 582 c 128,-1,23
 454 599 454 599 419.5 608.5 c 128,-1,24
 385 618 385 618 335 618 c 2,25,-1
 194 618 l 1,26,-1
 194 352 l 1,27,-1
 335 352 l 2,15,16
EndSplineSet
Position2: "'cpsp' Capital Spacing lookup 0 subtable" dx=5 dy=0 dh=10 dv=0
EndChar

StartChar: Q
Encoding: 81 81 52
Width: 740
GlyphClass: 2
Flags: W
LayerCount: 2
Fore
SplineSet
370 -10 m 0,0,1
 310 -10 310 -10 254 10.5 c 128,-1,2
 198 31 198 31 155 74 c 128,-1,3
 112 117 112 117 86 184 c 128,-1,4
 60 251 60 251 60 345 c 2,5,-1
 60 365 l 2,6,7
 60 455 60 455 86 520 c 128,-1,8
 112 585 112 585 155 627.5 c 128,-1,9
 198 670 198 670 254 690 c 128,-1,10
 310 710 310 710 370 710 c 256,11,12
 430 710 430 710 486 690 c 128,-1,13
 542 670 542 670 585 627.5 c 128,-1,14
 628 585 628 585 654 520 c 128,-1,15
 680 455 680 455 680 365 c 2,16,-1
 680 345 l 2,17,18
 680 260 680 260 659 198.5 c 128,-1,19
 638 137 638 137 603 94 c 1,20,-1
 670 27 l 1,21,-1
 613 -30 l 1,22,-1
 543 39 l 1,23,24
 505 14 505 14 461 2 c 128,-1,25
 417 -10 417 -10 370 -10 c 0,0,1
370 74 m 0,26,27
 399 74 399 74 426.5 81.5 c 128,-1,28
 454 89 454 89 478 104 c 1,29,-1
 370 213 l 1,30,-1
 427 270 l 1,31,-1
 535 161 l 1,32,33
 556 193 556 193 568 238.5 c 128,-1,34
 580 284 580 284 580 345 c 2,35,-1
 580 365 l 2,36,37
 580 434 580 434 562.5 483.5 c 128,-1,38
 545 533 545 533 516 564.5 c 128,-1,39
 487 596 487 596 449 611 c 128,-1,40
 411 626 411 626 370 626 c 256,41,42
 329 626 329 626 291 611 c 128,-1,43
 253 596 253 596 224 564.5 c 128,-1,44
 195 533 195 533 177.5 483.5 c 128,-1,45
 160 434 160 434 160 365 c 2,46,-1
 160 345 l 2,47,48
 160 272 160 272 177.5 220.5 c 128,-1,49
 195 169 195 169 224 136.5 c 128,-1,50
 253 104 253 104 291 89 c 128,-1,51
 329 74 329 74 370 74 c 0,26,27
EndSplineSet
Position2: "'cpsp' Capital Spacing lookup 0 subtable" dx=5 dy=0 dh=10 dv=0
EndChar

StartChar: R
Encoding: 82 82 53
Width: 680
GlyphClass: 2
Flags: W
LayerCount: 2
Fore
SplineSet
100 700 m 1,0,-1
 345 700 l 2,1,2
 411 700 411 700 460.5 684 c 128,-1,3
 510 668 510 668 543 640 c 128,-1,4
 576 612 576 612 593 573.5 c 128,-1,5
 610 535 610 535 610 490 c 0,6,7
 610 420 610 420 568.5 367.5 c 128,-1,8
 527 315 527 315 446 294 c 1,9,-1
 630 0 l 1,10,-1
 519 0 l 1,11,-1
 352 282 l 1,12,-1
 194 282 l 1,13,-1
 194 0 l 1,14,-1
 100 0 l 1,15,-1
 100 700 l 1,0,-1
335 362 m 2,16,17
 432 362 432 362 474 397.5 c 128,-1,18
 516 433 516 433 516 490 c 256,19,20
 516 547 516 547 474 582.5 c 128,-1,21
 432 618 432 618 335 618 c 2,22,-1
 194 618 l 1,23,-1
 194 362 l 1,24,-1
 335 362 l 2,16,17
EndSplineSet
Position2: "'cpsp' Capital Spacing lookup 0 subtable" dx=5 dy=0 dh=10 dv=0
EndChar

StartChar: S
Encoding: 83 83 54
Width: 640
GlyphClass: 2
Flags: W
LayerCount: 2
Fore
SplineSet
320 -10 m 256,0,1
 257 -10 257 -10 210 5 c 128,-1,2
 163 20 163 20 131 46.5 c 128,-1,3
 99 73 99 73 80.5 108.5 c 128,-1,4
 62 144 62 144 55 185 c 1,5,-1
 149 185 l 1,6,7
 154 162 154 162 166 141.5 c 128,-1,8
 178 121 178 121 198.5 106 c 128,-1,9
 219 91 219 91 249 82.5 c 128,-1,10
 279 74 279 74 320 74 c 0,11,12
 404 74 404 74 447.5 106 c 128,-1,13
 491 138 491 138 491 185 c 0,14,15
 491 214 491 214 481.5 234 c 128,-1,16
 472 254 472 254 449.5 269 c 128,-1,17
 427 284 427 284 390.5 296 c 128,-1,18
 354 308 354 308 301 320 c 0,19,20
 242 333 242 333 199.5 348.5 c 128,-1,21
 157 364 157 364 129.5 387.5 c 128,-1,22
 102 411 102 411 88.5 444 c 128,-1,23
 75 477 75 477 75 525 c 0,24,25
 75 564 75 564 92 597.5 c 128,-1,26
 109 631 109 631 140.5 656 c 128,-1,27
 172 681 172 681 217.5 695.5 c 128,-1,28
 263 710 263 710 320 710 c 0,29,30
 376 710 376 710 418 695.5 c 128,-1,31
 460 681 460 681 489.5 656 c 128,-1,32
 519 631 519 631 536 597.5 c 128,-1,33
 553 564 553 564 560 525 c 1,34,-1
 466 525 l 1,35,36
 461 546 461 546 451 564.5 c 128,-1,37
 441 583 441 583 423.5 596.5 c 128,-1,38
 406 610 406 610 380.5 618 c 128,-1,39
 355 626 355 626 320 626 c 0,40,41
 248 626 248 626 208.5 596.5 c 128,-1,42
 169 567 169 567 169 525 c 0,43,44
 169 498 169 498 179 478.5 c 128,-1,45
 189 459 189 459 210 444.5 c 128,-1,46
 231 430 231 430 263.5 419.5 c 128,-1,47
 296 409 296 409 341 399 c 0,48,49
 406 385 406 385 452.5 367.5 c 128,-1,50
 499 350 499 350 528.5 325 c 128,-1,51
 558 300 558 300 571.5 266 c 128,-1,52
 585 232 585 232 585 185 c 0,53,54
 585 144 585 144 567 108.5 c 128,-1,55
 549 73 549 73 515 46.5 c 128,-1,56
 481 20 481 20 432 5 c 128,-1,57
 383 -10 383 -10 320 -10 c 256,0,1
EndSplineSet
Position2: "'cpsp' Capital Spacing lookup 0 subtable" dx=5 dy=0 dh=10 dv=0
EndChar

StartChar: T
Encoding: 84 84 55
Width: 620
GlyphClass: 2
Flags: W
LayerCount: 2
Fore
SplineSet
263 618 m 1,0,-1
 20 618 l 1,1,-1
 20 700 l 1,2,-1
 600 700 l 1,3,-1
 600 618 l 1,4,-1
 357 618 l 1,5,-1
 357 0 l 1,6,-1
 263 0 l 1,7,-1
 263 618 l 1,0,-1
EndSplineSet
Position2: "'cpsp' Capital Spacing lookup 0 subtable" dx=5 dy=0 dh=10 dv=0
EndChar

StartChar: U
Encoding: 85 85 56
Width: 730
GlyphClass: 2
Flags: W
LayerCount: 2
Fore
SplineSet
365 -10 m 256,0,1
 302 -10 302 -10 251.5 8 c 128,-1,2
 201 26 201 26 165 63 c 128,-1,3
 129 100 129 100 109.5 156.5 c 128,-1,4
 90 213 90 213 90 290 c 2,5,-1
 90 700 l 1,6,-1
 184 700 l 1,7,-1
 184 290 l 2,8,9
 184 176 184 176 232 125 c 128,-1,10
 280 74 280 74 365 74 c 256,11,12
 450 74 450 74 498 125 c 128,-1,13
 546 176 546 176 546 290 c 2,14,-1
 546 700 l 1,15,-1
 640 700 l 1,16,-1
 640 290 l 2,17,18
 640 213 640 213 620.5 156.5 c 128,-1,19
 601 100 601 100 565 63 c 128,-1,20
 529 26 529 26 478.5 8 c 128,-1,21
 428 -10 428 -10 365 -10 c 256,0,1
EndSplineSet
Position2: "'cpsp' Capital Spacing lookup 0 subtable" dx=5 dy=0 dh=10 dv=0
EndChar

StartChar: V
Encoding: 86 86 57
Width: 670
GlyphClass: 2
Flags: W
LayerCount: 2
Fore
SplineSet
20 700 m 1,0,-1
 122 700 l 1,1,-1
 341 120 l 1,2,-1
 552 700 l 1,3,-1
 650 700 l 1,4,-1
 387 0 l 1,5,-1
 293 0 l 1,6,-1
 20 700 l 1,0,-1
EndSplineSet
Position2: "'cpsp' Capital Spacing lookup 0 subtable" dx=5 dy=0 dh=10 dv=0
EndChar

StartChar: W
Encoding: 87 87 58
Width: 960
GlyphClass: 2
Flags: W
LayerCount: 2
Fore
SplineSet
30 700 m 1,0,-1
 130 700 l 1,1,-1
 274 150 l 1,2,-1
 438 700 l 1,3,-1
 522 700 l 1,4,-1
 689 150 l 1,5,-1
 834 700 l 1,6,-1
 930 700 l 1,7,-1
 742 0 l 1,8,-1
 648 0 l 1,9,-1
 478 550 l 1,10,-1
 312 0 l 1,11,-1
 218 0 l 1,12,-1
 30 700 l 1,0,-1
EndSplineSet
Position2: "'cpsp' Capital Spacing lookup 0 subtable" dx=5 dy=0 dh=10 dv=0
EndChar

StartChar: X
Encoding: 88 88 59
Width: 660
GlyphClass: 2
Flags: W
LayerCount: 2
Fore
SplineSet
277 357 m 1,0,-1
 40 700 l 1,1,-1
 144 700 l 1,2,-1
 331 429 l 1,3,-1
 520 700 l 1,4,-1
 620 700 l 1,5,-1
 384 359 l 1,6,-1
 630 0 l 1,7,-1
 524 0 l 1,8,-1
 329 288 l 1,9,-1
 132 0 l 1,10,-1
 30 0 l 1,11,-1
 277 357 l 1,0,-1
EndSplineSet
Position2: "'cpsp' Capital Spacing lookup 0 subtable" dx=5 dy=0 dh=10 dv=0
EndChar

StartChar: Y
Encoding: 89 89 60
Width: 640
GlyphClass: 2
Flags: W
LayerCount: 2
Fore
SplineSet
283 277 m 1,0,-1
 10 700 l 1,1,-1
 118 700 l 1,2,-1
 329 374 l 1,3,-1
 526 700 l 1,4,-1
 630 700 l 1,5,-1
 377 277 l 1,6,-1
 377 0 l 1,7,-1
 283 0 l 1,8,-1
 283 277 l 1,0,-1
EndSplineSet
Position2: "'cpsp' Capital Spacing lookup 0 subtable" dx=5 dy=0 dh=10 dv=0
EndChar

StartChar: Z
Encoding: 90 90 61
Width: 600
Flags: W
LayerCount: 2
Fore
SplineSet
45 77 m 1,0,-1
 437 618 l 1,1,-1
 55 618 l 1,2,-1
 55 700 l 1,3,-1
 545 700 l 1,4,-1
 545 623 l 1,5,-1
 153 82 l 1,6,-1
 555 82 l 1,7,-1
 555 0 l 1,8,-1
 45 0 l 1,9,-1
 45 77 l 1,0,-1
EndSplineSet
Position2: "'cpsp' Capital Spacing lookup 0 subtable" dx=5 dy=0 dh=10 dv=0
EndChar

StartChar: bracketleft
Encoding: 91 91 62
Width: 380
Flags: W
LayerCount: 2
Fore
SplineSet
130 700 m 1,0,-1
 310 700 l 1,1,-1
 310 626 l 1,2,-1
 214 626 l 1,3,-1
 214 -126 l 1,4,-1
 310 -126 l 1,5,-1
 310 -200 l 1,6,-1
 130 -200 l 1,7,-1
 130 700 l 1,0,-1
EndSplineSet
Substitution2: "'case' Case-Sensitive Forms lookup 8 subtable" bracketleft.case
Substitution2: "'aalt' Access All Alternates lookup 0 subtable" bracketleft.case
EndChar

StartChar: backslash
Encoding: 92 92 63
Width: 480
Flags: W
LayerCount: 2
Fore
SplineSet
40 700 m 1,0,-1
 124 700 l 1,1,-1
 440 -200 l 1,2,-1
 356 -200 l 1,3,-1
 40 700 l 1,0,-1
EndSplineSet
EndChar

StartChar: asciicircum
Encoding: 94 94 65
Width: 550
Flags: W
LayerCount: 2
Fore
SplineSet
234 700 m 1,0,-1
 316 700 l 1,1,-1
 500 440 l 1,2,-1
 404 440 l 1,3,-1
 273 625 l 1,4,-1
 142 440 l 1,5,-1
 50 440 l 1,6,-1
 234 700 l 1,0,-1
EndSplineSet
EndChar

StartChar: underscore
Encoding: 95 95 66
Width: 500
Flags: W
LayerCount: 2
Fore
SplineSet
0 -63 m 1,0,-1
 500 -63 l 1,1,-1
 500 -137 l 1,2,-1
 0 -137 l 1,3,-1
 0 -63 l 1,0,-1
EndSplineSet
EndChar

StartChar: grave
Encoding: 96 96 67
Width: 260
Flags: W
LayerCount: 2
Fore
SplineSet
20 740 m 1,0,-1
 130 740 l 1,1,-1
 240 580 l 1,2,-1
 170 580 l 1,3,-1
 20 740 l 1,0,-1
EndSplineSet
EndChar

StartChar: a
Encoding: 97 97 68
Width: 565
GlyphClass: 2
Flags: W
LayerCount: 2
Fore
SplineSet
231 -10 m 0,0,1
 187 -10 187 -10 153.5 2.5 c 128,-1,2
 120 15 120 15 97 37 c 128,-1,3
 74 59 74 59 62 89 c 128,-1,4
 50 119 50 119 50 155 c 0,5,6
 50 234 50 234 96.5 269 c 128,-1,7
 143 304 143 304 230 304 c 2,8,-1
 402 304 l 1,9,-1
 402 340 l 2,10,11
 402 408 402 408 371.5 434 c 128,-1,12
 341 460 341 460 280 460 c 0,13,14
 223 460 223 460 197 438.5 c 128,-1,15
 171 417 171 417 168 390 c 1,16,-1
 80 390 l 1,17,18
 82 422 82 422 97.5 449.5 c 128,-1,19
 113 477 113 477 139.5 497 c 128,-1,20
 166 517 166 517 203 528.5 c 128,-1,21
 240 540 240 540 285 540 c 0,22,23
 379 540 379 540 434.5 495.5 c 128,-1,24
 490 451 490 451 490 350 c 2,25,-1
 490 135 l 2,26,27
 490 93 490 93 490.5 61.5 c 128,-1,28
 491 30 491 30 495 0 c 1,29,-1
 418 0 l 1,30,31
 415 23 415 23 414 43.5 c 128,-1,32
 413 64 413 64 413 90 c 1,33,34
 392 48 392 48 345 19 c 128,-1,35
 298 -10 298 -10 231 -10 c 0,0,1
250 70 m 0,36,37
 281 70 281 70 308.5 78.5 c 128,-1,38
 336 87 336 87 357 103.5 c 128,-1,39
 378 120 378 120 390 144 c 128,-1,40
 402 168 402 168 402 200 c 2,41,-1
 402 236 l 1,42,-1
 245 236 l 2,43,44
 196 236 196 236 168 216.5 c 128,-1,45
 140 197 140 197 140 155 c 0,46,47
 140 118 140 118 166.5 94 c 128,-1,48
 193 70 193 70 250 70 c 0,36,37
EndSplineSet
Substitution2: "Single Substitution lookup 15 subtable" ordfeminine
EndChar

StartChar: b
Encoding: 98 98 69
Width: 615
GlyphClass: 2
Flags: W
LayerCount: 2
Fore
SplineSet
350 -10 m 0,0,1
 282 -10 282 -10 232 20.5 c 128,-1,2
 182 51 182 51 162 100 c 1,3,-1
 162 0 l 1,4,-1
 80 0 l 1,5,-1
 80 700 l 1,6,-1
 168 700 l 1,7,-1
 168 435 l 1,8,9
 191 484 191 484 238.5 512 c 128,-1,10
 286 540 286 540 350 540 c 0,11,12
 449 540 449 540 509.5 474.5 c 128,-1,13
 570 409 570 409 570 280 c 2,14,-1
 570 260 l 2,15,16
 570 192 570 192 554 141.5 c 128,-1,17
 538 91 538 91 509 57.5 c 128,-1,18
 480 24 480 24 439.5 7 c 128,-1,19
 399 -10 399 -10 350 -10 c 0,0,1
330 68 m 0,20,21
 362 68 362 68 390 80.5 c 128,-1,22
 418 93 418 93 438.5 117 c 128,-1,23
 459 141 459 141 470.5 177 c 128,-1,24
 482 213 482 213 482 260 c 2,25,-1
 482 280 l 2,26,27
 482 323 482 323 470.5 357 c 128,-1,28
 459 391 459 391 438.5 414.5 c 128,-1,29
 418 438 418 438 390 450 c 128,-1,30
 362 462 362 462 330 462 c 0,31,32
 294 462 294 462 264 450.5 c 128,-1,33
 234 439 234 439 213 418.5 c 128,-1,34
 192 398 192 398 180 370 c 128,-1,35
 168 342 168 342 168 310 c 2,36,-1
 168 230 l 2,37,38
 168 194 168 194 180 164 c 128,-1,39
 192 134 192 134 213 113 c 128,-1,40
 234 92 234 92 264 80 c 128,-1,41
 294 68 294 68 330 68 c 0,20,21
EndSplineSet
EndChar

StartChar: c
Encoding: 99 99 70
Width: 545
GlyphClass: 2
Flags: W
LayerCount: 2
Fore
SplineSet
285 -10 m 0,0,1
 234 -10 234 -10 190 6.5 c 128,-1,2
 146 23 146 23 114 56.5 c 128,-1,3
 82 90 82 90 63.5 141 c 128,-1,4
 45 192 45 192 45 260 c 2,5,-1
 45 280 l 2,6,7
 45 344 45 344 65 393 c 128,-1,8
 85 442 85 442 118 474.5 c 128,-1,9
 151 507 151 507 194.5 523.5 c 128,-1,10
 238 540 238 540 285 540 c 256,11,12
 332 540 332 540 369.5 527 c 128,-1,13
 407 514 407 514 434.5 491 c 128,-1,14
 462 468 462 468 479.5 437 c 128,-1,15
 497 406 497 406 505 370 c 1,16,-1
 415 370 l 1,17,18
 407 389 407 389 396.5 405.5 c 128,-1,19
 386 422 386 422 370.5 434 c 128,-1,20
 355 446 355 446 334 453 c 128,-1,21
 313 460 313 460 285 460 c 0,22,23
 256 460 256 460 229 449.5 c 128,-1,24
 202 439 202 439 181 417.5 c 128,-1,25
 160 396 160 396 147.5 362 c 128,-1,26
 135 328 135 328 135 280 c 2,27,-1
 135 260 l 2,28,29
 135 209 135 209 147.5 172.5 c 128,-1,30
 160 136 160 136 181 113.5 c 128,-1,31
 202 91 202 91 229 80.5 c 128,-1,32
 256 70 256 70 285 70 c 0,33,34
 334 70 334 70 367.5 94 c 128,-1,35
 401 118 401 118 415 160 c 1,36,-1
 505 160 l 1,37,38
 486 81 486 81 427 35.5 c 128,-1,39
 368 -10 368 -10 285 -10 c 0,0,1
EndSplineSet
EndChar

StartChar: d
Encoding: 100 100 71
Width: 615
GlyphClass: 2
Flags: W
LayerCount: 2
Fore
SplineSet
265 -10 m 0,0,1
 216 -10 216 -10 175.5 7 c 128,-1,2
 135 24 135 24 106 57.5 c 128,-1,3
 77 91 77 91 61 141.5 c 128,-1,4
 45 192 45 192 45 260 c 2,5,-1
 45 280 l 2,6,7
 45 343 45 343 61.5 391.5 c 128,-1,8
 78 440 78 440 107 473 c 128,-1,9
 136 506 136 506 176.5 523 c 128,-1,10
 217 540 217 540 265 540 c 0,11,12
 329 540 329 540 376.5 512 c 128,-1,13
 424 484 424 484 447 435 c 1,14,-1
 447 700 l 1,15,-1
 535 700 l 1,16,-1
 535 0 l 1,17,-1
 453 0 l 1,18,-1
 453 100 l 1,19,20
 433 51 433 51 383 20.5 c 128,-1,21
 333 -10 333 -10 265 -10 c 0,0,1
285 68 m 0,22,23
 321 68 321 68 351 80 c 128,-1,24
 381 92 381 92 402 113 c 128,-1,25
 423 134 423 134 435 164 c 128,-1,26
 447 194 447 194 447 230 c 2,27,-1
 447 310 l 2,28,29
 447 342 447 342 435 370 c 128,-1,30
 423 398 423 398 402 418.5 c 128,-1,31
 381 439 381 439 351 450.5 c 128,-1,32
 321 462 321 462 285 462 c 0,33,34
 253 462 253 462 225 450 c 128,-1,35
 197 438 197 438 176.5 414.5 c 128,-1,36
 156 391 156 391 144.5 357 c 128,-1,37
 133 323 133 323 133 280 c 2,38,-1
 133 260 l 2,39,40
 133 213 133 213 144.5 177 c 128,-1,41
 156 141 156 141 176.5 117 c 128,-1,42
 197 93 197 93 225 80.5 c 128,-1,43
 253 68 253 68 285 68 c 0,22,23
EndSplineSet
EndChar

StartChar: e
Encoding: 101 101 72
Width: 580
GlyphClass: 2
Flags: W
LayerCount: 2
Fore
SplineSet
300 -10 m 0,0,1
 249 -10 249 -10 203 6 c 128,-1,2
 157 22 157 22 122 55.5 c 128,-1,3
 87 89 87 89 66 140 c 128,-1,4
 45 191 45 191 45 260 c 2,5,-1
 45 280 l 2,6,7
 45 346 45 346 65 394.5 c 128,-1,8
 85 443 85 443 118.5 475.5 c 128,-1,9
 152 508 152 508 196.5 524 c 128,-1,10
 241 540 241 540 290 540 c 0,11,12
 407 540 407 540 471 476 c 128,-1,13
 535 412 535 412 535 295 c 2,14,-1
 535 239 l 1,15,-1
 133 239 l 1,16,17
 133 192 133 192 148 160 c 128,-1,18
 163 128 163 128 187 108 c 128,-1,19
 211 88 211 88 240.5 79 c 128,-1,20
 270 70 270 70 300 70 c 0,21,22
 360 70 360 70 392.5 90 c 128,-1,23
 425 110 425 110 439 145 c 1,24,-1
 525 145 l 1,25,26
 517 107 517 107 496.5 78 c 128,-1,27
 476 49 476 49 446.5 29.5 c 128,-1,28
 417 10 417 10 379.5 0 c 128,-1,29
 342 -10 342 -10 300 -10 c 0,0,1
295 460 m 0,30,31
 264 460 264 460 235 451.5 c 128,-1,32
 206 443 206 443 183.5 424.5 c 128,-1,33
 161 406 161 406 147 378 c 128,-1,34
 133 350 133 350 133 311 c 1,35,-1
 452 311 l 1,36,37
 451 352 451 352 438.5 380.5 c 128,-1,38
 426 409 426 409 405 426.5 c 128,-1,39
 384 444 384 444 355.5 452 c 128,-1,40
 327 460 327 460 295 460 c 0,30,31
EndSplineSet
EndChar

StartChar: f
Encoding: 102 102 73
Width: 365
GlyphClass: 2
Flags: W
LayerCount: 2
Fore
SplineSet
110 452 m 1,0,-1
 35 452 l 1,1,-1
 35 530 l 1,2,-1
 110 530 l 1,3,-1
 110 540 l 2,4,5
 110 623 110 623 148.5 664 c 128,-1,6
 187 705 187 705 270 705 c 0,7,8
 300 705 300 705 345 702 c 1,9,-1
 345 622 l 1,10,11
 330 624 330 624 312.5 624.5 c 128,-1,12
 295 625 295 625 280 625 c 0,13,14
 234 625 234 625 216 606.5 c 128,-1,15
 198 588 198 588 198 540 c 2,16,-1
 198 530 l 1,17,-1
 335 530 l 1,18,-1
 335 452 l 1,19,-1
 198 452 l 1,20,-1
 198 0 l 1,21,-1
 110 0 l 1,22,-1
 110 452 l 1,0,-1
EndSplineSet
EndChar

StartChar: g
Encoding: 103 103 74
Width: 615
GlyphClass: 2
Flags: W
LayerCount: 2
Fore
SplineSet
290 -210 m 0,0,1
 232 -210 232 -210 191 -198.5 c 128,-1,2
 150 -187 150 -187 123.5 -167 c 128,-1,3
 97 -147 97 -147 83 -119.5 c 128,-1,4
 69 -92 69 -92 65 -60 c 1,5,-1
 157 -60 l 1,6,7
 162 -76 162 -76 171 -89 c 128,-1,8
 180 -102 180 -102 195 -111 c 128,-1,9
 210 -120 210 -120 233.5 -125 c 128,-1,10
 257 -130 257 -130 290 -130 c 0,11,12
 371 -130 371 -130 409 -91 c 128,-1,13
 447 -52 447 -52 447 20 c 2,14,-1
 447 105 l 1,15,16
 424 52 424 52 376.5 26 c 128,-1,17
 329 0 329 0 265 0 c 0,18,19
 216 0 216 0 175.5 17 c 128,-1,20
 135 34 135 34 106 67 c 128,-1,21
 77 100 77 100 61 149.5 c 128,-1,22
 45 199 45 199 45 265 c 2,23,-1
 45 285 l 2,24,25
 45 346 45 346 61.5 393.5 c 128,-1,26
 78 441 78 441 107 473.5 c 128,-1,27
 136 506 136 506 176.5 523 c 128,-1,28
 217 540 217 540 265 540 c 0,29,30
 333 540 333 540 383 509.5 c 128,-1,31
 433 479 433 479 453 430 c 1,32,-1
 453 530 l 1,33,-1
 535 530 l 1,34,-1
 535 20 l 2,35,36
 535 -88 535 -88 472 -149 c 128,-1,37
 409 -210 409 -210 290 -210 c 0,0,1
285 78 m 0,38,39
 321 78 321 78 351 89.5 c 128,-1,40
 381 101 381 101 402 122 c 128,-1,41
 423 143 423 143 435 172 c 128,-1,42
 447 201 447 201 447 235 c 2,43,-1
 447 315 l 2,44,45
 447 345 447 345 435 372 c 128,-1,46
 423 399 423 399 402 419 c 128,-1,47
 381 439 381 439 351 450.5 c 128,-1,48
 321 462 321 462 285 462 c 0,49,50
 253 462 253 462 225 450 c 128,-1,51
 197 438 197 438 176.5 415 c 128,-1,52
 156 392 156 392 144.5 359.5 c 128,-1,53
 133 327 133 327 133 285 c 2,54,-1
 133 265 l 2,55,56
 133 220 133 220 144.5 185 c 128,-1,57
 156 150 156 150 176.5 126 c 128,-1,58
 197 102 197 102 225 90 c 128,-1,59
 253 78 253 78 285 78 c 0,38,39
EndSplineSet
EndChar

StartChar: h
Encoding: 104 104 75
Width: 615
GlyphClass: 2
Flags: W
LayerCount: 2
Fore
SplineSet
80 700 m 1,0,-1
 168 700 l 1,1,-1
 168 435 l 1,2,3
 178 456 178 456 194 475 c 128,-1,4
 210 494 210 494 232 508.5 c 128,-1,5
 254 523 254 523 282 531.5 c 128,-1,6
 310 540 310 540 343 540 c 0,7,8
 443 540 443 540 491.5 486.5 c 128,-1,9
 540 433 540 433 540 330 c 2,10,-1
 540 0 l 1,11,-1
 452 0 l 1,12,-1
 452 310 l 2,13,14
 452 384 452 384 421 422 c 128,-1,15
 390 460 390 460 317 460 c 0,16,17
 278 460 278 460 249.5 447 c 128,-1,18
 221 434 221 434 203 413 c 128,-1,19
 185 392 185 392 176.5 365 c 128,-1,20
 168 338 168 338 168 310 c 2,21,-1
 168 0 l 1,22,-1
 80 0 l 1,23,-1
 80 700 l 1,0,-1
EndSplineSet
EndChar

StartChar: k
Encoding: 107 107 78
Width: 565
GlyphClass: 2
Flags: W
LayerCount: 2
Fore
SplineSet
80 700 m 1,0,-1
 168 700 l 1,1,-1
 168 286 l 1,2,-1
 412 530 l 1,3,-1
 520 530 l 1,4,-1
 300 311 l 1,5,-1
 540 0 l 1,6,-1
 428 0 l 1,7,-1
 237 250 l 1,8,-1
 168 185 l 1,9,-1
 168 0 l 1,10,-1
 80 0 l 1,11,-1
 80 700 l 1,0,-1
EndSplineSet
EndChar

StartChar: l
Encoding: 108 108 79
Width: 320
GlyphClass: 2
Flags: W
LayerCount: 2
Fore
SplineSet
240 -5 m 0,0,1
 157 -5 157 -5 121 35 c 128,-1,2
 85 75 85 75 85 165 c 2,3,-1
 85 700 l 1,4,-1
 173 700 l 1,5,-1
 173 165 l 2,6,7
 173 113 173 113 190 94 c 128,-1,8
 207 75 207 75 250 75 c 0,9,10
 261 75 261 75 269 75.5 c 128,-1,11
 277 76 277 76 285 77 c 1,12,-1
 285 -1 l 1,13,14
 277 -3 277 -3 262.5 -4 c 128,-1,15
 248 -5 248 -5 240 -5 c 0,0,1
EndSplineSet
EndChar

StartChar: m
Encoding: 109 109 80
Width: 885
GlyphClass: 2
Flags: W
LayerCount: 2
Fore
SplineSet
80 530 m 1,0,-1
 162 530 l 1,1,-1
 162 430 l 1,2,3
 179 479 179 479 220.5 509.5 c 128,-1,4
 262 540 262 540 315 540 c 0,5,6
 384 540 384 540 421 510.5 c 128,-1,7
 458 481 458 481 472 435 c 1,8,9
 498 484 498 484 538.5 512 c 128,-1,10
 579 540 579 540 636 540 c 0,11,12
 718 540 718 540 764 490.5 c 128,-1,13
 810 441 810 441 810 335 c 2,14,-1
 810 0 l 1,15,-1
 722 0 l 1,16,-1
 722 315 l 2,17,18
 722 394 722 394 694.5 427 c 128,-1,19
 667 460 667 460 611 460 c 0,20,21
 587 460 587 460 565 450 c 128,-1,22
 543 440 543 440 526 421 c 128,-1,23
 509 402 509 402 499 375 c 128,-1,24
 489 348 489 348 489 315 c 2,25,-1
 489 0 l 1,26,-1
 401 0 l 1,27,-1
 401 315 l 2,28,29
 401 394 401 394 373 427 c 128,-1,30
 345 460 345 460 290 460 c 0,31,32
 266 460 266 460 244 450 c 128,-1,33
 222 440 222 440 205 421 c 128,-1,34
 188 402 188 402 178 375 c 128,-1,35
 168 348 168 348 168 315 c 2,36,-1
 168 0 l 1,37,-1
 80 0 l 1,38,-1
 80 530 l 1,0,-1
EndSplineSet
EndChar

StartChar: n
Encoding: 110 110 81
Width: 615
GlyphClass: 2
Flags: W
LayerCount: 2
Fore
SplineSet
80 530 m 1,0,-1
 162 530 l 1,1,-1
 162 430 l 1,2,3
 171 452 171 452 187 472 c 128,-1,4
 203 492 203 492 225.5 507 c 128,-1,5
 248 522 248 522 277.5 531 c 128,-1,6
 307 540 307 540 343 540 c 0,7,8
 443 540 443 540 491.5 486.5 c 128,-1,9
 540 433 540 433 540 330 c 2,10,-1
 540 0 l 1,11,-1
 452 0 l 1,12,-1
 452 310 l 2,13,14
 452 384 452 384 421 422 c 128,-1,15
 390 460 390 460 317 460 c 0,16,17
 278 460 278 460 249.5 447 c 128,-1,18
 221 434 221 434 203 413 c 128,-1,19
 185 392 185 392 176.5 365 c 128,-1,20
 168 338 168 338 168 310 c 2,21,-1
 168 0 l 1,22,-1
 80 0 l 1,23,-1
 80 530 l 1,0,-1
EndSplineSet
EndChar

StartChar: o
Encoding: 111 111 82
Width: 600
GlyphClass: 2
Flags: W
LayerCount: 2
Fore
SplineSet
300 -10 m 260,0,1
 249 -10 249 -10 203 6.5 c 132,-1,2
 157 23 157 23 122 56.5 c 132,-1,3
 87 90 87 90 66 141 c 132,-1,4
 45 192 45 192 45 260 c 6,5,-1
 45 280 l 6,6,7
 45 344 45 344 66 393 c 132,-1,8
 87 442 87 442 122 474.5 c 132,-1,9
 157 507 157 507 203 523.5 c 132,-1,10
 249 540 249 540 300 540 c 260,11,12
 351 540 351 540 397 523.5 c 132,-1,13
 443 507 443 507 478 474.5 c 132,-1,14
 513 442 513 442 534 393 c 132,-1,15
 555 344 555 344 555 280 c 6,16,-1
 555 260 l 6,17,18
 555 192 555 192 534 141 c 132,-1,19
 513 90 513 90 478 56.5 c 132,-1,20
 443 23 443 23 397 6.5 c 132,-1,21
 351 -10 351 -10 300 -10 c 260,0,1
300 70 m 260,22,23
 330 70 330 70 360 80.5 c 132,-1,24
 390 91 390 91 413 113.5 c 132,-1,25
 436 136 436 136 450.5 172 c 132,-1,26
 465 208 465 208 465 260 c 6,27,-1
 465 280 l 6,28,29
 465 328 465 328 450.5 362 c 132,-1,30
 436 396 436 396 413 418 c 132,-1,31
 390 440 390 440 360 450 c 132,-1,32
 330 460 330 460 300 460 c 260,33,34
 270 460 270 460 240 450 c 132,-1,35
 210 440 210 440 187 418 c 132,-1,36
 164 396 164 396 149.5 362 c 132,-1,37
 135 328 135 328 135 280 c 6,38,-1
 135 260 l 6,39,40
 135 208 135 208 149.5 172 c 132,-1,41
 164 136 164 136 187 113.5 c 132,-1,42
 210 91 210 91 240 80.5 c 132,-1,43
 270 70 270 70 300 70 c 260,22,23
EndSplineSet
Substitution2: "Single Substitution lookup 15 subtable" ordmasculine
EndChar

StartChar: p
Encoding: 112 112 83
Width: 615
GlyphClass: 2
Flags: W
LayerCount: 2
Fore
SplineSet
80 530 m 1,0,-1
 162 530 l 1,1,-1
 162 430 l 1,2,3
 189 483 189 483 237.5 511.5 c 128,-1,4
 286 540 286 540 350 540 c 0,5,6
 450 540 450 540 510 474.5 c 128,-1,7
 570 409 570 409 570 280 c 2,8,-1
 570 260 l 2,9,10
 570 192 570 192 554 141.5 c 128,-1,11
 538 91 538 91 509 57.5 c 128,-1,12
 480 24 480 24 439.5 7 c 128,-1,13
 399 -10 399 -10 350 -10 c 0,14,15
 282 -10 282 -10 236.5 20 c 128,-1,16
 191 50 191 50 168 95 c 1,17,-1
 168 -200 l 1,18,-1
 80 -200 l 1,19,-1
 80 530 l 1,0,-1
330 68 m 0,20,21
 362 68 362 68 390 80.5 c 128,-1,22
 418 93 418 93 438.5 117 c 128,-1,23
 459 141 459 141 470.5 177 c 128,-1,24
 482 213 482 213 482 260 c 2,25,-1
 482 280 l 2,26,27
 482 323 482 323 470.5 357 c 128,-1,28
 459 391 459 391 438.5 414.5 c 128,-1,29
 418 438 418 438 390 450 c 128,-1,30
 362 462 362 462 330 462 c 0,31,32
 294 462 294 462 264 450.5 c 128,-1,33
 234 439 234 439 213 418.5 c 128,-1,34
 192 398 192 398 180 370 c 128,-1,35
 168 342 168 342 168 310 c 2,36,-1
 168 230 l 2,37,38
 168 194 168 194 180 164 c 128,-1,39
 192 134 192 134 213 113 c 128,-1,40
 234 92 234 92 264 80 c 128,-1,41
 294 68 294 68 330 68 c 0,20,21
EndSplineSet
EndChar

StartChar: q
Encoding: 113 113 84
Width: 615
GlyphClass: 2
Flags: W
LayerCount: 2
Fore
SplineSet
447 95 m 1,0,1
 424 46 424 46 376.5 18 c 128,-1,2
 329 -10 329 -10 265 -10 c 0,3,4
 216 -10 216 -10 175.5 7 c 128,-1,5
 135 24 135 24 106 57.5 c 128,-1,6
 77 91 77 91 61 141.5 c 128,-1,7
 45 192 45 192 45 260 c 2,8,-1
 45 280 l 2,9,10
 45 343 45 343 61.5 391.5 c 128,-1,11
 78 440 78 440 107 473 c 128,-1,12
 136 506 136 506 176.5 523 c 128,-1,13
 217 540 217 540 265 540 c 0,14,15
 333 540 333 540 383 509.5 c 128,-1,16
 433 479 433 479 453 430 c 1,17,-1
 453 530 l 1,18,-1
 535 530 l 1,19,-1
 535 -200 l 1,20,-1
 447 -200 l 1,21,-1
 447 95 l 1,0,1
285 68 m 0,22,23
 321 68 321 68 351 80 c 128,-1,24
 381 92 381 92 402 113 c 128,-1,25
 423 134 423 134 435 164 c 128,-1,26
 447 194 447 194 447 230 c 2,27,-1
 447 310 l 2,28,29
 447 342 447 342 435 370 c 128,-1,30
 423 398 423 398 402 418.5 c 128,-1,31
 381 439 381 439 351 450.5 c 128,-1,32
 321 462 321 462 285 462 c 0,33,34
 253 462 253 462 225 450 c 128,-1,35
 197 438 197 438 176.5 414.5 c 128,-1,36
 156 391 156 391 144.5 357 c 128,-1,37
 133 323 133 323 133 280 c 2,38,-1
 133 260 l 2,39,40
 133 213 133 213 144.5 177 c 128,-1,41
 156 141 156 141 176.5 117 c 128,-1,42
 197 93 197 93 225 80.5 c 128,-1,43
 253 68 253 68 285 68 c 0,22,23
EndSplineSet
EndChar

StartChar: r
Encoding: 114 114 85
Width: 390
GlyphClass: 2
Flags: W
LayerCount: 2
Fore
SplineSet
80 530 m 1,0,-1
 162 530 l 1,1,-1
 162 430 l 1,2,3
 179 477 179 477 218.5 508.5 c 128,-1,4
 258 540 258 540 315 540 c 0,5,6
 335 540 335 540 347.5 538 c 128,-1,7
 360 536 360 536 370 533 c 1,8,-1
 370 451 l 1,9,10
 357 456 357 456 344.5 458 c 128,-1,11
 332 460 332 460 310 460 c 0,12,13
 280 460 280 460 254 449 c 128,-1,14
 228 438 228 438 209 418.5 c 128,-1,15
 190 399 190 399 179 371 c 128,-1,16
 168 343 168 343 168 310 c 2,17,-1
 168 0 l 1,18,-1
 80 0 l 1,19,-1
 80 530 l 1,0,-1
EndSplineSet
EndChar

StartChar: s
Encoding: 115 115 86
Width: 530
GlyphClass: 2
Flags: W
LayerCount: 2
Fore
SplineSet
265 -10 m 0,0,1
 212 -10 212 -10 173.5 2.5 c 128,-1,2
 135 15 135 15 108 36 c 128,-1,3
 81 57 81 57 66 85 c 128,-1,4
 51 113 51 113 45 145 c 1,5,-1
 133 145 l 1,6,7
 140 113 140 113 170.5 89.5 c 128,-1,8
 201 66 201 66 265 66 c 0,9,10
 302 66 302 66 327 72.5 c 128,-1,11
 352 79 352 79 367.5 89.5 c 128,-1,12
 383 100 383 100 390 114.5 c 128,-1,13
 397 129 397 129 397 145 c 0,14,15
 397 162 397 162 390.5 175 c 128,-1,16
 384 188 384 188 367.5 198.5 c 128,-1,17
 351 209 351 209 322.5 217.5 c 128,-1,18
 294 226 294 226 251 232 c 0,19,20
 207 238 207 238 171.5 249.5 c 128,-1,21
 136 261 136 261 111.5 280 c 128,-1,22
 87 299 87 299 73.5 325.5 c 128,-1,23
 60 352 60 352 60 390 c 0,24,25
 60 420 60 420 73 447 c 128,-1,26
 86 474 86 474 112 495 c 128,-1,27
 138 516 138 516 176 528 c 128,-1,28
 214 540 214 540 265 540 c 0,29,30
 312 540 312 540 347 527.5 c 128,-1,31
 382 515 382 515 406.5 494 c 128,-1,32
 431 473 431 473 445 445 c 128,-1,33
 459 417 459 417 465 385 c 1,34,-1
 377 385 l 1,35,36
 369 420 369 420 343 442 c 128,-1,37
 317 464 317 464 265 464 c 0,38,39
 200 464 200 464 174 442.5 c 128,-1,40
 148 421 148 421 148 390 c 0,41,42
 148 372 148 372 154.5 359 c 128,-1,43
 161 346 161 346 176.5 336 c 128,-1,44
 192 326 192 326 217.5 319.5 c 128,-1,45
 243 313 243 313 281 308 c 0,46,47
 330 302 330 302 368 290.5 c 128,-1,48
 406 279 406 279 432 259.5 c 128,-1,49
 458 240 458 240 471.5 212 c 128,-1,50
 485 184 485 184 485 145 c 0,51,52
 485 113 485 113 471.5 85 c 128,-1,53
 458 57 458 57 431 36 c 128,-1,54
 404 15 404 15 362.5 2.5 c 128,-1,55
 321 -10 321 -10 265 -10 c 0,0,1
EndSplineSet
EndChar

StartChar: t
Encoding: 116 116 87
Width: 400
GlyphClass: 2
Flags: W
LayerCount: 2
Fore
SplineSet
275 -5 m 0,0,1
 190 -5 190 -5 152.5 33.5 c 128,-1,2
 115 72 115 72 115 150 c 2,3,-1
 115 452 l 1,4,-1
 35 452 l 1,5,-1
 35 530 l 1,6,-1
 115 530 l 1,7,-1
 115 650 l 1,8,-1
 203 650 l 1,9,-1
 203 530 l 1,10,-1
 345 530 l 1,11,-1
 345 452 l 1,12,-1
 203 452 l 1,13,-1
 203 160 l 2,14,15
 203 115 203 115 222 95 c 128,-1,16
 241 75 241 75 295 75 c 0,17,18
 325 75 325 75 355 78 c 1,19,-1
 355 0 l 1,20,21
 336 -2 336 -2 317 -3.5 c 128,-1,22
 298 -5 298 -5 275 -5 c 0,0,1
EndSplineSet
EndChar

StartChar: u
Encoding: 117 117 88
Width: 605
GlyphClass: 2
Flags: W
LayerCount: 2
Fore
SplineSet
267 -10 m 0,0,1
 171 -10 171 -10 123 45 c 128,-1,2
 75 100 75 100 75 215 c 2,3,-1
 75 530 l 1,4,-1
 163 530 l 1,5,-1
 163 220 l 2,6,7
 163 146 163 146 193.5 108 c 128,-1,8
 224 70 224 70 293 70 c 0,9,10
 330 70 330 70 357.5 83 c 128,-1,11
 385 96 385 96 402.5 117 c 128,-1,12
 420 138 420 138 428.5 165 c 128,-1,13
 437 192 437 192 437 220 c 2,14,-1
 437 530 l 1,15,-1
 525 530 l 1,16,-1
 525 0 l 1,17,-1
 443 0 l 1,18,-1
 443 100 l 1,19,20
 434 78 434 78 418.5 58 c 128,-1,21
 403 38 403 38 380.5 23 c 128,-1,22
 358 8 358 8 329.5 -1 c 128,-1,23
 301 -10 301 -10 267 -10 c 0,0,1
EndSplineSet
EndChar

StartChar: v
Encoding: 118 118 89
Width: 560
GlyphClass: 2
Flags: W
LayerCount: 2
Fore
SplineSet
20 530 m 1,0,-1
 118 530 l 1,1,-1
 290 90 l 1,2,-1
 446 530 l 1,3,-1
 540 530 l 1,4,-1
 340 0 l 1,5,-1
 240 0 l 1,6,-1
 20 530 l 1,0,-1
EndSplineSet
EndChar

StartChar: w
Encoding: 119 119 90
Width: 810
GlyphClass: 2
Flags: W
LayerCount: 2
Fore
SplineSet
30 530 m 1,0,-1
 126 530 l 1,1,-1
 228 120 l 1,2,-1
 366 530 l 1,3,-1
 444 530 l 1,4,-1
 587 120 l 1,5,-1
 688 530 l 1,6,-1
 780 530 l 1,7,-1
 635 0 l 1,8,-1
 547 0 l 1,9,-1
 403 410 l 1,10,-1
 263 0 l 1,11,-1
 175 0 l 1,12,-1
 30 530 l 1,0,-1
EndSplineSet
EndChar

StartChar: x
Encoding: 120 120 91
Width: 550
GlyphClass: 2
Flags: W
LayerCount: 2
Fore
SplineSet
224 269 m 1,0,-1
 35 530 l 1,1,-1
 137 530 l 1,2,-1
 277 337 l 1,3,-1
 417 530 l 1,4,-1
 515 530 l 1,5,-1
 326 274 l 1,6,-1
 525 0 l 1,7,-1
 421 0 l 1,8,-1
 273 207 l 1,9,-1
 125 0 l 1,10,-1
 25 0 l 1,11,-1
 224 269 l 1,0,-1
EndSplineSet
EndChar

StartChar: y
Encoding: 121 121 92
Width: 560
GlyphClass: 2
Flags: W
LayerCount: 2
Fore
SplineSet
150 -210 m 0,0,1
 135 -210 135 -210 120 -207 c 1,2,-1
 120 -127 l 1,3,4
 135 -130 135 -130 150 -130 c 256,5,6
 165 -130 165 -130 176 -125 c 128,-1,7
 187 -120 187 -120 197 -106 c 128,-1,8
 207 -92 207 -92 218.5 -66.5 c 128,-1,9
 230 -41 230 -41 245 0 c 1,10,-1
 20 530 l 1,11,-1
 118 530 l 1,12,-1
 290 100 l 1,13,-1
 446 530 l 1,14,-1
 540 530 l 1,15,-1
 340 0 l 2,16,17
 319 -56 319 -56 300 -96 c 128,-1,18
 281 -136 281 -136 259.5 -161.5 c 128,-1,19
 238 -187 238 -187 212 -198.5 c 128,-1,20
 186 -210 186 -210 150 -210 c 0,0,1
EndSplineSet
EndChar

StartChar: z
Encoding: 122 122 93
Width: 510
Flags: W
LayerCount: 2
Fore
SplineSet
40 73 m 1,0,-1
 354 452 l 1,1,-1
 50 452 l 1,2,-1
 50 530 l 1,3,-1
 460 530 l 1,4,-1
 460 457 l 1,5,-1
 146 78 l 1,6,-1
 470 78 l 1,7,-1
 470 0 l 1,8,-1
 40 0 l 1,9,-1
 40 73 l 1,0,-1
EndSplineSet
EndChar

StartChar: braceleft
Encoding: 123 123 94
Width: 380
Flags: W
LayerCount: 2
Fore
SplineSet
280 -200 m 2,0,1
 212 -200 212 -200 176 -164 c 128,-1,2
 140 -128 140 -128 140 -60 c 2,3,-1
 140 163 l 2,4,5
 140 186 140 186 126.5 199.5 c 128,-1,6
 113 213 113 213 90 213 c 1,7,-1
 90 287 l 1,8,9
 113 287 113 287 126.5 300.5 c 128,-1,10
 140 314 140 314 140 337 c 2,11,-1
 140 560 l 2,12,13
 140 628 140 628 176 664 c 128,-1,14
 212 700 212 700 280 700 c 2,15,-1
 320 700 l 1,16,-1
 320 626 l 1,17,-1
 280 626 l 2,18,19
 224 626 224 626 224 570 c 2,20,-1
 224 320 l 2,21,22
 224 290 224 290 210.5 274 c 128,-1,23
 197 258 197 258 174 250 c 1,24,25
 197 242 197 242 210.5 226 c 128,-1,26
 224 210 224 210 224 180 c 2,27,-1
 224 -70 l 2,28,29
 224 -126 224 -126 280 -126 c 2,30,-1
 320 -126 l 1,31,-1
 320 -200 l 1,32,-1
 280 -200 l 2,0,1
EndSplineSet
Substitution2: "'case' Case-Sensitive Forms lookup 8 subtable" braceleft.case
Substitution2: "'aalt' Access All Alternates lookup 0 subtable" braceleft.case
EndChar

StartChar: bar
Encoding: 124 124 95
Width: 340
Flags: W
LayerCount: 2
Fore
SplineSet
128 700 m 1,0,-1
 212 700 l 1,1,-1
 212 -200 l 1,2,-1
 128 -200 l 1,3,-1
 128 700 l 1,0,-1
EndSplineSet
EndChar

StartChar: asciitilde
Encoding: 126 126 97
Width: 550
Flags: W
LayerCount: 2
Fore
SplineSet
370 280 m 0,0,1
 338 280 338 280 312 292 c 128,-1,2
 286 304 286 304 263 318 c 128,-1,3
 240 332 240 332 218.5 344 c 128,-1,4
 197 356 197 356 175 356 c 0,5,6
 155 356 155 356 141 346 c 128,-1,7
 127 336 127 336 117 325 c 0,8,9
 106 312 106 312 98 295 c 1,10,-1
 35 335 l 1,11,12
 48 364 48 364 68 387 c 0,13,14
 85 407 85 407 112.5 423.5 c 128,-1,15
 140 440 140 440 180 440 c 0,16,17
 212 440 212 440 238 428 c 128,-1,18
 264 416 264 416 287 402 c 128,-1,19
 310 388 310 388 331 376 c 128,-1,20
 352 364 352 364 375 364 c 0,21,22
 395 364 395 364 409 373.5 c 128,-1,23
 423 383 423 383 433 394 c 0,24,25
 444 407 444 407 452 425 c 1,26,-1
 515 385 l 1,27,28
 502 355 502 355 482 332 c 0,29,30
 465 312 465 312 437 296 c 128,-1,31
 409 280 409 280 370 280 c 0,0,1
EndSplineSet
Substitution2: "'tnum' Tabular Numbers lookup 6 subtable" asciitilde.tab
Substitution2: "'aalt' Access All Alternates lookup 0 subtable" asciitilde.tab
EndChar

StartChar: exclamdown
Encoding: 161 161 99
Width: 300
Flags: W
LayerCount: 2
Fore
SplineSet
106 310 m 1,0,-1
 194 310 l 1,1,-1
 194 -200 l 1,2,-1
 106 -200 l 1,3,-1
 106 310 l 1,0,-1
150 400 m 256,4,5
 121 400 121 400 100.5 420.5 c 128,-1,6
 80 441 80 441 80 470 c 0,7,8
 80 500 80 500 100.5 520 c 128,-1,9
 121 540 121 540 150 540 c 256,10,11
 179 540 179 540 199.5 520 c 128,-1,12
 220 500 220 500 220 470 c 0,13,14
 220 441 220 441 199.5 420.5 c 128,-1,15
 179 400 179 400 150 400 c 256,4,5
EndSplineSet
EndChar

StartChar: cent
Encoding: 162 162 100
Width: 545
Flags: W
LayerCount: 2
Fore
SplineSet
243 -7 m 1,0,1
 200 -1 200 -1 163.5 18.5 c 128,-1,2
 127 38 127 38 101 71.5 c 128,-1,3
 75 105 75 105 60 152 c 128,-1,4
 45 199 45 199 45 260 c 2,5,-1
 45 280 l 2,6,7
 45 337 45 337 60.5 381.5 c 128,-1,8
 76 426 76 426 103 458.5 c 128,-1,9
 130 491 130 491 166 510.5 c 128,-1,10
 202 530 202 530 243 536 c 1,11,-1
 243 630 l 1,12,-1
 327 630 l 1,13,-1
 327 537 l 1,14,15
 402 526 402 526 446.5 479.5 c 128,-1,16
 491 433 491 433 505 370 c 1,17,-1
 415 370 l 1,18,19
 407 389 407 389 396.5 405.5 c 128,-1,20
 386 422 386 422 370.5 434 c 128,-1,21
 355 446 355 446 334 453 c 128,-1,22
 313 460 313 460 285 460 c 0,23,24
 256 460 256 460 229 449.5 c 128,-1,25
 202 439 202 439 181 417.5 c 128,-1,26
 160 396 160 396 147.5 362 c 128,-1,27
 135 328 135 328 135 280 c 2,28,-1
 135 260 l 2,29,30
 135 209 135 209 147.5 172.5 c 128,-1,31
 160 136 160 136 181 113.5 c 128,-1,32
 202 91 202 91 229 80.5 c 128,-1,33
 256 70 256 70 285 70 c 0,34,35
 334 70 334 70 367.5 94 c 128,-1,36
 401 118 401 118 415 160 c 1,37,-1
 505 160 l 1,38,39
 488 91 488 91 441 48 c 128,-1,40
 394 5 394 5 327 -6 c 1,41,-1
 327 -120 l 1,42,-1
 243 -120 l 1,43,-1
 243 -7 l 1,0,1
EndSplineSet
Substitution2: "'tnum' Tabular Numbers lookup 6 subtable" cent.tab
Substitution2: "'aalt' Access All Alternates lookup 0 subtable" cent.tab
EndChar

StartChar: sterling
Encoding: 163 163 101
Width: 630
Flags: W
LayerCount: 2
Fore
SplineSet
60 82 m 1,0,-1
 150 82 l 1,1,-1
 150 309 l 1,2,-1
 70 309 l 1,3,-1
 70 381 l 1,4,-1
 150 381 l 1,5,-1
 150 500 l 2,6,7
 150 549 150 549 165 588 c 128,-1,8
 180 627 180 627 208 654 c 128,-1,9
 236 681 236 681 275.5 695.5 c 128,-1,10
 315 710 315 710 363 710 c 0,11,12
 410 710 410 710 447.5 696.5 c 128,-1,13
 485 683 485 683 511.5 658 c 128,-1,14
 538 633 538 633 553 599 c 128,-1,15
 568 565 568 565 570 525 c 1,16,-1
 476 525 l 1,17,18
 472 573 472 573 444.5 599.5 c 128,-1,19
 417 626 417 626 363 626 c 0,20,21
 305 626 305 626 274.5 596.5 c 128,-1,22
 244 567 244 567 244 500 c 2,23,-1
 244 381 l 1,24,-1
 425 381 l 1,25,-1
 425 309 l 1,26,-1
 244 309 l 1,27,-1
 244 82 l 1,28,-1
 570 82 l 1,29,-1
 570 0 l 1,30,-1
 60 0 l 1,31,-1
 60 82 l 1,0,-1
EndSplineSet
EndChar

StartChar: currency
Encoding: 164 164 102
Width: 550
Flags: W
LayerCount: 2
Fore
SplineSet
35 179 m 1,0,-1
 114 258 l 1,1,2
 100 281 100 281 92.5 306 c 128,-1,3
 85 331 85 331 85 360 c 0,4,5
 85 388 85 388 92.5 413.5 c 128,-1,6
 100 439 100 439 114 461 c 1,7,-1
 35 541 l 1,8,-1
 94 600 l 1,9,-1
 173 520 l 1,10,11
 220 550 220 550 275 550 c 0,12,13
 303 550 303 550 328.5 542 c 128,-1,14
 354 534 354 534 376 520 c 1,15,-1
 456 600 l 1,16,-1
 515 541 l 1,17,-1
 435 461 l 1,18,19
 449 439 449 439 457 413.5 c 128,-1,20
 465 388 465 388 465 360 c 0,21,22
 465 305 465 305 435 258 c 1,23,-1
 515 179 l 1,24,-1
 456 120 l 1,25,-1
 376 199 l 1,26,27
 354 185 354 185 328.5 177.5 c 128,-1,28
 303 170 303 170 275 170 c 0,29,30
 246 170 246 170 221 177.5 c 128,-1,31
 196 185 196 185 173 199 c 1,32,-1
 94 120 l 1,33,-1
 35 179 l 1,0,-1
275 252 m 256,34,35
 297 252 297 252 316.5 260.5 c 128,-1,36
 336 269 336 269 350 283.5 c 128,-1,37
 364 298 364 298 372.5 317.5 c 128,-1,38
 381 337 381 337 381 360 c 256,39,40
 381 383 381 383 372.5 402.5 c 128,-1,41
 364 422 364 422 350 436.5 c 128,-1,42
 336 451 336 451 316.5 459.5 c 128,-1,43
 297 468 297 468 275 468 c 256,44,45
 253 468 253 468 233.5 459.5 c 128,-1,46
 214 451 214 451 200 436.5 c 128,-1,47
 186 422 186 422 177.5 402.5 c 128,-1,48
 169 383 169 383 169 360 c 256,49,50
 169 337 169 337 177.5 317.5 c 128,-1,51
 186 298 186 298 200 283.5 c 128,-1,52
 214 269 214 269 233.5 260.5 c 128,-1,53
 253 252 253 252 275 252 c 256,34,35
EndSplineSet
Substitution2: "'tnum' Tabular Numbers lookup 6 subtable" currency.tab
Substitution2: "'aalt' Access All Alternates lookup 0 subtable" currency.tab
EndChar

StartChar: yen
Encoding: 165 165 103
Width: 630
Flags: W
LayerCount: 2
Fore
SplineSet
273 156 m 1,0,-1
 80 156 l 1,1,-1
 80 228 l 1,2,-1
 273 228 l 1,3,-1
 273 312 l 1,4,-1
 80 312 l 1,5,-1
 80 384 l 1,6,-1
 214 384 l 1,7,-1
 25 700 l 1,8,-1
 133 700 l 1,9,-1
 319 384 l 1,10,-1
 501 700 l 1,11,-1
 605 700 l 1,12,-1
 422 384 l 1,13,-1
 560 384 l 1,14,-1
 560 312 l 1,15,-1
 367 312 l 1,16,-1
 367 228 l 1,17,-1
 560 228 l 1,18,-1
 560 156 l 1,19,-1
 367 156 l 1,20,-1
 367 0 l 1,21,-1
 273 0 l 1,22,-1
 273 156 l 1,0,-1
EndSplineSet
Substitution2: "'tnum' Tabular Numbers lookup 6 subtable" yen.tab
Substitution2: "'aalt' Access All Alternates lookup 0 subtable" yen.tab
EndChar

StartChar: brokenbar
Encoding: 166 166 104
Width: 340
Flags: W
LayerCount: 2
Fore
SplineSet
128 170 m 1,0,-1
 212 170 l 1,1,-1
 212 -200 l 1,2,-1
 128 -200 l 1,3,-1
 128 170 l 1,0,-1
128 700 m 1,4,-1
 212 700 l 1,5,-1
 212 330 l 1,6,-1
 128 330 l 1,7,-1
 128 700 l 1,4,-1
EndSplineSet
EndChar

StartChar: section
Encoding: 167 167 105
Width: 560
Flags: W
LayerCount: 2
Fore
SplineSet
280 -210 m 256,0,1
 239 -210 239 -210 206.5 -197.5 c 128,-1,2
 174 -185 174 -185 151.5 -163.5 c 128,-1,3
 129 -142 129 -142 117 -113 c 128,-1,4
 105 -84 105 -84 105 -50 c 1,5,-1
 199 -50 l 1,6,7
 199 -125 199 -125 280 -125 c 256,8,9
 361 -125 361 -125 361 -48 c 0,10,11
 361 -30 361 -30 354 -16 c 128,-1,12
 347 -2 347 -2 329 11.5 c 128,-1,13
 311 25 311 25 280.5 39 c 128,-1,14
 250 53 250 53 202 72 c 0,15,16
 142 96 142 96 106 141.5 c 128,-1,17
 70 187 70 187 70 250 c 0,18,19
 70 307 70 307 103 350.5 c 128,-1,20
 136 394 136 394 193 418 c 1,21,22
 154 441 154 441 129.5 470.5 c 128,-1,23
 105 500 105 500 105 548 c 0,24,25
 105 582 105 582 117 612 c 128,-1,26
 129 642 129 642 151.5 663.5 c 128,-1,27
 174 685 174 685 206.5 697.5 c 128,-1,28
 239 710 239 710 280 710 c 256,29,30
 321 710 321 710 353.5 697.5 c 128,-1,31
 386 685 386 685 408.5 663 c 128,-1,32
 431 641 431 641 443 611 c 128,-1,33
 455 581 455 581 455 545 c 1,34,-1
 361 545 l 1,35,36
 361 626 361 626 280 626 c 0,37,38
 242 626 242 626 220.5 605 c 128,-1,39
 199 584 199 584 199 548 c 0,40,41
 199 530 199 530 206 516 c 128,-1,42
 213 502 213 502 231 488.5 c 128,-1,43
 249 475 249 475 280 461 c 128,-1,44
 311 447 311 447 358 428 c 0,45,46
 418 404 418 404 454 357.5 c 128,-1,47
 490 311 490 311 490 249 c 0,48,49
 490 192 490 192 456.5 149 c 128,-1,50
 423 106 423 106 367 82 c 1,51,52
 405 60 405 60 430 30 c 128,-1,53
 455 0 455 0 455 -48 c 0,54,55
 455 -83 455 -83 443 -112.5 c 128,-1,56
 431 -142 431 -142 408.5 -163.5 c 128,-1,57
 386 -185 386 -185 353.5 -197.5 c 128,-1,58
 321 -210 321 -210 280 -210 c 256,0,1
280 142 m 256,59,60
 331 142 331 142 364.5 172 c 128,-1,61
 398 202 398 202 398 249 c 0,62,63
 398 272 398 272 389 292 c 128,-1,64
 380 312 380 312 364 326.5 c 128,-1,65
 348 341 348 341 326.5 349.5 c 128,-1,66
 305 358 305 358 280 358 c 0,67,68
 229 358 229 358 195.5 327.5 c 128,-1,69
 162 297 162 297 162 250 c 256,70,71
 162 203 162 203 195.5 172.5 c 128,-1,72
 229 142 229 142 280 142 c 256,59,60
EndSplineSet
EndChar

StartChar: dieresis
Encoding: 168 168 106
Width: 360
Flags: W
LayerCount: 2
Fore
SplineSet
78 602 m 256,0,1
 54 602 54 602 37 619 c 128,-1,2
 20 636 20 636 20 660 c 256,3,4
 20 684 20 684 37 701 c 128,-1,5
 54 718 54 718 78 718 c 256,6,7
 102 718 102 718 119 701 c 128,-1,8
 136 684 136 684 136 660 c 256,9,10
 136 636 136 636 119 619 c 128,-1,11
 102 602 102 602 78 602 c 256,0,1
282 602 m 256,12,13
 258 602 258 602 241 619 c 128,-1,14
 224 636 224 636 224 660 c 256,15,16
 224 684 224 684 241 701 c 128,-1,17
 258 718 258 718 282 718 c 256,18,19
 306 718 306 718 323 701 c 128,-1,20
 340 684 340 684 340 660 c 256,21,22
 340 636 340 636 323 619 c 128,-1,23
 306 602 306 602 282 602 c 256,12,13
EndSplineSet
EndChar

StartChar: copyright
Encoding: 169 169 107
Width: 830
Flags: W
LayerCount: 2
Fore
SplineSet
415 -10 m 0,0,1
 339 -10 339 -10 273.5 18 c 128,-1,2
 208 46 208 46 159.5 94.5 c 128,-1,3
 111 143 111 143 83 208.5 c 128,-1,4
 55 274 55 274 55 350 c 0,5,6
 55 425 55 425 83 490.5 c 128,-1,7
 111 556 111 556 160 605 c 128,-1,8
 209 654 209 654 274.5 682 c 128,-1,9
 340 710 340 710 415 710 c 0,10,11
 491 710 491 710 556.5 682 c 128,-1,12
 622 654 622 654 670.5 605.5 c 128,-1,13
 719 557 719 557 747 491.5 c 128,-1,14
 775 426 775 426 775 350 c 0,15,16
 775 275 775 275 747 209.5 c 128,-1,17
 719 144 719 144 670 95 c 128,-1,18
 621 46 621 46 555.5 18 c 128,-1,19
 490 -10 490 -10 415 -10 c 0,0,1
415 66 m 0,20,21
 473 66 473 66 524.5 87.5 c 128,-1,22
 576 109 576 109 613.5 147 c 128,-1,23
 651 185 651 185 673 237 c 128,-1,24
 695 289 695 289 695 350 c 0,25,26
 695 410 695 410 673 462 c 128,-1,27
 651 514 651 514 613.5 552.5 c 128,-1,28
 576 591 576 591 524.5 612.5 c 128,-1,29
 473 634 473 634 415 634 c 0,30,31
 356 634 356 634 305 612.5 c 128,-1,32
 254 591 254 591 216.5 552.5 c 128,-1,33
 179 514 179 514 157 462 c 128,-1,34
 135 410 135 410 135 350 c 256,35,36
 135 290 135 290 156.5 238 c 128,-1,37
 178 186 178 186 216 147.5 c 128,-1,38
 254 109 254 109 305 87.5 c 128,-1,39
 356 66 356 66 415 66 c 0,20,21
415 140 m 0,40,41
 375 140 375 140 342 153.5 c 128,-1,42
 309 167 309 167 285 193.5 c 128,-1,43
 261 220 261 220 248 258 c 128,-1,44
 235 296 235 296 235 345 c 2,45,-1
 235 355 l 2,46,47
 235 403 235 403 248.5 441.5 c 128,-1,48
 262 480 262 480 286 506 c 128,-1,49
 310 532 310 532 343 546 c 128,-1,50
 376 560 376 560 415 560 c 0,51,52
 491 560 491 560 534 522 c 128,-1,53
 577 484 577 484 585 430 c 1,54,-1
 505 430 l 1,55,56
 497 457 497 457 475 474.5 c 128,-1,57
 453 492 453 492 415 492 c 0,58,59
 370 492 370 492 342.5 460 c 128,-1,60
 315 428 315 428 315 355 c 2,61,-1
 315 345 l 2,62,63
 315 273 315 273 343 240.5 c 128,-1,64
 371 208 371 208 415 208 c 0,65,66
 457 208 457 208 477 226 c 128,-1,67
 497 244 497 244 505 275 c 1,68,-1
 585 275 l 1,69,70
 581 248 581 248 568 223.5 c 128,-1,71
 555 199 555 199 533.5 180.5 c 128,-1,72
 512 162 512 162 482 151 c 128,-1,73
 452 140 452 140 415 140 c 0,40,41
EndSplineSet
EndChar

StartChar: ordfeminine
Encoding: 170 170 108
Width: 380
Flags: W
LayerCount: 2
Fore
SplineSet
155 370 m 0,0,1
 93 370 93 370 64 397 c 128,-1,2
 35 424 35 424 35 472 c 0,3,4
 35 517 35 517 65.5 544.5 c 128,-1,5
 96 572 96 572 160 572 c 2,6,-1
 251 572 l 1,7,-1
 251 585 l 2,8,9
 251 644 251 644 195 644 c 0,10,11
 167 644 167 644 156 635.5 c 128,-1,12
 145 627 145 627 141 610 c 1,13,-1
 55 610 l 1,14,15
 59 655 59 655 91 682.5 c 128,-1,16
 123 710 123 710 195 710 c 0,17,18
 270 710 270 710 302.5 679.5 c 128,-1,19
 335 649 335 649 335 585 c 2,20,-1
 335 460 l 2,21,22
 335 434 335 434 336 414.5 c 128,-1,23
 337 395 337 395 340 380 c 1,24,-1
 268 380 l 1,25,26
 265 395 265 395 264 405 c 128,-1,27
 263 415 263 415 263 431 c 1,28,29
 251 408 251 408 224 389 c 128,-1,30
 197 370 197 370 155 370 c 0,0,1
170 436 m 0,31,32
 208 436 208 436 229.5 454.5 c 128,-1,33
 251 473 251 473 251 500 c 2,34,-1
 251 518 l 1,35,-1
 170 518 l 2,36,37
 143 518 143 518 132 505.5 c 128,-1,38
 121 493 121 493 121 475 c 256,39,40
 121 457 121 457 132.5 446.5 c 128,-1,41
 144 436 144 436 170 436 c 0,31,32
EndSplineSet
EndChar

StartChar: logicalnot
Encoding: 172 172 110
Width: 550
Flags: W
LayerCount: 2
Fore
SplineSet
412 319 m 1,0,-1
 50 319 l 1,1,-1
 50 401 l 1,2,-1
 500 401 l 1,3,-1
 500 151 l 1,4,-1
 412 151 l 1,5,-1
 412 319 l 1,0,-1
EndSplineSet
Substitution2: "'tnum' Tabular Numbers lookup 6 subtable" logicalnot.tab
Substitution2: "'aalt' Access All Alternates lookup 0 subtable" logicalnot.tab
EndChar

StartChar: registered
Encoding: 174 174 112
Width: 660
Flags: W
LayerCount: 2
Fore
SplineSet
330 140 m 256,0,1
 271 140 271 140 219 162.5 c 128,-1,2
 167 185 167 185 128.5 223.5 c 128,-1,3
 90 262 90 262 67.5 314 c 128,-1,4
 45 366 45 366 45 425 c 256,5,6
 45 484 45 484 67.5 536 c 128,-1,7
 90 588 90 588 128.5 626.5 c 128,-1,8
 167 665 167 665 219 687.5 c 128,-1,9
 271 710 271 710 330 710 c 256,10,11
 389 710 389 710 441 687.5 c 128,-1,12
 493 665 493 665 531.5 626.5 c 128,-1,13
 570 588 570 588 592.5 536 c 128,-1,14
 615 484 615 484 615 425 c 256,15,16
 615 366 615 366 592.5 314 c 128,-1,17
 570 262 570 262 531.5 223.5 c 128,-1,18
 493 185 493 185 441 162.5 c 128,-1,19
 389 140 389 140 330 140 c 256,0,1
330 200 m 256,20,21
 375 200 375 200 415 217.5 c 128,-1,22
 455 235 455 235 484.5 265.5 c 128,-1,23
 514 296 514 296 531.5 337 c 128,-1,24
 549 378 549 378 549 425 c 256,25,26
 549 472 549 472 531.5 513 c 128,-1,27
 514 554 514 554 484.5 584.5 c 128,-1,28
 455 615 455 615 415 632.5 c 128,-1,29
 375 650 375 650 330 650 c 256,30,31
 285 650 285 650 245 632.5 c 128,-1,32
 205 615 205 615 175.5 584.5 c 128,-1,33
 146 554 146 554 128.5 513 c 128,-1,34
 111 472 111 472 111 425 c 256,35,36
 111 378 111 378 128.5 337 c 128,-1,37
 146 296 146 296 175.5 265.5 c 128,-1,38
 205 235 205 235 245 217.5 c 128,-1,39
 285 200 285 200 330 200 c 256,20,21
225 575 m 1,40,-1
 330 575 l 2,41,42
 397 575 397 575 426 550 c 128,-1,43
 455 525 455 525 455 480 c 0,44,45
 455 447 455 447 439 424 c 128,-1,46
 423 401 423 401 388 391 c 1,47,-1
 455 275 l 1,48,-1
 385 275 l 1,49,-1
 325 385 l 1,50,-1
 289 385 l 1,51,-1
 289 275 l 1,52,-1
 225 275 l 1,53,-1
 225 575 l 1,40,-1
326 435 m 2,54,55
 364 435 364 435 377.5 446 c 128,-1,56
 391 457 391 457 391 480 c 256,57,58
 391 503 391 503 377.5 514 c 128,-1,59
 364 525 364 525 326 525 c 2,60,-1
 289 525 l 1,61,-1
 289 435 l 1,62,-1
 326 435 l 2,54,55
EndSplineSet
EndChar

StartChar: macron
Encoding: 175 175 113
Width: 300
Flags: W
LayerCount: 2
Fore
SplineSet
20 694 m 1,0,-1
 280 694 l 1,1,-1
 280 626 l 1,2,-1
 20 626 l 1,3,-1
 20 694 l 1,0,-1
EndSplineSet
EndChar

StartChar: degree
Encoding: 176 176 114
Width: 390
Flags: W
LayerCount: 2
Fore
SplineSet
195 400 m 256,0,1
 163 400 163 400 134.5 412 c 128,-1,2
 106 424 106 424 85 445 c 128,-1,3
 64 466 64 466 52 494.5 c 128,-1,4
 40 523 40 523 40 555 c 256,5,6
 40 587 40 587 52 615.5 c 128,-1,7
 64 644 64 644 85 665 c 128,-1,8
 106 686 106 686 134.5 698 c 128,-1,9
 163 710 163 710 195 710 c 256,10,11
 227 710 227 710 255.5 698 c 128,-1,12
 284 686 284 686 305 665 c 128,-1,13
 326 644 326 644 338 615.5 c 128,-1,14
 350 587 350 587 350 555 c 256,15,16
 350 523 350 523 338 494.5 c 128,-1,17
 326 466 326 466 305 445 c 128,-1,18
 284 424 284 424 255.5 412 c 128,-1,19
 227 400 227 400 195 400 c 256,0,1
195 476 m 256,20,21
 228 476 228 476 251 499 c 128,-1,22
 274 522 274 522 274 555 c 256,23,24
 274 588 274 588 251 611 c 128,-1,25
 228 634 228 634 195 634 c 256,26,27
 162 634 162 634 139 611 c 128,-1,28
 116 588 116 588 116 555 c 256,29,30
 116 522 116 522 139 499 c 128,-1,31
 162 476 162 476 195 476 c 256,20,21
EndSplineSet
EndChar

StartChar: plusminus
Encoding: 177 177 115
Width: 550
Flags: W
LayerCount: 2
Fore
SplineSet
50 171 m 1,0,-1
 500 171 l 1,1,-1
 500 89 l 1,2,-1
 50 89 l 1,3,-1
 50 171 l 1,0,-1
231 369 m 1,4,-1
 50 369 l 1,5,-1
 50 451 l 1,6,-1
 231 451 l 1,7,-1
 231 635 l 1,8,-1
 319 635 l 1,9,-1
 319 451 l 1,10,-1
 500 451 l 1,11,-1
 500 369 l 1,12,-1
 319 369 l 1,13,-1
 319 270 l 1,14,-1
 231 270 l 1,15,-1
 231 369 l 1,4,-1
EndSplineSet
Substitution2: "'tnum' Tabular Numbers lookup 6 subtable" plusminus.tab
Substitution2: "'aalt' Access All Alternates lookup 0 subtable" plusminus.tab
EndChar

StartChar: twosuperior
Encoding: 178 178 116
Width: 360
Flags: W
LayerCount: 2
Fore
SplineSet
30 444 m 1,0,-1
 179 572 l 2,1,2
 198 588 198 588 209.5 600.5 c 128,-1,3
 221 613 221 613 227.5 623.5 c 128,-1,4
 234 634 234 634 236.5 644 c 128,-1,5
 239 654 239 654 239 665 c 0,6,7
 239 685 239 685 223.5 699.5 c 128,-1,8
 208 714 208 714 180 714 c 256,9,10
 152 714 152 714 136.5 699.5 c 128,-1,11
 121 685 121 685 121 665 c 1,12,-1
 35 665 l 1,13,14
 35 718 35 718 73.5 754 c 128,-1,15
 112 790 112 790 180 790 c 256,16,17
 248 790 248 790 286.5 754 c 128,-1,18
 325 718 325 718 325 665 c 0,19,20
 325 626 325 626 301 593.5 c 128,-1,21
 277 561 277 561 226 521 c 2,22,-1
 142 454 l 1,23,-1
 330 454 l 1,24,-1
 330 380 l 1,25,-1
 30 380 l 1,26,-1
 30 444 l 1,0,-1
EndSplineSet
EndChar

StartChar: threesuperior
Encoding: 179 179 117
Width: 370
Flags: W
LayerCount: 2
Fore
SplineSet
185 370 m 0,0,1
 147 370 147 370 118.5 379.5 c 128,-1,2
 90 389 90 389 70 405.5 c 128,-1,3
 50 422 50 422 40 444 c 128,-1,4
 30 466 30 466 30 490 c 1,5,-1
 116 490 l 1,6,7
 116 446 116 446 185 446 c 0,8,9
 220 446 220 446 237 460 c 128,-1,10
 254 474 254 474 254 498 c 0,11,12
 254 523 254 523 237.5 536.5 c 128,-1,13
 221 550 221 550 184 550 c 2,14,-1
 135 550 l 1,15,-1
 135 620 l 1,16,-1
 184 620 l 2,17,18
 214 620 214 620 229 633.5 c 128,-1,19
 244 647 244 647 244 669 c 0,20,21
 244 689 244 689 230 701.5 c 128,-1,22
 216 714 216 714 185 714 c 0,23,24
 158 714 158 714 142 704 c 128,-1,25
 126 694 126 694 126 675 c 1,26,-1
 40 675 l 1,27,28
 40 723 40 723 77 756.5 c 128,-1,29
 114 790 114 790 185 790 c 0,30,31
 257 790 257 790 293.5 757.5 c 128,-1,32
 330 725 330 725 330 676 c 0,33,34
 330 637 330 637 312.5 619 c 128,-1,35
 295 601 295 601 265 590 c 1,36,37
 295 579 295 579 317.5 556.5 c 128,-1,38
 340 534 340 534 340 492 c 0,39,40
 340 467 340 467 330 444.5 c 128,-1,41
 320 422 320 422 300 405.5 c 128,-1,42
 280 389 280 389 251 379.5 c 128,-1,43
 222 370 222 370 185 370 c 0,0,1
EndSplineSet
EndChar

StartChar: acute
Encoding: 180 180 118
Width: 260
Flags: W
LayerCount: 2
Fore
SplineSet
130 740 m 1,0,-1
 240 740 l 1,1,-1
 90 580 l 1,2,-1
 20 580 l 1,3,-1
 130 740 l 1,0,-1
EndSplineSet
EndChar

StartChar: mu
Encoding: 181 181 119
Width: 610
Flags: W
LayerCount: 2
Fore
SplineSet
80 530 m 1,0,-1
 168 530 l 1,1,-1
 168 220 l 2,2,3
 168 146 168 146 198.5 108 c 128,-1,4
 229 70 229 70 298 70 c 0,5,6
 335 70 335 70 362.5 83 c 128,-1,7
 390 96 390 96 407.5 117 c 128,-1,8
 425 138 425 138 433.5 165 c 128,-1,9
 442 192 442 192 442 220 c 2,10,-1
 442 530 l 1,11,-1
 530 530 l 1,12,-1
 530 0 l 1,13,-1
 448 0 l 1,14,-1
 448 100 l 1,15,16
 439 78 439 78 423.5 58 c 128,-1,17
 408 38 408 38 385.5 23 c 128,-1,18
 363 8 363 8 334.5 -1 c 128,-1,19
 306 -10 306 -10 272 -10 c 0,20,21
 210 -10 210 -10 168 17 c 1,22,-1
 168 -200 l 1,23,-1
 80 -200 l 1,24,-1
 80 530 l 1,0,-1
EndSplineSet
EndChar

StartChar: paragraph
Encoding: 182 182 120
Width: 625
Flags: W
LayerCount: 2
Fore
SplineSet
195 306 m 1,0,1
 163 314 163 314 135.5 332.5 c 128,-1,2
 108 351 108 351 88 376.5 c 128,-1,3
 68 402 68 402 56.5 433.5 c 128,-1,4
 45 465 45 465 45 500 c 0,5,6
 45 541 45 541 61 577.5 c 128,-1,7
 77 614 77 614 104 641 c 128,-1,8
 131 668 131 668 167.5 684 c 128,-1,9
 204 700 204 700 245 700 c 2,10,-1
 525 700 l 1,11,-1
 525 -200 l 1,12,-1
 441 -200 l 1,13,-1
 441 620 l 1,14,-1
 279 620 l 1,15,-1
 279 -200 l 1,16,-1
 195 -200 l 1,17,-1
 195 306 l 1,0,1
EndSplineSet
EndChar

StartChar: cedilla
Encoding: 184 184 122
Width: 220
Flags: W
LayerCount: 2
Fore
SplineSet
80 -210 m 0,0,1
 55 -210 55 -210 39 -207 c 0,2,3
 29 -206 29 -206 20 -204 c 1,4,-1
 20 -144 l 1,5,6
 26 -145 26 -145 34 -146 c 0,7,8
 41 -147 41 -147 50 -147.5 c 128,-1,9
 59 -148 59 -148 70 -148 c 0,10,11
 98 -148 98 -148 110 -137.5 c 128,-1,12
 122 -127 122 -127 122 -113 c 0,13,14
 122 -101 122 -101 112 -90 c 128,-1,15
 102 -79 102 -79 65 -79 c 1,16,-1
 82 10 l 1,17,-1
 142 10 l 1,18,-1
 135 -38 l 1,19,20
 155 -43 155 -43 168 -51.5 c 128,-1,21
 181 -60 181 -60 188 -70.5 c 128,-1,22
 195 -81 195 -81 197.5 -92.5 c 128,-1,23
 200 -104 200 -104 200 -115 c 0,24,25
 200 -158 200 -158 171 -184 c 128,-1,26
 142 -210 142 -210 80 -210 c 0,0,1
EndSplineSet
EndChar

StartChar: onesuperior
Encoding: 185 185 123
Width: 250
Flags: W
LayerCount: 2
Fore
SplineSet
129 690 m 1,0,-1
 25 616 l 1,1,-1
 25 702 l 1,2,-1
 135 780 l 1,3,-1
 215 780 l 1,4,-1
 215 380 l 1,5,-1
 129 380 l 1,6,-1
 129 690 l 1,0,-1
EndSplineSet
EndChar

StartChar: ordmasculine
Encoding: 186 186 124
Width: 380
Flags: W
LayerCount: 2
Fore
SplineSet
190 370 m 256,0,1
 155 370 155 370 125.5 382 c 128,-1,2
 96 394 96 394 75 415.5 c 128,-1,3
 54 437 54 437 42 467.5 c 128,-1,4
 30 498 30 498 30 535 c 2,5,-1
 30 545 l 2,6,7
 30 582 30 582 42 612 c 128,-1,8
 54 642 54 642 75 664 c 128,-1,9
 96 686 96 686 125.5 698 c 128,-1,10
 155 710 155 710 190 710 c 256,11,12
 225 710 225 710 254.5 698 c 128,-1,13
 284 686 284 686 305 664 c 128,-1,14
 326 642 326 642 338 612 c 128,-1,15
 350 582 350 582 350 545 c 2,16,-1
 350 535 l 2,17,18
 350 498 350 498 338 467.5 c 128,-1,19
 326 437 326 437 305 415.5 c 128,-1,20
 284 394 284 394 254.5 382 c 128,-1,21
 225 370 225 370 190 370 c 256,0,1
190 446 m 256,22,23
 224 446 224 446 244 468 c 128,-1,24
 264 490 264 490 264 535 c 2,25,-1
 264 545 l 2,26,27
 264 590 264 590 244 612 c 128,-1,28
 224 634 224 634 190 634 c 256,29,30
 156 634 156 634 136 612 c 128,-1,31
 116 590 116 590 116 545 c 2,32,-1
 116 535 l 2,33,34
 116 490 116 490 136 468 c 128,-1,35
 156 446 156 446 190 446 c 256,22,23
EndSplineSet
EndChar

StartChar: questiondown
Encoding: 191 191 129
Width: 500
Flags: W
LayerCount: 2
Fore
SplineSet
250 -210 m 256,0,1
 202 -210 202 -210 163 -195.5 c 128,-1,2
 124 -181 124 -181 96.5 -155.5 c 128,-1,3
 69 -130 69 -130 54.5 -95.5 c 128,-1,4
 40 -61 40 -61 40 -20 c 0,5,6
 40 8 40 8 49 33 c 128,-1,7
 58 58 58 58 73.5 80.5 c 128,-1,8
 89 103 89 103 109 123.5 c 128,-1,9
 129 144 129 144 150 162 c 0,10,11
 167 176 167 176 178 188.5 c 128,-1,12
 189 201 189 201 195.5 212.5 c 128,-1,13
 202 224 202 224 204.5 235.5 c 128,-1,14
 207 247 207 247 207 260 c 2,15,-1
 207 310 l 1,16,-1
 295 310 l 1,17,-1
 295 250 l 2,18,19
 295 231 295 231 292.5 214.5 c 128,-1,20
 290 198 290 198 281.5 181.5 c 128,-1,21
 273 165 273 165 257.5 147 c 128,-1,22
 242 129 242 129 216 107 c 0,23,24
 174 71 174 71 152 42 c 128,-1,25
 130 13 130 13 130 -20 c 0,26,27
 130 -68 130 -68 162 -99 c 128,-1,28
 194 -130 194 -130 250 -130 c 256,29,30
 306 -130 306 -130 338 -99 c 128,-1,31
 370 -68 370 -68 370 -20 c 1,32,-1
 460 -20 l 1,33,34
 460 -61 460 -61 445.5 -95.5 c 128,-1,35
 431 -130 431 -130 403.5 -155.5 c 128,-1,36
 376 -181 376 -181 337 -195.5 c 128,-1,37
 298 -210 298 -210 250 -210 c 256,0,1
250 400 m 256,38,39
 221 400 221 400 200.5 420.5 c 128,-1,40
 180 441 180 441 180 470 c 0,41,42
 180 500 180 500 200.5 520 c 128,-1,43
 221 540 221 540 250 540 c 256,44,45
 279 540 279 540 299.5 520 c 128,-1,46
 320 500 320 500 320 470 c 0,47,48
 320 441 320 441 299.5 420.5 c 128,-1,49
 279 400 279 400 250 400 c 256,38,39
EndSplineSet
EndChar

StartChar: AE
Encoding: 198 198 136
Width: 950
Flags: W
LayerCount: 2
Fore
SplineSet
419 700 m 1,0,-1
 890 700 l 1,1,-1
 890 618 l 1,2,-1
 534 618 l 1,3,-1
 534 401 l 1,4,-1
 860 401 l 1,5,-1
 860 319 l 1,6,-1
 534 319 l 1,7,-1
 534 82 l 1,8,-1
 890 82 l 1,9,-1
 890 0 l 1,10,-1
 440 0 l 1,11,-1
 440 174 l 1,12,-1
 215 174 l 1,13,-1
 114 0 l 1,14,-1
 10 0 l 1,15,-1
 419 700 l 1,0,-1
440 256 m 1,16,-1
 440 576 l 1,17,-1
 263 256 l 1,18,-1
 440 256 l 1,16,-1
EndSplineSet
Position2: "'cpsp' Capital Spacing lookup 0 subtable" dx=5 dy=0 dh=10 dv=0
EndChar

StartChar: Eth
Encoding: 208 208 146
Width: 715
Flags: W
LayerCount: 2
Fore
SplineSet
115 319 m 1,0,-1
 35 319 l 1,1,-1
 35 391 l 1,2,-1
 115 391 l 1,3,-1
 115 700 l 1,4,-1
 320 700 l 2,5,6
 399 700 399 700 461 678.5 c 128,-1,7
 523 657 523 657 566 615 c 128,-1,8
 609 573 609 573 632 510 c 128,-1,9
 655 447 655 447 655 365 c 2,10,-1
 655 345 l 2,11,12
 655 261 655 261 631.5 196.5 c 128,-1,13
 608 132 608 132 563.5 88.5 c 128,-1,14
 519 45 519 45 455 22.5 c 128,-1,15
 391 0 391 0 310 0 c 2,16,-1
 115 0 l 1,17,-1
 115 319 l 1,0,-1
300 82 m 2,18,19
 359 82 359 82 406.5 97 c 128,-1,20
 454 112 454 112 487 143.5 c 128,-1,21
 520 175 520 175 537.5 225 c 128,-1,22
 555 275 555 275 555 345 c 2,23,-1
 555 365 l 2,24,25
 555 432 555 432 538 480 c 128,-1,26
 521 528 521 528 489 558.5 c 128,-1,27
 457 589 457 589 411.5 603.5 c 128,-1,28
 366 618 366 618 310 618 c 2,29,-1
 209 618 l 1,30,-1
 209 391 l 1,31,-1
 385 391 l 1,32,-1
 385 319 l 1,33,-1
 209 319 l 1,34,-1
 209 82 l 1,35,-1
 300 82 l 2,18,19
EndSplineSet
Position2: "'cpsp' Capital Spacing lookup 0 subtable" dx=5 dy=0 dh=10 dv=0
EndChar

StartChar: multiply
Encoding: 215 215 153
Width: 550
Flags: W
LayerCount: 2
Fore
SplineSet
75 219 m 1,0,-1
 216 360 l 1,1,-1
 75 501 l 1,2,-1
 134 560 l 1,3,-1
 275 419 l 1,4,-1
 416 560 l 1,5,-1
 475 501 l 1,6,-1
 334 360 l 1,7,-1
 475 219 l 1,8,-1
 416 160 l 1,9,-1
 275 301 l 1,10,-1
 134 160 l 1,11,-1
 75 219 l 1,0,-1
EndSplineSet
Substitution2: "'tnum' Tabular Numbers lookup 6 subtable" multiply.tab
Substitution2: "'aalt' Access All Alternates lookup 0 subtable" multiply.tab
EndChar

StartChar: Oslash
Encoding: 216 216 154
Width: 740
Flags: W
LayerCount: 2
Fore
SplineSet
370 -10 m 0,0,1
 317 -10 317 -10 268 5.5 c 128,-1,2
 219 21 219 21 177 53 c 1,3,-1
 127 -10 l 1,4,-1
 75 32 l 1,5,-1
 130 102 l 1,6,7
 98 145 98 145 79 204.5 c 128,-1,8
 60 264 60 264 60 345 c 2,9,-1
 60 365 l 2,10,11
 60 455 60 455 86 520 c 128,-1,12
 112 585 112 585 155 627.5 c 128,-1,13
 198 670 198 670 254 690 c 128,-1,14
 310 710 310 710 370 710 c 0,15,16
 423 710 423 710 472 694.5 c 128,-1,17
 521 679 521 679 563 647 c 1,18,-1
 613 710 l 1,19,-1
 665 668 l 1,20,-1
 610 599 l 1,21,22
 642 557 642 557 661 499 c 128,-1,23
 680 441 680 441 680 365 c 2,24,-1
 680 345 l 2,25,26
 680 251 680 251 654 184 c 128,-1,27
 628 117 628 117 585 74 c 128,-1,28
 542 31 542 31 486 10.5 c 128,-1,29
 430 -10 430 -10 370 -10 c 0,0,1
370 74 m 0,30,31
 411 74 411 74 449 89 c 128,-1,32
 487 104 487 104 516 136.5 c 128,-1,33
 545 169 545 169 562.5 220.5 c 128,-1,34
 580 272 580 272 580 345 c 2,35,-1
 580 365 l 2,36,37
 580 413 580 413 571.5 451.5 c 128,-1,38
 563 490 563 490 547 520 c 1,39,-1
 234 125 l 1,40,41
 263 99 263 99 297.5 86.5 c 128,-1,42
 332 74 332 74 370 74 c 0,30,31
370 626 m 0,43,44
 329 626 329 626 291 611 c 128,-1,45
 253 596 253 596 224 564.5 c 128,-1,46
 195 533 195 533 177.5 483.5 c 128,-1,47
 160 434 160 434 160 365 c 2,48,-1
 160 345 l 2,49,50
 160 293 160 293 168.5 252.5 c 128,-1,51
 177 212 177 212 193 181 c 1,52,-1
 506 575 l 1,53,54
 477 601 477 601 442.5 613.5 c 128,-1,55
 408 626 408 626 370 626 c 0,43,44
EndSplineSet
Position2: "'cpsp' Capital Spacing lookup 0 subtable" dx=5 dy=0 dh=10 dv=0
EndChar

StartChar: Thorn
Encoding: 222 222 160
Width: 655
Flags: W
LayerCount: 2
Fore
SplineSet
100 700 m 1,0,-1
 194 700 l 1,1,-1
 194 575 l 1,2,-1
 340 575 l 2,3,4
 409 575 409 575 460 559 c 128,-1,5
 511 543 511 543 544.5 514.5 c 128,-1,6
 578 486 578 486 594 446.5 c 128,-1,7
 610 407 610 407 610 360 c 256,8,9
 610 313 610 313 594 273.5 c 128,-1,10
 578 234 578 234 544.5 205.5 c 128,-1,11
 511 177 511 177 460 161 c 128,-1,12
 409 145 409 145 340 145 c 2,13,-1
 194 145 l 1,14,-1
 194 0 l 1,15,-1
 100 0 l 1,16,-1
 100 700 l 1,0,-1
335 227 m 2,17,18
 385 227 385 227 419.5 236.5 c 128,-1,19
 454 246 454 246 475.5 263 c 128,-1,20
 497 280 497 280 506.5 305 c 128,-1,21
 516 330 516 330 516 360 c 256,22,23
 516 390 516 390 506.5 415 c 128,-1,24
 497 440 497 440 475.5 457 c 128,-1,25
 454 474 454 474 419.5 483.5 c 128,-1,26
 385 493 385 493 335 493 c 2,27,-1
 194 493 l 1,28,-1
 194 227 l 1,29,-1
 335 227 l 2,17,18
EndSplineSet
Position2: "'cpsp' Capital Spacing lookup 0 subtable" dx=5 dy=0 dh=10 dv=0
EndChar

StartChar: germandbls
Encoding: 223 223 161
Width: 580
Flags: W
LayerCount: 2
Fore
SplineSet
80 485 m 2,0,1
 80 538 80 538 95 580 c 128,-1,2
 110 622 110 622 137.5 651 c 128,-1,3
 165 680 165 680 203.5 695 c 128,-1,4
 242 710 242 710 290 710 c 0,5,6
 337 710 337 710 374 696.5 c 128,-1,7
 411 683 411 683 437 660 c 128,-1,8
 463 637 463 637 476.5 604.5 c 128,-1,9
 490 572 490 572 490 535 c 0,10,11
 490 484 490 484 464 444 c 128,-1,12
 438 404 438 404 390 387 c 1,13,14
 428 381 428 381 455 364 c 128,-1,15
 482 347 482 347 498.5 323 c 128,-1,16
 515 299 515 299 522.5 271 c 128,-1,17
 530 243 530 243 530 215 c 2,18,-1
 530 206 l 2,19,20
 530 101 530 101 474 48 c 128,-1,21
 418 -5 418 -5 295 -5 c 0,22,23
 284 -5 284 -5 270 -4.5 c 128,-1,24
 256 -4 256 -4 245 -2 c 1,25,-1
 245 78 l 1,26,27
 256 76 256 76 270 75.5 c 128,-1,28
 284 75 284 75 295 75 c 0,29,30
 371 75 371 75 406.5 109 c 128,-1,31
 442 143 442 143 442 206 c 2,32,-1
 442 215 l 2,33,34
 442 278 442 278 406.5 311.5 c 128,-1,35
 371 345 371 345 295 345 c 2,36,-1
 275 345 l 1,37,-1
 275 415 l 1,38,-1
 290 415 l 2,39,40
 344 415 344 415 373 443.5 c 128,-1,41
 402 472 402 472 402 523 c 0,42,43
 402 573 402 573 373 601.5 c 128,-1,44
 344 630 344 630 290 630 c 256,45,46
 236 630 236 630 202 593 c 128,-1,47
 168 556 168 556 168 485 c 2,48,-1
 168 0 l 1,49,-1
 80 0 l 1,50,-1
 80 485 l 2,0,1
EndSplineSet
EndChar

StartChar: ae
Encoding: 230 230 168
Width: 935
Flags: W
LayerCount: 2
Fore
SplineSet
241 -10 m 0,0,1
 194 -10 194 -10 158 2.5 c 128,-1,2
 122 15 122 15 98 37 c 128,-1,3
 74 59 74 59 62 89 c 128,-1,4
 50 119 50 119 50 155 c 0,5,6
 50 237 50 237 97.5 273 c 128,-1,7
 145 309 145 309 229 309 c 2,8,-1
 402 309 l 1,9,-1
 402 340 l 2,10,11
 402 408 402 408 371.5 434 c 128,-1,12
 341 460 341 460 280 460 c 0,13,14
 223 460 223 460 197 438.5 c 128,-1,15
 171 417 171 417 168 390 c 1,16,-1
 80 390 l 1,17,18
 82 422 82 422 97.5 449.5 c 128,-1,19
 113 477 113 477 139.5 497 c 128,-1,20
 166 517 166 517 202 528.5 c 128,-1,21
 238 540 238 540 280 540 c 0,22,23
 346 540 346 540 394.5 517.5 c 128,-1,24
 443 495 443 495 466 450 c 1,25,26
 496 497 496 497 539 518.5 c 128,-1,27
 582 540 582 540 645 540 c 0,28,29
 762 540 762 540 826 476 c 128,-1,30
 890 412 890 412 890 295 c 2,31,-1
 890 241 l 1,32,-1
 488 241 l 1,33,34
 488 194 488 194 503 161 c 128,-1,35
 518 128 518 128 542 108 c 128,-1,36
 566 88 566 88 595.5 79 c 128,-1,37
 625 70 625 70 655 70 c 0,38,39
 715 70 715 70 747.5 90 c 128,-1,40
 780 110 780 110 794 145 c 1,41,-1
 880 145 l 1,42,43
 872 107 872 107 851.5 78 c 128,-1,44
 831 49 831 49 801.5 29.5 c 128,-1,45
 772 10 772 10 734.5 0 c 128,-1,46
 697 -10 697 -10 655 -10 c 0,47,48
 591 -10 591 -10 536.5 19 c 128,-1,49
 482 48 482 48 450 105 c 1,50,51
 421 52 421 52 371.5 21 c 128,-1,52
 322 -10 322 -10 241 -10 c 0,0,1
251 70 m 0,53,54
 281 70 281 70 308.5 78.5 c 128,-1,55
 336 87 336 87 357 103.5 c 128,-1,56
 378 120 378 120 390 144 c 128,-1,57
 402 168 402 168 402 200 c 2,58,-1
 402 241 l 1,59,-1
 246 241 l 2,60,61
 196 241 196 241 168 220 c 128,-1,62
 140 199 140 199 140 155 c 0,63,64
 140 118 140 118 167 94 c 128,-1,65
 194 70 194 70 251 70 c 0,53,54
650 460 m 0,66,67
 619 460 619 460 590 451 c 128,-1,68
 561 442 561 442 538.5 423.5 c 128,-1,69
 516 405 516 405 502 376.5 c 128,-1,70
 488 348 488 348 488 309 c 1,71,-1
 807 309 l 1,72,73
 806 350 806 350 793.5 378.5 c 128,-1,74
 781 407 781 407 760 425 c 128,-1,75
 739 443 739 443 710.5 451.5 c 128,-1,76
 682 460 682 460 650 460 c 0,66,67
EndSplineSet
EndChar

StartChar: eth
Encoding: 240 240 178
Width: 600
Flags: W
LayerCount: 2
Fore
SplineSet
305 -10 m 256,0,1
 254 -10 254 -10 208 6.5 c 128,-1,2
 162 23 162 23 127 55.5 c 128,-1,3
 92 88 92 88 71 136.5 c 128,-1,4
 50 185 50 185 50 250 c 2,5,-1
 50 270 l 2,6,7
 50 331 50 331 70.5 377.5 c 128,-1,8
 91 424 91 424 124.5 455.5 c 128,-1,9
 158 487 158 487 200 503.5 c 128,-1,10
 242 520 242 520 285 520 c 0,11,12
 339 520 339 520 381 503 c 128,-1,13
 423 486 423 486 452 450 c 1,14,15
 429 515 429 515 389 554.5 c 128,-1,16
 349 594 349 594 287 623 c 1,17,-1
 261 574 l 1,18,-1
 215 595 l 1,19,-1
 240 642 l 1,20,21
 223 649 223 649 205.5 655 c 128,-1,22
 188 661 188 661 168 668 c 1,23,-1
 190 742 l 1,24,25
 213 734 213 734 235 726.5 c 128,-1,26
 257 719 257 719 277 711 c 1,27,-1
 302 758 l 1,28,-1
 348 737 l 1,29,-1
 323 690 l 1,30,31
 389 658 389 658 434.5 618 c 128,-1,32
 480 578 480 578 508 528.5 c 128,-1,33
 536 479 536 479 548 419.5 c 128,-1,34
 560 360 560 360 560 290 c 2,35,-1
 560 270 l 2,36,37
 560 198 560 198 539 145 c 128,-1,38
 518 92 518 92 483 57.5 c 128,-1,39
 448 23 448 23 402 6.5 c 128,-1,40
 356 -10 356 -10 305 -10 c 256,0,1
305 70 m 256,41,42
 335 70 335 70 365 80 c 128,-1,43
 395 90 395 90 418 112 c 128,-1,44
 441 134 441 134 455.5 168 c 128,-1,45
 470 202 470 202 470 250 c 2,46,-1
 470 270 l 2,47,48
 470 314 470 314 455.5 346 c 128,-1,49
 441 378 441 378 418 399 c 128,-1,50
 395 420 395 420 365 430 c 128,-1,51
 335 440 335 440 305 440 c 256,52,53
 275 440 275 440 245 430 c 128,-1,54
 215 420 215 420 192 399 c 128,-1,55
 169 378 169 378 154.5 346 c 128,-1,56
 140 314 140 314 140 270 c 2,57,-1
 140 250 l 2,58,59
 140 202 140 202 154.5 168 c 128,-1,60
 169 134 169 134 192 112 c 128,-1,61
 215 90 215 90 245 80 c 128,-1,62
 275 70 275 70 305 70 c 256,41,42
EndSplineSet
EndChar

StartChar: divide
Encoding: 247 247 185
Width: 550
Flags: W
LayerCount: 2
Fore
SplineSet
50 401 m 1,0,-1
 500 401 l 1,1,-1
 500 319 l 1,2,-1
 50 319 l 1,3,-1
 50 401 l 1,0,-1
275 119 m 256,4,5
 246 119 246 119 225.5 139.5 c 128,-1,6
 205 160 205 160 205 189 c 0,7,8
 205 219 205 219 225.5 239 c 128,-1,9
 246 259 246 259 275 259 c 256,10,11
 304 259 304 259 324.5 239 c 128,-1,12
 345 219 345 219 345 189 c 0,13,14
 345 160 345 160 324.5 139.5 c 128,-1,15
 304 119 304 119 275 119 c 256,4,5
275 461 m 256,16,17
 246 461 246 461 225.5 481.5 c 128,-1,18
 205 502 205 502 205 531 c 0,19,20
 205 561 205 561 225.5 581 c 128,-1,21
 246 601 246 601 275 601 c 256,22,23
 304 601 304 601 324.5 581 c 128,-1,24
 345 561 345 561 345 531 c 0,25,26
 345 502 345 502 324.5 481.5 c 128,-1,27
 304 461 304 461 275 461 c 256,16,17
EndSplineSet
Substitution2: "'tnum' Tabular Numbers lookup 6 subtable" divide.tab
Substitution2: "'aalt' Access All Alternates lookup 0 subtable" divide.tab
EndChar

StartChar: oslash
Encoding: 248 248 186
Width: 600
Flags: W
LayerCount: 2
Fore
SplineSet
300 -10 m 0,0,1
 256 -10 256 -10 216 2 c 128,-1,2
 176 14 176 14 143 38 c 1,3,-1
 102 -10 l 1,4,-1
 60 26 l 1,5,-1
 103 77 l 1,6,7
 76 110 76 110 60.5 155 c 128,-1,8
 45 200 45 200 45 260 c 2,9,-1
 45 280 l 2,10,11
 45 344 45 344 66 393 c 128,-1,12
 87 442 87 442 122 474.5 c 128,-1,13
 157 507 157 507 203 523.5 c 128,-1,14
 249 540 249 540 300 540 c 0,15,16
 344 540 344 540 384 528 c 128,-1,17
 424 516 424 516 457 492 c 1,18,-1
 498 540 l 1,19,-1
 540 502 l 1,20,-1
 498 453 l 1,21,22
 524 421 524 421 539.5 378 c 128,-1,23
 555 335 555 335 555 280 c 2,24,-1
 555 260 l 2,25,26
 555 192 555 192 534 141 c 128,-1,27
 513 90 513 90 478 56.5 c 128,-1,28
 443 23 443 23 397 6.5 c 128,-1,29
 351 -10 351 -10 300 -10 c 0,0,1
300 70 m 0,30,31
 330 70 330 70 360 80.5 c 128,-1,32
 390 91 390 91 413 113.5 c 128,-1,33
 436 136 436 136 450.5 172 c 128,-1,34
 465 208 465 208 465 260 c 2,35,-1
 465 280 l 2,36,37
 465 312 465 312 458 338 c 128,-1,38
 451 364 451 364 439 384 c 1,39,-1
 199 103 l 1,40,41
 221 86 221 86 247 78 c 128,-1,42
 273 70 273 70 300 70 c 0,30,31
300 460 m 0,43,44
 270 460 270 460 240 450 c 128,-1,45
 210 440 210 440 187 418 c 128,-1,46
 164 396 164 396 149.5 362 c 128,-1,47
 135 328 135 328 135 280 c 2,48,-1
 135 260 l 2,49,50
 135 224 135 224 142 195.5 c 128,-1,51
 149 167 149 167 162 145 c 1,52,-1
 402 427 l 1,53,54
 379 444 379 444 353 452 c 128,-1,55
 327 460 327 460 300 460 c 0,43,44
EndSplineSet
EndChar

StartChar: thorn
Encoding: 254 254 192
Width: 615
Flags: W
LayerCount: 2
Fore
SplineSet
80 700 m 1,0,-1
 168 700 l 1,1,-1
 168 435 l 1,2,3
 191 484 191 484 238.5 512 c 128,-1,4
 286 540 286 540 350 540 c 0,5,6
 400 540 400 540 441 523.5 c 128,-1,7
 482 507 482 507 510.5 474.5 c 128,-1,8
 539 442 539 442 554.5 393 c 128,-1,9
 570 344 570 344 570 280 c 2,10,-1
 570 260 l 2,11,12
 570 193 570 193 554 142.5 c 128,-1,13
 538 92 538 92 509 58 c 128,-1,14
 480 24 480 24 439.5 7 c 128,-1,15
 399 -10 399 -10 350 -10 c 0,16,17
 282 -10 282 -10 236.5 20 c 128,-1,18
 191 50 191 50 168 95 c 1,19,-1
 168 -200 l 1,20,-1
 80 -200 l 1,21,-1
 80 700 l 1,0,-1
330 68 m 0,22,23
 362 68 362 68 390 80.5 c 128,-1,24
 418 93 418 93 438.5 117 c 128,-1,25
 459 141 459 141 470.5 177 c 128,-1,26
 482 213 482 213 482 260 c 2,27,-1
 482 280 l 2,28,29
 482 323 482 323 470.5 357 c 128,-1,30
 459 391 459 391 438.5 414.5 c 128,-1,31
 418 438 418 438 390 450 c 128,-1,32
 362 462 362 462 330 462 c 0,33,34
 294 462 294 462 264 450.5 c 128,-1,35
 234 439 234 439 213 418.5 c 128,-1,36
 192 398 192 398 180 370 c 128,-1,37
 168 342 168 342 168 310 c 2,38,-1
 168 230 l 2,39,40
 168 194 168 194 180 164 c 128,-1,41
 192 134 192 134 213 113 c 128,-1,42
 234 92 234 92 264 80 c 128,-1,43
 294 68 294 68 330 68 c 0,22,23
EndSplineSet
EndChar

StartChar: dotlessi
Encoding: 305 305 194
Width: 268
GlyphClass: 2
Flags: W
LayerCount: 2
Fore
SplineSet
90 530 m 1,0,-1
 178 530 l 1,1,-1
 178 0 l 1,2,-1
 90 0 l 1,3,-1
 90 530 l 1,0,-1
EndSplineSet
EndChar

StartChar: Lslash
Encoding: 321 321 195
Width: 590
GlyphClass: 2
Flags: W
LayerCount: 2
Fore
SplineSet
120 272 m 1,0,-1
 20 215 l 1,1,-1
 20 297 l 1,2,-1
 120 354 l 1,3,-1
 120 700 l 1,4,-1
 214 700 l 1,5,-1
 214 408 l 1,6,-1
 390 510 l 1,7,-1
 390 428 l 1,8,-1
 214 326 l 1,9,-1
 214 82 l 1,10,-1
 570 82 l 1,11,-1
 570 0 l 1,12,-1
 120 0 l 1,13,-1
 120 272 l 1,0,-1
EndSplineSet
Position2: "'cpsp' Capital Spacing lookup 0 subtable" dx=5 dy=0 dh=10 dv=0
EndChar

StartChar: lslash
Encoding: 322 322 196
Width: 340
GlyphClass: 2
Flags: W
LayerCount: 2
Fore
SplineSet
255 -5 m 0,0,1
 172 -5 172 -5 136 35 c 128,-1,2
 100 75 100 75 100 165 c 2,3,-1
 100 346 l 1,4,-1
 20 300 l 1,5,-1
 20 378 l 1,6,-1
 100 424 l 1,7,-1
 100 700 l 1,8,-1
 188 700 l 1,9,-1
 188 475 l 1,10,-1
 300 540 l 1,11,-1
 300 462 l 1,12,-1
 188 397 l 1,13,-1
 188 165 l 2,14,15
 188 113 188 113 205 94 c 128,-1,16
 222 75 222 75 265 75 c 0,17,18
 276 75 276 75 284 75.5 c 128,-1,19
 292 76 292 76 300 77 c 1,20,-1
 300 -1 l 1,21,22
 292 -3 292 -3 277.5 -4 c 128,-1,23
 263 -5 263 -5 255 -5 c 0,0,1
EndSplineSet
EndChar

StartChar: OE
Encoding: 338 338 197
Width: 1090
GlyphClass: 2
Flags: W
LayerCount: 2
Fore
SplineSet
370 -10 m 0,0,1
 310 -10 310 -10 254 10.5 c 128,-1,2
 198 31 198 31 155 74 c 128,-1,3
 112 117 112 117 86 184 c 128,-1,4
 60 251 60 251 60 345 c 2,5,-1
 60 365 l 2,6,7
 60 455 60 455 86 520 c 128,-1,8
 112 585 112 585 155 627.5 c 128,-1,9
 198 670 198 670 254 690 c 128,-1,10
 310 710 310 710 370 710 c 0,11,12
 433 710 433 710 488 689 c 128,-1,13
 543 668 543 668 580 623 c 1,14,-1
 580 700 l 1,15,-1
 1030 700 l 1,16,-1
 1030 618 l 1,17,-1
 674 618 l 1,18,-1
 674 401 l 1,19,-1
 1000 401 l 1,20,-1
 1000 319 l 1,21,-1
 674 319 l 1,22,-1
 674 82 l 1,23,-1
 1030 82 l 1,24,-1
 1030 0 l 1,25,-1
 580 0 l 1,26,-1
 580 78 l 1,27,28
 543 31 543 31 488 10.5 c 128,-1,29
 433 -10 433 -10 370 -10 c 0,0,1
370 74 m 256,30,31
 411 74 411 74 449 89 c 128,-1,32
 487 104 487 104 516 136.5 c 128,-1,33
 545 169 545 169 562.5 220.5 c 128,-1,34
 580 272 580 272 580 345 c 2,35,-1
 580 365 l 2,36,37
 580 434 580 434 562.5 483.5 c 128,-1,38
 545 533 545 533 516 564.5 c 128,-1,39
 487 596 487 596 449 611 c 128,-1,40
 411 626 411 626 370 626 c 256,41,42
 329 626 329 626 291 611 c 128,-1,43
 253 596 253 596 224 564.5 c 128,-1,44
 195 533 195 533 177.5 483.5 c 128,-1,45
 160 434 160 434 160 365 c 2,46,-1
 160 345 l 2,47,48
 160 272 160 272 177.5 220.5 c 128,-1,49
 195 169 195 169 224 136.5 c 128,-1,50
 253 104 253 104 291 89 c 128,-1,51
 329 74 329 74 370 74 c 256,30,31
EndSplineSet
Position2: "'cpsp' Capital Spacing lookup 0 subtable" dx=5 dy=0 dh=10 dv=0
EndChar

StartChar: oe
Encoding: 339 339 198
Width: 1000
GlyphClass: 2
Flags: W
LayerCount: 2
Fore
SplineSet
300 -10 m 0,0,1
 249 -10 249 -10 203 6.5 c 128,-1,2
 157 23 157 23 122 56.5 c 128,-1,3
 87 90 87 90 66 141 c 128,-1,4
 45 192 45 192 45 260 c 2,5,-1
 45 280 l 2,6,7
 45 344 45 344 66 393 c 128,-1,8
 87 442 87 442 122 474.5 c 128,-1,9
 157 507 157 507 203 523.5 c 128,-1,10
 249 540 249 540 300 540 c 0,11,12
 366 540 366 540 421 512 c 128,-1,13
 476 484 476 484 508 428 c 1,14,15
 539 485 539 485 592 512.5 c 128,-1,16
 645 540 645 540 710 540 c 0,17,18
 827 540 827 540 891 476 c 128,-1,19
 955 412 955 412 955 295 c 2,20,-1
 955 239 l 1,21,-1
 553 239 l 1,22,23
 553 192 553 192 568 160 c 128,-1,24
 583 128 583 128 607 108 c 128,-1,25
 631 88 631 88 660.5 79 c 128,-1,26
 690 70 690 70 720 70 c 0,27,28
 780 70 780 70 812.5 90 c 128,-1,29
 845 110 845 110 859 145 c 1,30,-1
 945 145 l 1,31,32
 937 107 937 107 916.5 78 c 128,-1,33
 896 49 896 49 866.5 29.5 c 128,-1,34
 837 10 837 10 799.5 0 c 128,-1,35
 762 -10 762 -10 720 -10 c 0,36,37
 652 -10 652 -10 596.5 18 c 128,-1,38
 541 46 541 46 509 106 c 1,39,40
 477 47 477 47 422 18.5 c 128,-1,41
 367 -10 367 -10 300 -10 c 0,0,1
300 70 m 256,42,43
 330 70 330 70 360 80.5 c 128,-1,44
 390 91 390 91 413 113.5 c 128,-1,45
 436 136 436 136 450.5 172 c 128,-1,46
 465 208 465 208 465 260 c 2,47,-1
 465 280 l 2,48,49
 465 328 465 328 450.5 362 c 128,-1,50
 436 396 436 396 413 418 c 128,-1,51
 390 440 390 440 360 450 c 128,-1,52
 330 460 330 460 300 460 c 256,53,54
 270 460 270 460 240 450 c 128,-1,55
 210 440 210 440 187 418 c 128,-1,56
 164 396 164 396 149.5 362 c 128,-1,57
 135 328 135 328 135 280 c 2,58,-1
 135 260 l 2,59,60
 135 208 135 208 149.5 172 c 128,-1,61
 164 136 164 136 187 113.5 c 128,-1,62
 210 91 210 91 240 80.5 c 128,-1,63
 270 70 270 70 300 70 c 256,42,43
715 460 m 0,64,65
 684 460 684 460 655 451.5 c 128,-1,66
 626 443 626 443 603.5 424.5 c 128,-1,67
 581 406 581 406 567 378 c 128,-1,68
 553 350 553 350 553 311 c 1,69,-1
 872 311 l 1,70,71
 871 352 871 352 858.5 380.5 c 128,-1,72
 846 409 846 409 825 426.5 c 128,-1,73
 804 444 804 444 775.5 452 c 128,-1,74
 747 460 747 460 715 460 c 0,64,65
EndSplineSet
EndChar

StartChar: florin
Encoding: 402 402 204
Width: 370
GlyphClass: 2
Flags: W
LayerCount: 2
Fore
SplineSet
48 -210 m 0,0,1
 40 -210 40 -210 24 -209.5 c 128,-1,2
 8 -209 8 -209 -7 -207 c 1,3,-1
 -7 -127 l 1,4,5
 1 -129 1 -129 15.5 -129.5 c 128,-1,6
 30 -130 30 -130 38 -130 c 0,7,8
 76 -130 76 -130 93 -111.5 c 128,-1,9
 110 -93 110 -93 110 -45 c 2,10,-1
 110 452 l 1,11,-1
 35 452 l 1,12,-1
 35 530 l 1,13,-1
 110 530 l 1,14,-1
 110 540 l 2,15,16
 110 623 110 623 148.5 664 c 128,-1,17
 187 705 187 705 270 705 c 0,18,19
 300 705 300 705 345 702 c 1,20,-1
 345 622 l 1,21,22
 330 624 330 624 312.5 624.5 c 128,-1,23
 295 625 295 625 280 625 c 0,24,25
 234 625 234 625 216 606.5 c 128,-1,26
 198 588 198 588 198 540 c 2,27,-1
 198 530 l 1,28,-1
 335 530 l 1,29,-1
 335 452 l 1,30,-1
 198 452 l 1,31,-1
 198 -45 l 2,32,33
 198 -210 198 -210 48 -210 c 0,0,1
EndSplineSet
EndChar

StartChar: uni0237
Encoding: 567 567 205
Width: 268
GlyphClass: 2
Flags: W
LayerCount: 2
Fore
SplineSet
18 -210 m 0,0,1
 7 -210 7 -210 -7 -209.5 c 128,-1,2
 -21 -209 -21 -209 -32 -207 c 1,3,-1
 -32 -127 l 1,4,5
 -24 -129 -24 -129 -14.5 -129.5 c 128,-1,6
 -5 -130 -5 -130 3 -130 c 0,7,8
 28 -130 28 -130 45 -124.5 c 128,-1,9
 62 -119 62 -119 72 -104.5 c 128,-1,10
 82 -90 82 -90 86 -65 c 128,-1,11
 90 -40 90 -40 90 0 c 2,12,-1
 90 530 l 1,13,-1
 178 530 l 1,14,-1
 178 0 l 2,15,16
 178 -62 178 -62 169.5 -102.5 c 128,-1,17
 161 -143 161 -143 142 -167 c 128,-1,18
 123 -191 123 -191 92.5 -200.5 c 128,-1,19
 62 -210 62 -210 18 -210 c 0,0,1
EndSplineSet
EndChar

StartChar: circumflex
Encoding: 710 710 207
Width: 350
Flags: W
LayerCount: 2
Fore
SplineSet
130 740 m 1,0,-1
 220 740 l 1,1,-1
 330 580 l 1,2,-1
 260 580 l 1,3,-1
 175 671 l 1,4,-1
 90 580 l 1,5,-1
 20 580 l 1,6,-1
 130 740 l 1,0,-1
EndSplineSet
EndChar

StartChar: caron
Encoding: 711 711 208
Width: 350
Flags: W
LayerCount: 2
Fore
SplineSet
20 740 m 1,0,-1
 90 740 l 1,1,-1
 175 649 l 1,2,-1
 260 740 l 1,3,-1
 330 740 l 1,4,-1
 220 580 l 1,5,-1
 130 580 l 1,6,-1
 20 740 l 1,0,-1
EndSplineSet
EndChar

StartChar: dotaccent
Encoding: 729 729 209
Width: 160
Flags: W
LayerCount: 2
Fore
SplineSet
80 600 m 256,0,1
 54 600 54 600 37 617 c 128,-1,2
 20 634 20 634 20 660 c 256,3,4
 20 686 20 686 37 703 c 128,-1,5
 54 720 54 720 80 720 c 256,6,7
 106 720 106 720 123 703 c 128,-1,8
 140 686 140 686 140 660 c 256,9,10
 140 634 140 634 123 617 c 128,-1,11
 106 600 106 600 80 600 c 256,0,1
EndSplineSet
EndChar

StartChar: ring
Encoding: 730 730 210
Width: 270
Flags: W
LayerCount: 2
Fore
SplineSet
135 575 m 256,0,1
 111 575 111 575 90 583 c 128,-1,2
 69 591 69 591 53.5 605 c 128,-1,3
 38 619 38 619 29 638 c 128,-1,4
 20 657 20 657 20 680 c 0,5,6
 20 702 20 702 29 721.5 c 128,-1,7
 38 741 38 741 53.5 755 c 128,-1,8
 69 769 69 769 90 777 c 128,-1,9
 111 785 111 785 135 785 c 256,10,11
 159 785 159 785 180 777 c 128,-1,12
 201 769 201 769 216.5 755 c 128,-1,13
 232 741 232 741 241 721.5 c 128,-1,14
 250 702 250 702 250 680 c 0,15,16
 250 657 250 657 241 638 c 128,-1,17
 232 619 232 619 216.5 605 c 128,-1,18
 201 591 201 591 180 583 c 128,-1,19
 159 575 159 575 135 575 c 256,0,1
135 633 m 256,20,21
 156 633 156 633 169 646 c 128,-1,22
 182 659 182 659 182 680 c 256,23,24
 182 701 182 701 169 714 c 128,-1,25
 156 727 156 727 135 727 c 256,26,27
 114 727 114 727 101 714 c 128,-1,28
 88 701 88 701 88 680 c 256,29,30
 88 659 88 659 101 646 c 128,-1,31
 114 633 114 633 135 633 c 256,20,21
EndSplineSet
EndChar

StartChar: tilde
Encoding: 732 732 211
Width: 340
Flags: W
LayerCount: 2
Fore
SplineSet
230 600 m 0,0,1
 207 600 207 600 190.5 607 c 128,-1,2
 174 614 174 614 160.5 623 c 128,-1,3
 147 632 147 632 135 639 c 128,-1,4
 123 646 123 646 110 646 c 0,5,6
 99 646 99 646 92 639.5 c 128,-1,7
 85 633 85 633 81 625 c 0,8,9
 77 616 77 616 75 605 c 1,10,-1
 20 620 l 1,11,12
 26 648 26 648 37 670 c 0,13,14
 47 689 47 689 64 704.5 c 128,-1,15
 81 720 81 720 110 720 c 0,16,17
 132 720 132 720 149 713 c 128,-1,18
 166 706 166 706 179.5 697 c 128,-1,19
 193 688 193 688 205 681 c 128,-1,20
 217 674 217 674 230 674 c 0,21,22
 241 674 241 674 248 680 c 128,-1,23
 255 686 255 686 259 694 c 0,24,25
 263 703 263 703 265 715 c 1,26,-1
 320 700 l 1,27,28
 314 672 314 672 303 650 c 0,29,30
 293 631 293 631 275.5 615.5 c 128,-1,31
 258 600 258 600 230 600 c 0,0,1
EndSplineSet
EndChar

StartChar: hungarumlaut
Encoding: 733 733 212
Width: 520
Flags: W
LayerCount: 2
Fore
SplineSet
52 580 m 1,0,-1
 162 740 l 1,1,-1
 272 740 l 1,2,-1
 122 580 l 1,3,-1
 52 580 l 1,0,-1
232 580 m 1,4,-1
 362 740 l 1,5,-1
 472 740 l 1,6,-1
 302 580 l 1,7,-1
 232 580 l 1,4,-1
EndSplineSet
EndChar

StartChar: uni0402
Encoding: 1026 1026 214
Width: 820
GlyphClass: 2
Flags: W
LayerCount: 2
Fore
SplineSet
263 618 m 1,0,-1
 20 618 l 1,1,-1
 20 700 l 1,2,-1
 600 700 l 1,3,-1
 600 618 l 1,4,-1
 357 618 l 1,5,-1
 357 392 l 1,6,7
 383 409 383 409 431 423 c 128,-1,8
 479 437 479 437 540 437 c 0,9,10
 657 437 657 437 716 381 c 128,-1,11
 775 325 775 325 775 226 c 2,12,-1
 775 206 l 2,13,14
 775 107 775 107 716 51 c 128,-1,15
 657 -5 657 -5 540 -5 c 0,16,17
 532 -5 532 -5 515 -4.5 c 128,-1,18
 498 -4 498 -4 490 -2 c 1,19,-1
 490 82 l 1,20,21
 498 80 498 80 510 79.5 c 128,-1,22
 522 79 522 79 530 79 c 0,23,24
 610 79 610 79 645.5 111.5 c 128,-1,25
 681 144 681 144 681 206 c 2,26,-1
 681 226 l 2,27,28
 681 288 681 288 645.5 320.5 c 128,-1,29
 610 353 610 353 530 353 c 0,30,31
 469 353 469 353 426 338 c 128,-1,32
 383 323 383 323 357 306 c 1,33,-1
 357 0 l 1,34,-1
 263 0 l 1,35,-1
 263 618 l 1,0,-1
EndSplineSet
Position2: "'cpsp' Capital Spacing lookup 0 subtable" dx=5 dy=0 dh=10 dv=0
EndChar

StartChar: uni0404
Encoding: 1028 1028 216
Width: 680
GlyphClass: 2
Flags: W
LayerCount: 2
Fore
SplineSet
355 -10 m 0,0,1
 296 -10 296 -10 243 9 c 128,-1,2
 190 28 190 28 149 70.5 c 128,-1,3
 108 113 108 113 84 180.5 c 128,-1,4
 60 248 60 248 60 345 c 2,5,-1
 60 365 l 2,6,7
 60 458 60 458 84 524 c 128,-1,8
 108 590 108 590 149 631 c 128,-1,9
 190 672 190 672 243 691 c 128,-1,10
 296 710 296 710 355 710 c 0,11,12
 412 710 412 710 459.5 695 c 128,-1,13
 507 680 507 680 543 652 c 128,-1,14
 579 624 579 624 601.5 583 c 128,-1,15
 624 542 624 542 630 490 c 1,16,-1
 530 490 l 1,17,18
 516 558 516 558 471 592 c 128,-1,19
 426 626 426 626 355 626 c 0,20,21
 320 626 320 626 286.5 615 c 128,-1,22
 253 604 253 604 226 577 c 128,-1,23
 199 550 199 550 181 505.5 c 128,-1,24
 163 461 163 461 160 395 c 1,25,-1
 440 395 l 1,26,-1
 440 315 l 1,27,-1
 160 315 l 1,28,29
 164 244 164 244 183 198 c 128,-1,30
 202 152 202 152 229.5 124 c 128,-1,31
 257 96 257 96 290 85 c 128,-1,32
 323 74 323 74 355 74 c 0,33,34
 433 74 433 74 477 112 c 128,-1,35
 521 150 521 150 530 210 c 1,36,-1
 630 210 l 1,37,38
 622 152 622 152 598 110.5 c 128,-1,39
 574 69 574 69 537.5 42 c 128,-1,40
 501 15 501 15 454.5 2.5 c 128,-1,41
 408 -10 408 -10 355 -10 c 0,0,1
EndSplineSet
Position2: "'cpsp' Capital Spacing lookup 0 subtable" dx=5 dy=0 dh=10 dv=0
EndChar

StartChar: uni0409
Encoding: 1033 1033 221
Width: 1055
GlyphClass: 2
Flags: W
LayerCount: 2
Fore
SplineSet
55 -10 m 0,0,1
 40 -10 40 -10 25 -7 c 1,2,-1
 25 85 l 1,3,4
 30 84 30 84 40 84 c 0,5,6
 60 84 60 84 75.5 90.5 c 128,-1,7
 91 97 91 97 102.5 114.5 c 128,-1,8
 114 132 114 132 122.5 164 c 128,-1,9
 131 196 131 196 136 246.5 c 128,-1,10
 141 297 141 297 143 369 c 128,-1,11
 145 441 145 441 145 540 c 2,12,-1
 145 700 l 1,13,-1
 605 700 l 1,14,-1
 605 420 l 1,15,-1
 740 420 l 2,16,17
 809 420 809 420 860 405 c 128,-1,18
 911 390 911 390 944.5 362 c 128,-1,19
 978 334 978 334 994 295.5 c 128,-1,20
 1010 257 1010 257 1010 210 c 256,21,22
 1010 163 1010 163 994 124.5 c 128,-1,23
 978 86 978 86 944.5 58 c 128,-1,24
 911 30 911 30 860 15 c 128,-1,25
 809 0 809 0 740 0 c 2,26,-1
 511 0 l 1,27,-1
 511 618 l 1,28,-1
 239 618 l 1,29,-1
 239 520 l 2,30,31
 239 409 239 409 234 326.5 c 128,-1,32
 229 244 229 244 219 185 c 128,-1,33
 209 126 209 126 194 88 c 128,-1,34
 179 50 179 50 158.5 28.5 c 128,-1,35
 138 7 138 7 112 -1.5 c 128,-1,36
 86 -10 86 -10 55 -10 c 0,0,1
735 82 m 2,37,38
 835 82 835 82 875.5 115.5 c 128,-1,39
 916 149 916 149 916 210 c 256,40,41
 916 271 916 271 875.5 304.5 c 128,-1,42
 835 338 835 338 735 338 c 2,43,-1
 605 338 l 1,44,-1
 605 82 l 1,45,-1
 735 82 l 2,37,38
EndSplineSet
Position2: "'cpsp' Capital Spacing lookup 0 subtable" dx=5 dy=0 dh=10 dv=0
EndChar

StartChar: uni040A
Encoding: 1034 1034 222
Width: 1105
GlyphClass: 2
Flags: W
LayerCount: 2
Fore
SplineSet
100 700 m 1,0,-1
 194 700 l 1,1,-1
 194 411 l 1,2,-1
 556 411 l 1,3,-1
 556 700 l 1,4,-1
 650 700 l 1,5,-1
 650 411 l 1,6,-1
 790 411 l 2,7,8
 932 411 932 411 996 355.5 c 128,-1,9
 1060 300 1060 300 1060 206 c 0,10,11
 1060 111 1060 111 996 55.5 c 128,-1,12
 932 0 932 0 790 0 c 2,13,-1
 556 0 l 1,14,-1
 556 329 l 1,15,-1
 194 329 l 1,16,-1
 194 0 l 1,17,-1
 100 0 l 1,18,-1
 100 700 l 1,0,-1
785 82 m 2,19,20
 835 82 835 82 869.5 90.5 c 128,-1,21
 904 99 904 99 925.5 115 c 128,-1,22
 947 131 947 131 956.5 154 c 128,-1,23
 966 177 966 177 966 206 c 0,24,25
 966 234 966 234 956.5 257 c 128,-1,26
 947 280 947 280 925.5 296 c 128,-1,27
 904 312 904 312 869.5 320.5 c 128,-1,28
 835 329 835 329 785 329 c 2,29,-1
 650 329 l 1,30,-1
 650 82 l 1,31,-1
 785 82 l 2,19,20
EndSplineSet
Position2: "'cpsp' Capital Spacing lookup 0 subtable" dx=5 dy=0 dh=10 dv=0
EndChar

StartChar: uni040B
Encoding: 1035 1035 223
Width: 835
GlyphClass: 2
Flags: W
LayerCount: 2
Fore
SplineSet
263 618 m 1,0,-1
 20 618 l 1,1,-1
 20 700 l 1,2,-1
 600 700 l 1,3,-1
 600 618 l 1,4,-1
 357 618 l 1,5,-1
 357 392 l 1,6,7
 383 409 383 409 431 423 c 128,-1,8
 479 437 479 437 540 437 c 0,9,10
 663 437 663 437 719 381.5 c 128,-1,11
 775 326 775 326 775 205 c 2,12,-1
 775 0 l 1,13,-1
 681 0 l 1,14,-1
 681 205 l 2,15,16
 681 284 681 284 646 318.5 c 128,-1,17
 611 353 611 353 530 353 c 0,18,19
 468 353 468 353 425.5 338 c 128,-1,20
 383 323 383 323 357 306 c 1,21,-1
 357 0 l 1,22,-1
 263 0 l 1,23,-1
 263 618 l 1,0,-1
EndSplineSet
Position2: "'cpsp' Capital Spacing lookup 0 subtable" dx=5 dy=0 dh=10 dv=0
EndChar

StartChar: uni040F
Encoding: 1039 1039 226
Width: 740
GlyphClass: 2
Flags: W
LayerCount: 2
Fore
SplineSet
325 0 m 1,0,-1
 100 0 l 1,1,-1
 100 700 l 1,2,-1
 194 700 l 1,3,-1
 194 82 l 1,4,-1
 546 82 l 1,5,-1
 546 700 l 1,6,-1
 640 700 l 1,7,-1
 640 0 l 1,8,-1
 415 0 l 1,9,-1
 415 -130 l 1,10,-1
 325 -130 l 1,11,-1
 325 0 l 1,0,-1
EndSplineSet
Position2: "'cpsp' Capital Spacing lookup 0 subtable" dx=5 dy=0 dh=10 dv=0
EndChar

StartChar: uni0410
Encoding: 1040 1040 227
Width: 670
GlyphClass: 2
Flags: W
LayerCount: 2
Fore
SplineSet
462 222 m 1,0,-1
 174 146 l 1,1,-1
 118 0 l 1,2,-1
 20 0 l 1,3,-1
 288 700 l 1,4,-1
 382 700 l 1,5,-1
 650 0 l 1,6,-1
 548 0 l 1,7,-1
 462 222 l 1,0,-1
212 242 m 5,8,-1
 432 308 l 1,9,-1
 333 580 l 1,10,-1
 212 242 l 5,8,-1
EndSplineSet
Position2: "'cpsp' Capital Spacing lookup 0 subtable" dx=5 dy=0 dh=10 dv=0
EndChar

StartChar: uni0411
Encoding: 1041 1041 228
Width: 665
GlyphClass: 2
Flags: W
LayerCount: 2
Fore
SplineSet
100 700 m 1,0,-1
 555 700 l 1,1,-1
 555 619 l 1,2,-1
 194 619 l 1,3,-1
 194 420 l 1,4,-1
 350 420 l 2,5,6
 419 420 419 420 470 405 c 128,-1,7
 521 390 521 390 554.5 362 c 128,-1,8
 588 334 588 334 604 295.5 c 128,-1,9
 620 257 620 257 620 210 c 256,10,11
 620 163 620 163 604 124.5 c 128,-1,12
 588 86 588 86 554.5 58 c 128,-1,13
 521 30 521 30 470 15 c 128,-1,14
 419 0 419 0 350 0 c 2,15,-1
 100 0 l 1,16,-1
 100 700 l 1,0,-1
345 82 m 2,17,18
 445 82 445 82 485.5 115.5 c 128,-1,19
 526 149 526 149 526 210 c 256,20,21
 526 271 526 271 485.5 304.5 c 128,-1,22
 445 338 445 338 345 338 c 2,23,-1
 194 338 l 1,24,-1
 194 82 l 1,25,-1
 345 82 l 2,17,18
EndSplineSet
Position2: "'cpsp' Capital Spacing lookup 0 subtable" dx=5 dy=0 dh=10 dv=0
EndChar

StartChar: uni0412
Encoding: 1042 1042 229
Width: 670
GlyphClass: 2
Flags: W
LayerCount: 2
Fore
SplineSet
377 620 m 1,0,-1
 491 510 l 256,1,2
 491 486 491 486 486.5 465.5 c 128,-1,3
 482 445 482 445 465 430 c 128,-1,4
 448 415 448 415 420 407 c 128,-1,5
 392 399 392 399 350 399 c 2,6,-1
 194 399 l 1,7,-1
 194 618 l 1,8,-1
 350 618 l 2,9,-1
 377 620 l 1,0,-1
423 696 m 0,10,-1
 350 700 l 2,11,-1
 100 700 l 1,12,-1
 100 0 l 1,13,-1
 370 0 l 2,14,15
 437 0 437 0 484.5 15 c 128,-1,16
 532 30 532 30 562 56.5 c 128,-1,17
 592 83 592 83 606 119 c 128,-1,18
 620 155 620 155 620 198 c 0,19,20
 620 266 620 266 584 308.5 c 128,-1,21
 548 351 548 351 486 365 c 1,22,23
 530 382 530 382 558.5 428 c 128,-1,24
 587 474 587 474 587 528 c 0,25,-1
 423 696 l 0,10,-1
370 82 m 2,26,27
 194 82 l 1,28,-1
 194 321 l 5,29,-1
 369 321 l 6,30,31
 414 321 414 321 444.5 312.5 c 128,-1,32
 475 304 475 304 493 288.5 c 128,-1,33
 511 273 511 273 518.5 250.5 c 128,-1,34
 526 228 526 228 526 201 c 256,35,36
 526 174 526 174 518.5 152 c 128,-1,37
 511 130 511 130 493 114.5 c 128,-1,38
 475 99 475 99 445 90.5 c 128,-1,39
 415 82 415 82 370 82 c 2,26,27
EndSplineSet
Position2: "'cpsp' Capital Spacing lookup 0 subtable" dx=5 dy=0 dh=10 dv=0
EndChar

StartChar: uni0413
Encoding: 1043 1043 230
Width: 560
GlyphClass: 2
Flags: W
LayerCount: 2
Fore
SplineSet
100 700 m 1,0,-1
 540 700 l 1,1,-1
 540 618 l 1,2,-1
 194 618 l 1,3,-1
 194 0 l 1,4,-1
 100 0 l 1,5,-1
 100 700 l 1,0,-1
EndSplineSet
Position2: "'cpsp' Capital Spacing lookup 0 subtable" dx=5 dy=0 dh=10 dv=0
EndChar

StartChar: uni0414
Encoding: 1044 1044 231
Width: 730
GlyphClass: 2
Flags: W
LayerCount: 2
Fore
SplineSet
20 82 m 1,0,-1
 95 82 l 1,1,2
 114 120 114 120 127 176 c 128,-1,3
 140 232 140 232 147 296.5 c 128,-1,4
 154 361 154 361 157 429.5 c 128,-1,5
 160 498 160 498 160 560 c 2,6,-1
 160 700 l 1,7,-1
 615 700 l 1,8,-1
 615 82 l 1,9,-1
 700 82 l 1,10,-1
 700 -130 l 1,11,-1
 610 -130 l 1,12,-1
 610 0 l 1,13,-1
 110 0 l 1,14,-1
 110 -130 l 1,15,-1
 20 -130 l 1,16,-1
 20 82 l 1,0,-1
521 82 m 1,17,-1
 521 618 l 1,18,-1
 252 618 l 1,19,-1
 252 540 l 2,20,21
 252 388 252 388 238.5 277 c 128,-1,22
 225 166 225 166 195 82 c 1,23,-1
 521 82 l 1,17,-1
EndSplineSet
Position2: "'cpsp' Capital Spacing lookup 0 subtable" dx=5 dy=0 dh=10 dv=0
EndChar

StartChar: uni0415
Encoding: 1045 1045 232
Width: 610
GlyphClass: 2
Flags: W
LayerCount: 2
Fore
SplineSet
100 700 m 1,0,-1
 550 700 l 1,1,-1
 550 618 l 1,2,-1
 194 618 l 1,3,-1
 194 401 l 1,4,-1
 520 401 l 1,5,-1
 520 319 l 1,6,-1
 194 319 l 1,7,-1
 194 182 l 1,8,-1
 294 80 l 1,9,-1
 550 82 l 1,10,-1
 550 0 l 1,11,-1
 238 0 l 5,12,-1
 100 144 l 1,13,-1
 100 700 l 1,0,-1
EndSplineSet
Position2: "'cpsp' Capital Spacing lookup 0 subtable" dx=5 dy=0 dh=10 dv=0
EndChar

StartChar: uni0416
Encoding: 1046 1046 233
Width: 960
GlyphClass: 2
Flags: W
LayerCount: 2
Fore
SplineSet
288 364 m 1,0,-1
 40 700 l 1,1,-1
 144 700 l 1,2,-1
 363 399 l 1,3,-1
 433 399 l 1,4,-1
 433 700 l 1,5,-1
 527 700 l 1,6,-1
 527 399 l 1,7,-1
 597 399 l 1,8,-1
 818 700 l 1,9,-1
 920 700 l 1,10,-1
 672 367 l 1,11,-1
 930 0 l 1,12,-1
 820 0 l 1,13,-1
 597 321 l 1,14,-1
 527 321 l 1,15,-1
 527 0 l 1,16,-1
 433 0 l 1,17,-1
 433 321 l 1,18,-1
 363 321 l 1,19,-1
 138 0 l 1,20,-1
 30 0 l 1,21,-1
 288 364 l 1,0,-1
EndSplineSet
Position2: "'cpsp' Capital Spacing lookup 0 subtable" dx=5 dy=0 dh=10 dv=0
EndChar

StartChar: uni0417
Encoding: 1047 1047 234
Width: 640
GlyphClass: 2
Flags: W
LayerCount: 2
Fore
SplineSet
321 -10 m 0,0,1
 259 -10 259 -10 211 5.5 c 128,-1,2
 163 21 163 21 129 49 c 128,-1,3
 95 77 95 77 75 115.5 c 128,-1,4
 55 154 55 154 51 200 c 1,5,-1
 145 200 l 1,6,7
 153 143 153 143 199 108.5 c 128,-1,8
 245 74 245 74 321 74 c 0,9,10
 414 74 414 74 455.5 107 c 128,-1,11
 497 140 497 140 497 196 c 0,12,13
 497 250 497 250 457 285.5 c 128,-1,14
 417 321 417 321 326 321 c 2,15,-1
 231 321 l 1,16,-1
 231 399 l 1,17,-1
 326 399 l 2,18,19
 401 399 401 399 435.5 425.5 c 128,-1,20
 470 452 470 452 470 502 c 256,21,22
 394 572 l 4,23,-1
 334 624 l 0,24,25
 254 624 254 624 210 594.5 c 128,-1,26
 166 565 166 565 160 515 c 1,27,-1
 66 515 l 1,28,29
 70 557 70 557 87.5 593 c 128,-1,30
 105 629 105 629 137 655 c 128,-1,31
 169 681 169 681 236.5 695.5 c 128,-1,32
 304 710 304 710 364 710 c 0,33,34
 480 606 l 0,35,-1
 566 536 l 0,36,37
 566 481 566 481 534.5 431.5 c 128,-1,38
 503 382 503 382 451 365 c 1,39,40
 514 350 514 350 552.5 307 c 128,-1,41
 591 264 591 264 591 196 c 0,42,43
 591 151 591 151 573.5 113.5 c 128,-1,44
 556 76 556 76 521.5 48.5 c 128,-1,45
 487 21 487 21 437 5.5 c 128,-1,46
 387 -10 387 -10 321 -10 c 0,0,1
EndSplineSet
Position2: "'cpsp' Capital Spacing lookup 0 subtable" dx=5 dy=0 dh=10 dv=0
EndChar

StartChar: uni0418
Encoding: 1048 1048 235
Width: 760
GlyphClass: 2
Flags: W
LayerCount: 2
Fore
SplineSet
100 700 m 1,0,-1
 194 700 l 1,1,-1
 194 150 l 1,2,-1
 566 700 l 1,3,-1
 660 700 l 1,4,-1
 660 0 l 1,5,-1
 566 0 l 1,6,-1
 566 550 l 1,7,-1
 194 0 l 1,8,-1
 100 0 l 1,9,-1
 100 700 l 1,0,-1
EndSplineSet
Position2: "'cpsp' Capital Spacing lookup 0 subtable" dx=5 dy=0 dh=10 dv=0
EndChar

StartChar: uni041A
Encoding: 1050 1050 237
Width: 700
GlyphClass: 2
Flags: W
LayerCount: 2
Fore
SplineSet
100 700 m 1,0,-1
 194 700 l 1,1,-1
 194 399 l 1,2,-1
 274 399 l 1,3,-1
 548 700 l 1,4,-1
 660 700 l 1,5,-1
 354 366 l 1,6,-1
 670 0 l 1,7,-1
 550 0 l 1,8,-1
 274 321 l 1,9,-1
 194 321 l 1,10,-1
 194 0 l 1,11,-1
 100 0 l 1,12,-1
 100 700 l 1,0,-1
EndSplineSet
Position2: "'cpsp' Capital Spacing lookup 0 subtable" dx=5 dy=0 dh=10 dv=0
EndChar

StartChar: uni041B
Encoding: 1051 1051 238
Width: 715
GlyphClass: 2
Flags: W
LayerCount: 2
Fore
SplineSet
55 -10 m 0,0,1
 40 -10 40 -10 25 -7 c 1,2,-1
 25 85 l 1,3,4
 30 84 30 84 40 84 c 0,5,6
 60 84 60 84 75.5 90.5 c 128,-1,7
 91 97 91 97 102.5 114.5 c 128,-1,8
 114 132 114 132 122.5 164 c 128,-1,9
 131 196 131 196 136 246.5 c 128,-1,10
 141 297 141 297 143 369 c 128,-1,11
 145 441 145 441 145 540 c 2,12,-1
 145 700 l 1,13,-1
 615 700 l 1,14,-1
 615 0 l 1,15,-1
 521 0 l 1,16,-1
 521 618 l 1,17,-1
 239 618 l 1,18,-1
 239 520 l 2,19,20
 239 409 239 409 234 326.5 c 128,-1,21
 229 244 229 244 219 185 c 128,-1,22
 209 126 209 126 194 88 c 128,-1,23
 179 50 179 50 158.5 28.5 c 128,-1,24
 138 7 138 7 112 -1.5 c 128,-1,25
 86 -10 86 -10 55 -10 c 0,0,1
EndSplineSet
Position2: "'cpsp' Capital Spacing lookup 0 subtable" dx=5 dy=0 dh=10 dv=0
EndChar

StartChar: uni041C
Encoding: 1052 1052 239
Width: 860
GlyphClass: 2
Flags: W
LayerCount: 2
Fore
SplineSet
194 530 m 5,0,-1
 194 0 l 1,1,-1
 100 0 l 1,2,-1
 100 700 l 1,3,-1
 198 700 l 1,4,-1
 432 255 l 1,5,-1
 666 700 l 1,6,-1
 760 700 l 1,7,-1
 760 0 l 1,8,-1
 666 0 l 1,9,-1
 666 530 l 1,10,-1
 465 144 l 1,11,-1
 477 0 l 1,12,-1
 381 0 l 1,13,-1
 395 148 l 1,14,-1
 194 530 l 5,0,-1
EndSplineSet
Position2: "'cpsp' Capital Spacing lookup 0 subtable" dx=5 dy=0 dh=10 dv=0
EndChar

StartChar: uni041D
Encoding: 1053 1053 240
Width: 760
GlyphClass: 2
Flags: W
LayerCount: 2
Fore
SplineSet
100 700 m 1,0,-1
 194 700 l 1,1,-1
 193 376 l 5,2,-1
 565 476 l 1,3,-1
 566 700 l 1,4,-1
 660 700 l 1,5,-1
 660 0 l 1,6,-1
 566 0 l 1,7,-1
 563 390 l 1,8,-1
 191 288 l 1,9,-1
 194 0 l 1,10,-1
 100 0 l 1,11,-1
 100 700 l 1,0,-1
EndSplineSet
Position2: "'cpsp' Capital Spacing lookup 0 subtable" dx=5 dy=0 dh=10 dv=0
EndChar

StartChar: uni041E
Encoding: 1054 1054 241
Width: 740
GlyphClass: 2
Flags: W
LayerCount: 2
Fore
SplineSet
370 710 m 17,0,1
 310 710 310 710 254 690 c 128,-1,2
 198 670 198 670 155 627.5 c 128,-1,3
 112 585 112 585 86 520 c 128,-1,4
 60 455 60 455 60 365 c 2,5,-1
 60 345 l 2,6,7
 60 251 60 251 86 184 c 128,-1,8
 112 117 112 117 155 74 c 128,-1,9
 198 31 198 31 254 10.5 c 128,-1,10
 310 -10 310 -10 370 -10 c 256,11,12
 430 -10 430 -10 486 10.5 c 128,-1,13
 542 31 542 31 585 74 c 128,-1,14
 628 117 628 117 654 184 c 128,-1,15
 680 251 680 251 680 345 c 2,16,-1
 680 365 l 2,17,-1
 647 502 l 0,18,-1
 409 706 l 0,19,-1
 370 710 l 17,0,1
370 74 m 256,20,21
 329 74 329 74 291 89 c 128,-1,22
 253 104 253 104 224 136.5 c 128,-1,23
 195 169 195 169 177.5 220.5 c 128,-1,24
 160 272 160 272 160 345 c 2,25,-1
 160 365 l 2,26,27
 160 434 160 434 177.5 483.5 c 128,-1,28
 195 533 195 533 224 564.5 c 128,-1,29
 253 596 253 596 291 611 c 128,-1,30
 329 626 329 626 370 626 c 256,31,-1
 370 626 l 0,32,-1
 370 626 l 4,33,-1
 561 456 l 0,34,-1
 580 365 l 2,35,-1
 580 345 l 2,36,37
 580 272 580 272 562.5 220.5 c 128,-1,38
 545 169 545 169 516 136.5 c 128,-1,39
 487 104 487 104 449 89 c 128,-1,40
 411 74 411 74 370 74 c 256,20,21
EndSplineSet
Position2: "'cpsp' Capital Spacing lookup 0 subtable" dx=5 dy=0 dh=10 dv=0
EndChar

StartChar: uni041F
Encoding: 1055 1055 242
Width: 750
GlyphClass: 2
Flags: W
LayerCount: 2
Fore
SplineSet
100 700 m 1,0,-1
 650 700 l 1,1,-1
 650 0 l 1,2,-1
 556 0 l 1,3,-1
 556 618 l 1,4,-1
 194 618 l 1,5,-1
 194 0 l 1,6,-1
 100 0 l 1,7,-1
 100 700 l 1,0,-1
EndSplineSet
Position2: "'cpsp' Capital Spacing lookup 0 subtable" dx=5 dy=0 dh=10 dv=0
EndChar

StartChar: uni0420
Encoding: 1056 1056 243
Width: 655
GlyphClass: 2
Flags: W
LayerCount: 2
Fore
SplineSet
512.280273438 461.799804688 m 5,0,1
 512 437 512 437 502.969726562 415.599609375 c 4,2,3
 494 395 494 395 472.58984375 380.3203125 c 4,4,5
 452 366 452 366 417.709960938 358.059570312 c 4,6,7
 382.735393406 349.428273912 382.735393406 349.428273912 334.900390625 350.080078125 c 6,8,-1
 194 352 l 1,9,-1
 194 618 l 1,10,-1
 335 618 l 2,11,-1
 512.280273438 461.799804688 l 5,0,1
366 700 m 1,12,-1
 100 700 l 1,13,-1
 100 0 l 1,14,-1
 194 0 l 1,15,-1
 194 270 l 1,16,-1
 340 270 l 2,17,18
 409 270 409 270 460 286 c 128,-1,19
 511 302 511 302 544.5 330.5 c 128,-1,20
 578 359 578 359 594 398.5 c 128,-1,21
 610 438 610 438 610 485 c 256,22,-1
 366 700 l 1,12,-1
EndSplineSet
Position2: "'cpsp' Capital Spacing lookup 0 subtable" dx=5 dy=0 dh=10 dv=0
EndChar

StartChar: uni0421
Encoding: 1057 1057 244
Width: 680
GlyphClass: 2
Flags: W
LayerCount: 2
Fore
SplineSet
243 10.5 m 0,0,-1
 355 -10 l 0,1,2
 408 -10 408 -10 454.5 2.5 c 128,-1,3
 501 15 501 15 537.5 42 c 128,-1,4
 574 69 574 69 598 110.5 c 128,-1,5
 622 152 622 152 630 210 c 1,6,-1
 530 210 l 1,7,8
 521 150 521 150 477 112 c 128,-1,9
 433 74 433 74 355 74 c 0,10,-1
 304 84 l 4,11,-1
 160 345 l 2,12,-1
 160 365 l 2,13,14
 160 437 160 437 176.5 487 c 128,-1,15
 193 537 193 537 220.5 567.5 c 128,-1,16
 248 598 248 598 283 612 c 128,-1,17
 318 626 318 626 355 626 c 0,18,19
 426 626 426 626 471 592 c 128,-1,20
 516 558 516 558 530 490 c 1,21,-1
 630 490 l 1,22,23
 624 542 624 542 601.5 583 c 128,-1,24
 579 624 579 624 543 652 c 128,-1,25
 507 680 507 680 459.5 695 c 128,-1,26
 412 710 412 710 355 710 c 0,27,28
 296 710 296 710 243 689.5 c 128,-1,29
 190 669 190 669 149 627 c 128,-1,30
 108 585 108 585 84 520 c 128,-1,31
 60 455 60 455 60 365 c 2,32,-1
 60 345 l 2,33,-1
 243 10.5 l 0,0,-1
EndSplineSet
Position2: "'cpsp' Capital Spacing lookup 0 subtable" dx=5 dy=0 dh=10 dv=0
EndChar

StartChar: uni0423
Encoding: 1059 1059 246
Width: 670
GlyphClass: 2
Flags: W
LayerCount: 2
Fore
SplineSet
205 -10 m 0,0,1
 194 -10 194 -10 183.5 -9.5 c 128,-1,2
 173 -9 173 -9 165 -8 c 1,3,-1
 165 76 l 1,4,5
 173 75 173 75 183.5 74.5 c 128,-1,6
 194 74 194 74 205 74 c 0,7,8
 226 74 226 74 241 77.5 c 128,-1,9
 256 81 256 81 267.5 90.5 c 128,-1,10
 279 100 279 100 288.5 116 c 128,-1,11
 298 132 298 132 309 158 c 1,12,-1
 20 700 l 1,13,-1
 122 700 l 1,14,-1
 356 255 l 1,15,-1
 554 700 l 1,16,-1
 650 700 l 1,17,-1
 395 137 l 2,18,19
 378 99 378 99 360 71 c 128,-1,20
 342 43 342 43 320 25 c 128,-1,21
 298 7 298 7 270 -1.5 c 128,-1,22
 242 -10 242 -10 205 -10 c 0,0,1
EndSplineSet
Position2: "'cpsp' Capital Spacing lookup 0 subtable" dx=5 dy=0 dh=10 dv=0
EndChar

StartChar: uni0424
Encoding: 1060 1060 247
Width: 860
GlyphClass: 2
Flags: W
LayerCount: 2
Fore
SplineSet
383 43 m 1,0,1
 306 43 306 43 245 65 c 128,-1,2
 184 87 184 87 142 127.5 c 128,-1,3
 100 168 100 168 77.5 224.5 c 128,-1,4
 55 281 55 281 55 350 c 2,5,-1
 55 370 l 2,6,7
 55 431 55 431 77.5 484 c 128,-1,8
 100 537 100 537 142 575 c 128,-1,9
 184 613 184 613 245 635 c 128,-1,10
 306 657 306 657 383 657 c 1,11,-1
 383 730 l 1,12,-1
 477 730 l 1,13,-1
 477 657 l 1,14,15
 554 657 554 657 615 635 c 128,-1,16
 676 613 676 613 718 575 c 128,-1,17
 760 537 760 537 782.5 484 c 128,-1,18
 805 431 805 431 805 370 c 2,19,-1
 805 350 l 2,20,21
 805 281 805 281 782.5 224.5 c 128,-1,22
 760 168 760 168 718 127.5 c 128,-1,23
 676 87 676 87 615 65 c 128,-1,24
 554 43 554 43 477 43 c 1,25,-1
 477 -30 l 1,26,-1
 383 -30 l 1,27,-1
 383 43 l 1,0,1
705 370 m 2,28,29
 705 413 705 413 690 450 c 128,-1,30
 675 487 675 487 646 514.5 c 128,-1,31
 617 542 617 542 574.5 557.5 c 128,-1,32
 532 573 532 573 477 573 c 1,33,-1
 477 127 l 1,34,35
 532 127 532 127 574.5 143 c 128,-1,36
 617 159 617 159 646 188 c 128,-1,37
 675 217 675 217 690 258 c 128,-1,38
 705 299 705 299 705 350 c 2,39,-1
 705 370 l 2,28,29
155 350 m 2,40,41
 155 299 155 299 170 258 c 128,-1,42
 185 217 185 217 214 188 c 128,-1,43
 243 159 243 159 285.5 143 c 128,-1,44
 328 127 328 127 383 127 c 1,45,-1
 383 573 l 1,46,47
 328 573 328 573 285.5 557.5 c 128,-1,48
 243 542 243 542 214 514.5 c 128,-1,49
 185 487 185 487 170 450 c 128,-1,50
 155 413 155 413 155 370 c 2,51,-1
 155 350 l 2,40,41
EndSplineSet
Position2: "'cpsp' Capital Spacing lookup 0 subtable" dx=5 dy=0 dh=10 dv=0
EndChar

StartChar: uni0425
Encoding: 1061 1061 248
Width: 660
GlyphClass: 2
Flags: W
LayerCount: 2
Fore
SplineSet
277 357 m 1,0,-1
 40 700 l 1,1,-1
 144 700 l 1,2,-1
 331 429 l 1,3,-1
 520 700 l 1,4,-1
 620 700 l 1,5,-1
 384 359 l 5,6,-1
 635 -132 l 1,7,-1
 529 -132 l 1,8,-1
 329 288 l 1,9,-1
 132 0 l 1,10,-1
 30 0 l 1,11,-1
 277 357 l 1,0,-1
EndSplineSet
Position2: "'cpsp' Capital Spacing lookup 0 subtable" dx=5 dy=0 dh=10 dv=0
EndChar

StartChar: uni0426
Encoding: 1062 1062 249
Width: 765
GlyphClass: 2
Flags: W
LayerCount: 2
Fore
SplineSet
645 0 m 1,0,-1
 100 0 l 1,1,-1
 100 700 l 1,2,-1
 194 700 l 1,3,-1
 194 82 l 1,4,-1
 546 82 l 1,5,-1
 546 700 l 1,6,-1
 640 700 l 1,7,-1
 640 82 l 1,8,-1
 735 82 l 1,9,-1
 735 -130 l 1,10,-1
 645 -130 l 1,11,-1
 645 0 l 1,0,-1
EndSplineSet
Position2: "'cpsp' Capital Spacing lookup 0 subtable" dx=5 dy=0 dh=10 dv=0
EndChar

StartChar: uni0427
Encoding: 1063 1063 250
Width: 670
GlyphClass: 2
Flags: W
LayerCount: 2
Fore
SplineSet
476 308 m 1,0,1
 450 291 450 291 403 277 c 128,-1,2
 356 263 356 263 295 263 c 0,3,4
 172 263 172 263 116 318.5 c 128,-1,5
 60 374 60 374 60 495 c 2,6,-1
 60 700 l 1,7,-1
 154 700 l 1,8,-1
 154 495 l 2,9,10
 154 416 154 416 189 381.5 c 128,-1,11
 224 347 224 347 305 347 c 0,12,13
 367 347 367 347 408.5 362 c 128,-1,14
 450 377 450 377 476 394 c 1,15,-1
 476 700 l 1,16,-1
 570 700 l 1,17,-1
 570 0 l 1,18,-1
 476 0 l 1,19,-1
 476 308 l 1,0,1
EndSplineSet
Position2: "'cpsp' Capital Spacing lookup 0 subtable" dx=5 dy=0 dh=10 dv=0
EndChar

StartChar: uni0428
Encoding: 1064 1064 251
Width: 970
GlyphClass: 2
Flags: W
LayerCount: 2
Fore
SplineSet
100 700 m 1,0,-1
 194 700 l 1,1,-1
 194 82 l 1,2,-1
 438 82 l 1,3,-1
 438 700 l 1,4,-1
 532 700 l 1,5,-1
 532 82 l 1,6,-1
 776 82 l 1,7,-1
 776 700 l 1,8,-1
 870 700 l 1,9,-1
 870 0 l 1,10,-1
 100 0 l 1,11,-1
 100 700 l 1,0,-1
EndSplineSet
Position2: "'cpsp' Capital Spacing lookup 0 subtable" dx=5 dy=0 dh=10 dv=0
EndChar

StartChar: uni0429
Encoding: 1065 1065 252
Width: 995
GlyphClass: 2
Flags: W
LayerCount: 2
Fore
SplineSet
100 700 m 1,0,-1
 194 700 l 1,1,-1
 194 82 l 1,2,-1
 438 82 l 1,3,-1
 438 700 l 1,4,-1
 532 700 l 1,5,-1
 532 82 l 1,6,-1
 776 82 l 1,7,-1
 776 700 l 1,8,-1
 870 700 l 1,9,-1
 870 82 l 1,10,-1
 965 82 l 1,11,-1
 965 -130 l 1,12,-1
 875 -130 l 1,13,-1
 875 0 l 1,14,-1
 100 0 l 1,15,-1
 100 700 l 1,0,-1
EndSplineSet
Position2: "'cpsp' Capital Spacing lookup 0 subtable" dx=5 dy=0 dh=10 dv=0
EndChar

StartChar: uni042A
Encoding: 1066 1066 253
Width: 735
GlyphClass: 2
Flags: W
LayerCount: 2
Fore
SplineSet
180 618 m 1,0,-1
 20 618 l 1,1,-1
 20 700 l 1,2,-1
 274 700 l 1,3,-1
 274 420 l 1,4,-1
 420 420 l 2,5,6
 489 420 489 420 540 405 c 128,-1,7
 591 390 591 390 624.5 362 c 128,-1,8
 658 334 658 334 674 295.5 c 128,-1,9
 690 257 690 257 690 210 c 256,10,11
 690 163 690 163 674 124.5 c 128,-1,12
 658 86 658 86 624.5 58 c 128,-1,13
 591 30 591 30 540 15 c 128,-1,14
 489 0 489 0 420 0 c 2,15,-1
 180 0 l 1,16,-1
 180 618 l 1,0,-1
415 82 m 2,17,18
 515 82 515 82 555.5 115.5 c 128,-1,19
 596 149 596 149 596 210 c 256,20,21
 596 271 596 271 555.5 304.5 c 128,-1,22
 515 338 515 338 415 338 c 2,23,-1
 274 338 l 1,24,-1
 274 82 l 1,25,-1
 415 82 l 2,17,18
EndSplineSet
Position2: "'cpsp' Capital Spacing lookup 0 subtable" dx=5 dy=0 dh=10 dv=0
EndChar

StartChar: uni042B
Encoding: 1067 1067 254
Width: 890
GlyphClass: 2
Flags: W
LayerCount: 2
Fore
SplineSet
100 700 m 1,0,-1
 194 700 l 1,1,-1
 194 420 l 1,2,-1
 320 420 l 2,3,4
 389 420 389 420 440 405 c 128,-1,5
 491 390 491 390 524.5 362 c 128,-1,6
 558 334 558 334 574 295.5 c 128,-1,7
 590 257 590 257 590 210 c 256,8,9
 590 163 590 163 574 124.5 c 128,-1,10
 558 86 558 86 524.5 58 c 128,-1,11
 491 30 491 30 440 15 c 128,-1,12
 389 0 389 0 320 0 c 2,13,-1
 100 0 l 1,14,-1
 100 700 l 1,0,-1
315 82 m 2,15,16
 415 82 415 82 455.5 115.5 c 128,-1,17
 496 149 496 149 496 210 c 256,18,19
 496 271 496 271 455.5 304.5 c 128,-1,20
 415 338 415 338 315 338 c 2,21,-1
 194 338 l 1,22,-1
 194 82 l 1,23,-1
 315 82 l 2,15,16
696 700 m 1,24,-1
 790 700 l 1,25,-1
 790 0 l 1,26,-1
 696 0 l 1,27,-1
 696 700 l 1,24,-1
EndSplineSet
Position2: "'cpsp' Capital Spacing lookup 0 subtable" dx=5 dy=0 dh=10 dv=0
EndChar

StartChar: uni042C
Encoding: 1068 1068 255
Width: 655
GlyphClass: 2
Flags: W
LayerCount: 2
Fore
SplineSet
100 700 m 1,0,-1
 194 700 l 1,1,-1
 194 420 l 1,2,-1
 340 420 l 2,3,4
 409 420 409 420 460 405 c 128,-1,5
 511 390 511 390 544.5 362 c 128,-1,6
 578 334 578 334 594 295.5 c 128,-1,7
 610 257 610 257 610 210 c 256,8,9
 610 163 610 163 594 124.5 c 128,-1,10
 578 86 578 86 544.5 58 c 128,-1,11
 511 30 511 30 460 15 c 128,-1,12
 409 0 409 0 340 0 c 2,13,-1
 100 0 l 1,14,-1
 100 700 l 1,0,-1
335 82 m 2,15,16
 435 82 435 82 475.5 115.5 c 128,-1,17
 516 149 516 149 516 210 c 256,18,19
 516 271 516 271 475.5 304.5 c 128,-1,20
 435 338 435 338 335 338 c 2,21,-1
 194 338 l 1,22,-1
 194 82 l 1,23,-1
 335 82 l 2,15,16
EndSplineSet
Position2: "'cpsp' Capital Spacing lookup 0 subtable" dx=5 dy=0 dh=10 dv=0
EndChar

StartChar: uni042D
Encoding: 1069 1069 256
Width: 680
GlyphClass: 2
Flags: W
LayerCount: 2
Fore
SplineSet
325 -10 m 0,0,1
 272 -10 272 -10 225.5 2.5 c 128,-1,2
 179 15 179 15 142.5 42 c 128,-1,3
 106 69 106 69 82 110.5 c 128,-1,4
 58 152 58 152 50 210 c 1,5,-1
 150 210 l 1,6,7
 159 150 159 150 203 112 c 128,-1,8
 247 74 247 74 325 74 c 0,9,10
 356 74 356 74 389 85 c 128,-1,11
 422 96 422 96 450 124 c 128,-1,12
 478 152 478 152 497 198 c 128,-1,13
 516 244 516 244 519 315 c 1,14,-1
 240 315 l 1,15,-1
 240 395 l 1,16,-1
 519 395 l 1,17,18
 516 461 516 461 498.5 505.5 c 128,-1,19
 481 550 481 550 454 577 c 128,-1,20
 427 604 427 604 393.5 615 c 128,-1,21
 360 626 360 626 325 626 c 0,22,23
 254 626 254 626 209 592 c 128,-1,24
 164 558 164 558 150 490 c 1,25,-1
 50 490 l 1,26,27
 56 542 56 542 78.5 583 c 128,-1,28
 101 624 101 624 137 652 c 128,-1,29
 173 680 173 680 220.5 695 c 128,-1,30
 268 710 268 710 325 710 c 0,31,32
 383 710 383 710 436.5 691 c 128,-1,33
 490 672 490 672 531 631 c 128,-1,34
 572 590 572 590 596 524 c 128,-1,35
 620 458 620 458 620 365 c 2,36,-1
 620 345 l 2,37,38
 620 248 620 248 596 180.5 c 128,-1,39
 572 113 572 113 531 70.5 c 128,-1,40
 490 28 490 28 436.5 9 c 128,-1,41
 383 -10 383 -10 325 -10 c 0,0,1
EndSplineSet
Position2: "'cpsp' Capital Spacing lookup 0 subtable" dx=5 dy=0 dh=10 dv=0
EndChar

StartChar: uni042E
Encoding: 1070 1070 257
Width: 950
GlyphClass: 2
Flags: W
LayerCount: 2
Fore
SplineSet
100 700 m 1,0,-1
 194 700 l 1,1,-1
 194 401 l 1,2,-1
 327 401 l 1,3,4
 331 483 331 483 354.5 541.5 c 128,-1,5
 378 600 378 600 415 637.5 c 128,-1,6
 452 675 452 675 501 692.5 c 128,-1,7
 550 710 550 710 605 710 c 0,8,9
 663 710 663 710 715 690.5 c 128,-1,10
 767 671 767 671 806 629.5 c 128,-1,11
 845 588 845 588 867.5 522.5 c 128,-1,12
 890 457 890 457 890 365 c 2,13,-1
 890 345 l 2,14,15
 890 249 890 249 867.5 182 c 128,-1,16
 845 115 845 115 806 72 c 128,-1,17
 767 29 767 29 715 9.5 c 128,-1,18
 663 -10 663 -10 605 -10 c 0,19,20
 549 -10 549 -10 499.5 8 c 128,-1,21
 450 26 450 26 412.5 66 c 128,-1,22
 375 106 375 106 352 168 c 128,-1,23
 329 230 329 230 326 319 c 1,24,-1
 194 319 l 1,25,-1
 194 0 l 1,26,-1
 100 0 l 1,27,-1
 100 700 l 1,0,-1
605 74 m 0,28,29
 642 74 642 74 676 89 c 128,-1,30
 710 104 710 104 735 136.5 c 128,-1,31
 760 169 760 169 775 220.5 c 128,-1,32
 790 272 790 272 790 345 c 2,33,-1
 790 365 l 2,34,35
 790 434 790 434 775 483.5 c 128,-1,36
 760 533 760 533 735 564.5 c 128,-1,37
 710 596 710 596 676 611 c 128,-1,38
 642 626 642 626 605 626 c 0,39,40
 567 626 567 626 533.5 611 c 128,-1,41
 500 596 500 596 475 564.5 c 128,-1,42
 450 533 450 533 435 483.5 c 128,-1,43
 420 434 420 434 420 365 c 2,44,-1
 420 345 l 2,45,46
 420 272 420 272 435 220.5 c 128,-1,47
 450 169 450 169 475 136.5 c 128,-1,48
 500 104 500 104 533.5 89 c 128,-1,49
 567 74 567 74 605 74 c 0,28,29
EndSplineSet
Position2: "'cpsp' Capital Spacing lookup 0 subtable" dx=5 dy=0 dh=10 dv=0
EndChar

StartChar: uni042F
Encoding: 1071 1071 258
Width: 685
GlyphClass: 2
Flags: W
LayerCount: 2
Fore
SplineSet
237 294 m 1,0,1
 156 316 156 316 115.5 368.5 c 128,-1,2
 75 421 75 421 75 490 c 0,3,4
 75 535 75 535 92 573.5 c 128,-1,5
 109 612 109 612 142 640 c 128,-1,6
 175 668 175 668 224.5 684 c 128,-1,7
 274 700 274 700 340 700 c 2,8,-1
 585 700 l 1,9,-1
 585 0 l 1,10,-1
 491 0 l 1,11,-1
 491 282 l 1,12,-1
 329 282 l 1,13,-1
 151 0 l 1,14,-1
 45 0 l 1,15,-1
 237 294 l 1,0,1
169 490 m 256,16,17
 169 433 169 433 211 397.5 c 128,-1,18
 253 362 253 362 350 362 c 2,19,-1
 491 362 l 1,20,-1
 491 618 l 1,21,-1
 350 618 l 2,22,23
 253 618 253 618 211 582.5 c 128,-1,24
 169 547 169 547 169 490 c 256,16,17
EndSplineSet
Position2: "'cpsp' Capital Spacing lookup 0 subtable" dx=5 dy=0 dh=10 dv=0
EndChar

StartChar: uni0430
Encoding: 1072 1072 259
Width: 565
GlyphClass: 2
Flags: W
LayerCount: 2
Fore
SplineSet
231 -10 m 0,0,1
 187 -10 187 -10 153.5 2.5 c 128,-1,2
 120 15 120 15 97 37 c 128,-1,3
 74 59 74 59 62 89 c 128,-1,4
 50 119 50 119 50 155 c 0,5,6
 50 234 50 234 96.5 269 c 128,-1,7
 143 304 143 304 230 304 c 2,8,-1
 402 304 l 1,9,-1
 402 340 l 2,10,11
 323 420 l 0,12,-1
 280 460 l 0,13,14
 210 460 210 460 191.75 439.5 c 0,15,16
 171 417 171 417 168 390 c 1,17,-1
 80 390 l 1,18,19
 82 422 82 422 97.5 449.5 c 128,-1,20
 113 477 113 477 139.5 497 c 128,-1,21
 166 517 166 517 197.75 529.5 c 0,22,23
 230 542 230 542 307 542 c 0,24,-1
 367 486 l 4,25,-1
 489 366 l 2,26,-1
 490 135 l 2,27,28
 490.152174509 99.8476885342 490.152174509 99.8476885342 491.513755515 61.5490526862 c 0,29,30
 492 21 492 21 495 0 c 1,31,-1
 418 0 l 1,32,33
 415 23 415 23 414 43.5 c 128,-1,34
 413 64 413 64 413 90 c 1,35,36
 392 48 392 48 345 19 c 128,-1,37
 298 -10 298 -10 231 -10 c 0,0,1
250 70 m 0,38,39
 281 70 281 70 308.5 78.5 c 128,-1,40
 336 87 336 87 357 103.5 c 128,-1,41
 378 120 378 120 390 144 c 128,-1,42
 402 168 402 168 402 200 c 2,43,-1
 402 236 l 1,44,-1
 245 236 l 2,45,46
 196 236 196 236 168 216.5 c 128,-1,47
 140 197 140 197 140 155 c 0,48,49
 140 118 140 118 166.5 94 c 128,-1,50
 193 70 193 70 250 70 c 0,38,39
EndSplineSet
EndChar

StartChar: uni0431
Encoding: 1073 1073 260
Width: 595
GlyphClass: 2
Flags: W
LayerCount: 2
Fore
SplineSet
300 -10 m 0,0,1
 247 -10 247 -10 201.5 10 c 128,-1,2
 156 30 156 30 122.5 68.5 c 128,-1,3
 89 107 89 107 69.5 163 c 128,-1,4
 50 219 50 219 50 290 c 2,5,-1
 50 310 l 2,6,7
 50 400 50 400 63 470.5 c 128,-1,8
 76 541 76 541 107.5 590.5 c 128,-1,9
 139 640 139 640 190.5 668 c 128,-1,10
 242 696 242 696 320 700 c 0,11,12
 383 703 383 703 430 705.5 c 128,-1,13
 477 708 477 708 510 725 c 1,14,-1
 510 640 l 1,15,16
 494 631 494 631 451.5 626 c 128,-1,17
 409 621 409 621 335 619 c 0,18,19
 287 618 287 618 250.5 607 c 128,-1,20
 214 596 214 596 188.5 572 c 128,-1,21
 163 548 163 548 148.5 509.5 c 128,-1,22
 134 471 134 471 130 415 c 1,23,24
 154 468 154 468 204 499 c 128,-1,25
 254 530 254 530 320 530 c 0,26,27
 371 530 371 530 413 512.5 c 128,-1,28
 455 495 455 495 485.5 463 c 128,-1,29
 516 431 516 431 533 384.5 c 128,-1,30
 550 338 550 338 550 280 c 2,31,-1
 550 260 l 2,32,33
 550 198 550 198 531 148.5 c 128,-1,34
 512 99 512 99 479 63.5 c 128,-1,35
 446 28 446 28 400 9 c 128,-1,36
 354 -10 354 -10 300 -10 c 0,0,1
300 70 m 0,37,38
 370 70 370 70 415 118.5 c 128,-1,39
 460 167 460 167 460 260 c 2,40,-1
 460 280 l 2,41,42
 460 319 460 319 448 350 c 128,-1,43
 436 381 436 381 415 403.5 c 128,-1,44
 394 426 394 426 364.5 438 c 128,-1,45
 335 450 335 450 300 450 c 256,46,47
 265 450 265 450 235.5 438 c 128,-1,48
 206 426 206 426 185 403.5 c 128,-1,49
 164 381 164 381 152 350 c 128,-1,50
 140 319 140 319 140 280 c 2,51,-1
 140 260 l 2,52,53
 140 216 140 216 152.5 180.5 c 128,-1,54
 165 145 165 145 187 120.5 c 128,-1,55
 209 96 209 96 238 83 c 128,-1,56
 267 70 267 70 300 70 c 0,37,38
EndSplineSet
EndChar

StartChar: uni0432
Encoding: 1074 1074 261
Width: 565
GlyphClass: 2
Flags: W
LayerCount: 2
Fore
SplineSet
80 530 m 1,0,-1
 310 530 l 2,1,2
 408 530 408 530 454 489.5 c 128,-1,3
 500 449 500 449 500 385 c 0,4,5
 500 368 500 368 494 350.5 c 128,-1,6
 488 333 488 333 477.5 318 c 128,-1,7
 467 303 467 303 452.5 292 c 128,-1,8
 438 281 438 281 420 275 c 1,9,10
 469 263 469 263 494.5 229.5 c 128,-1,11
 520 196 520 196 520 151 c 0,12,13
 520 82 520 82 474 41 c 128,-1,14
 428 0 428 0 330 0 c 2,15,-1
 80 0 l 1,16,-1
 80 530 l 1,0,-1
330 78 m 2,17,18
 386 78 386 78 409 98 c 128,-1,19
 432 118 432 118 432 155 c 0,20,21
 432 193 432 193 409 213.5 c 128,-1,22
 386 234 386 234 330 234 c 2,23,-1
 168 234 l 1,24,-1
 168 78 l 1,25,-1
 330 78 l 2,17,18
310 306 m 2,26,27
 367 306 367 306 389.5 326 c 128,-1,28
 412 346 412 346 412 381 c 0,29,30
 412 414 412 414 389.5 433 c 128,-1,31
 367 452 367 452 310 452 c 2,32,-1
 168 452 l 1,33,-1
 168 306 l 1,34,-1
 310 306 l 2,26,27
EndSplineSet
EndChar

StartChar: uni0433
Encoding: 1075 1075 262
Width: 460
GlyphClass: 2
Flags: W
LayerCount: 2
Fore
SplineSet
80 530 m 1,0,-1
 440 530 l 1,1,-1
 440 452 l 1,2,-1
 168 452 l 1,3,-1
 168 0 l 1,4,-1
 80 0 l 1,5,-1
 80 530 l 1,0,-1
EndSplineSet
EndChar

StartChar: uni0434
Encoding: 1076 1076 263
Width: 605
GlyphClass: 2
Flags: W
LayerCount: 2
Fore
SplineSet
20 78 m 1,0,-1
 85 78 l 1,1,2
 96 93 96 93 105 124 c 128,-1,3
 114 155 114 155 121 197 c 128,-1,4
 128 239 128 239 131.5 288.5 c 128,-1,5
 135 338 135 338 135 390 c 2,6,-1
 135 530 l 1,7,-1
 505 530 l 1,8,-1
 505 78 l 1,9,-1
 580 78 l 1,10,-1
 580 -125 l 1,11,-1
 496 -125 l 1,12,-1
 496 0 l 1,13,-1
 104 0 l 1,14,-1
 104 -125 l 1,15,-1
 20 -125 l 1,16,-1
 20 78 l 1,0,-1
417 78 m 1,17,-1
 417 452 l 1,18,-1
 221 452 l 1,19,-1
 221 370 l 2,20,21
 221 328 221 328 218 286.5 c 128,-1,22
 215 245 215 245 209 207.5 c 128,-1,23
 203 170 203 170 194.5 136.5 c 128,-1,24
 186 103 186 103 175 78 c 1,25,-1
 417 78 l 1,17,-1
EndSplineSet
EndChar

StartChar: uni0435
Encoding: 1077 1077 264
Width: 580
GlyphClass: 2
Flags: W
LayerCount: 2
Fore
SplineSet
452 311 m 1,0,-1
 133 311 l 1,1,2
 133 350 133 350 147 378 c 128,-1,3
 161 406 161 406 183.5 424.5 c 128,-1,4
 206 443 206 443 235 451.5 c 128,-1,5
 264 460 264 460 295 460 c 0,6,-1
 452 311 l 1,0,-1
300 -10 m 0,7,8
 342 -10 342 -10 379.5 0 c 128,-1,9
 417 10 417 10 446.5 29.5 c 128,-1,10
 476 49 476 49 496.5 78 c 128,-1,11
 517 107 517 107 525 145 c 1,12,-1
 439 145 l 1,13,14
 425 110 425 110 392.5 90 c 128,-1,15
 360 70 360 70 300 70 c 0,16,17
 270 70 270 70 240.5 79 c 128,-1,18
 211 88 211 88 187 108 c 128,-1,19
 163 128 163 128 148 160 c 128,-1,20
 133 192 133 192 133 239 c 1,21,-1
 535 239 l 1,22,-1
 535 314 l 2,23,-1
 411 444 l 0,24,-1
 307 542 l 4,25,26
 258 542 258 542 205 525 c 128,-1,27
 152 508 152 508 118.5 475.5 c 128,-1,28
 85 443 85 443 65 394.5 c 128,-1,29
 45 346 45 346 45 280 c 2,30,-1
 45 260 l 2,31,32
 45 191 45 191 66 140 c 128,-1,33
 87 89 87 89 122 55.5 c 128,-1,34
 157 22 157 22 203 6 c 128,-1,35
 249 -10 249 -10 300 -10 c 0,7,8
EndSplineSet
EndChar

StartChar: uni0436
Encoding: 1078 1078 265
Width: 800
GlyphClass: 2
Flags: W
LayerCount: 2
Fore
SplineSet
225 273 m 1,0,-1
 35 530 l 1,1,-1
 133 530 l 1,2,-1
 295 308 l 1,3,-1
 356 308 l 1,4,-1
 356 530 l 1,5,-1
 444 530 l 1,6,-1
 444 308 l 1,7,-1
 504 308 l 1,8,-1
 669 530 l 1,9,-1
 765 530 l 1,10,-1
 575 276 l 1,11,-1
 775 0 l 1,12,-1
 671 0 l 1,13,-1
 504 232 l 1,14,-1
 444 232 l 1,15,-1
 444 0 l 1,16,-1
 356 0 l 1,17,-1
 356 232 l 1,18,-1
 295 232 l 1,19,-1
 127 0 l 1,20,-1
 25 0 l 1,21,-1
 225 273 l 1,0,-1
EndSplineSet
EndChar

StartChar: uni0437
Encoding: 1079 1079 266
Width: 525
GlyphClass: 2
Flags: W
LayerCount: 2
Fore
SplineSet
260 -10 m 0,0,1
 160 -10 160 -10 103 32 c 128,-1,2
 46 74 46 74 40 150 c 1,3,-1
 128 150 l 1,4,5
 135 111 135 111 169.5 90.5 c 128,-1,6
 204 70 204 70 260 70 c 0,7,8
 329 70 329 70 360.5 93.5 c 128,-1,9
 392 117 392 117 392 150 c 0,10,11
 392 189 392 189 366 211.5 c 128,-1,12
 340 234 340 234 276 234 c 2,13,-1
 185 234 l 1,14,-1
 185 306 l 1,15,-1
 270 306 l 2,16,17
 325 306 325 306 348.5 327 c 128,-1,18
 372 348 372 348 372 386 c 0,19,20
 372 416 372 416 344 438 c 128,-1,21
 316 460 316 460 260 460 c 0,22,23
 199 460 199 460 171.5 440.5 c 128,-1,24
 144 421 144 421 138 385 c 1,25,-1
 50 385 l 1,26,27
 53 418 53 418 68.5 446.5 c 128,-1,28
 84 475 84 475 111 496 c 128,-1,29
 138 517 138 517 175.5 528.5 c 128,-1,30
 213 540 213 540 260 540 c 0,31,32
 311 540 311 540 348.5 528.5 c 128,-1,33
 386 517 386 517 411 496.5 c 128,-1,34
 436 476 436 476 448 448 c 128,-1,35
 460 420 460 420 460 386 c 0,36,37
 460 348 460 348 441 319.5 c 128,-1,38
 422 291 422 291 380 275 c 1,39,40
 436 260 436 260 458 227 c 128,-1,41
 480 194 480 194 480 150 c 0,42,43
 480 117 480 117 466 88 c 128,-1,44
 452 59 452 59 424.5 37.5 c 128,-1,45
 397 16 397 16 355.5 3 c 128,-1,46
 314 -10 314 -10 260 -10 c 0,0,1
EndSplineSet
EndChar

StartChar: uni0438
Encoding: 1080 1080 267
Width: 610
GlyphClass: 2
Flags: W
LayerCount: 2
Fore
SplineSet
80 530 m 1,0,-1
 168 530 l 1,1,-1
 168 130 l 1,2,-1
 442 530 l 1,3,-1
 530 530 l 1,4,-1
 530 0 l 1,5,-1
 442 0 l 1,6,-1
 442 400 l 1,7,-1
 168 0 l 1,8,-1
 80 0 l 1,9,-1
 80 530 l 1,0,-1
EndSplineSet
EndChar

StartChar: uni043A
Encoding: 1082 1082 269
Width: 575
GlyphClass: 2
Flags: W
LayerCount: 2
Fore
SplineSet
80 530 m 1,0,-1
 168 530 l 1,1,-1
 168 308 l 1,2,-1
 238 308 l 1,3,-1
 436 530 l 1,4,-1
 540 530 l 1,5,-1
 310 276 l 1,6,-1
 550 0 l 1,7,-1
 438 0 l 1,8,-1
 238 232 l 1,9,-1
 168 232 l 1,10,-1
 168 0 l 1,11,-1
 80 0 l 1,12,-1
 80 530 l 1,0,-1
EndSplineSet
EndChar

StartChar: uni043B
Encoding: 1083 1083 270
Width: 585
GlyphClass: 2
Flags: W
LayerCount: 2
Fore
SplineSet
55 -10 m 0,0,1
 40 -10 40 -10 25 -7 c 1,2,-1
 25 81 l 1,3,4
 30 80 30 80 40 80 c 0,5,6
 62 80 62 80 78.5 94 c 128,-1,7
 95 108 95 108 105 143 c 128,-1,8
 115 178 115 178 120 238 c 128,-1,9
 125 298 125 298 125 390 c 2,10,-1
 125 530 l 1,11,-1
 505 530 l 1,12,-1
 505 0 l 1,13,-1
 417 0 l 1,14,-1
 417 452 l 1,15,-1
 213 452 l 1,16,-1
 213 370 l 2,17,18
 213 259 213 259 203 186 c 128,-1,19
 193 113 193 113 173.5 69.5 c 128,-1,20
 154 26 154 26 124 8 c 128,-1,21
 94 -10 94 -10 55 -10 c 0,0,1
EndSplineSet
EndChar

StartChar: uni043C
Encoding: 1084 1084 271
Width: 720
GlyphClass: 2
Flags: W
LayerCount: 2
Fore
SplineSet
80 530 m 1,0,-1
 174 530 l 1,1,-1
 363 200 l 1,2,-1
 552 530 l 1,3,-1
 640 530 l 1,4,-1
 640 0 l 1,5,-1
 552 0 l 1,6,-1
 552 385 l 1,7,-1
 395 115 l 1,8,-1
 325 115 l 1,9,-1
 168 385 l 1,10,-1
 168 0 l 1,11,-1
 80 0 l 1,12,-1
 80 530 l 1,0,-1
EndSplineSet
EndChar

StartChar: uni043D
Encoding: 1085 1085 272
Width: 610
GlyphClass: 2
Flags: W
LayerCount: 2
Fore
SplineSet
80 530 m 1,0,-1
 168 530 l 1,1,-1
 168 309 l 1,2,-1
 442 309 l 1,3,-1
 442 530 l 1,4,-1
 530 530 l 1,5,-1
 530 0 l 1,6,-1
 442 0 l 1,7,-1
 442 231 l 1,8,-1
 168 231 l 1,9,-1
 168 0 l 1,10,-1
 80 0 l 1,11,-1
 80 530 l 1,0,-1
EndSplineSet
EndChar

StartChar: uni043E
Encoding: 1086 1086 273
Width: 600
GlyphClass: 2
Flags: W
LayerCount: 2
Fore
SplineSet
553 268 m 1,0,-1
 554 260 l 2,1,-1
 533 141 l 0,2,3
 512 90 512 90 477 56.5 c 128,-1,4
 442 23 442 23 396 6.5 c 128,-1,5
 350 -10 350 -10 299 -10 c 256,6,7
 248 -10 248 -10 202 6.5 c 128,-1,8
 156 23 156 23 121 56.5 c 128,-1,9
 86 90 86 90 65 141 c 128,-1,10
 44 192 44 192 44 260 c 2,11,-1
 44 280 l 2,12,13
 44 344 44 344 65 393 c 128,-1,14
 86 442 86 442 121 474.5 c 128,-1,15
 156 507 156 507 212 524.5 c 128,-1,16
 268 542 268 542 319 542 c 256,17,-1
 553 268 l 1,0,-1
465 258 m 5,18,-1
 283 460 l 1,19,20
 255 458 255 458 232 449 c 128,-1,21
 209 440 209 440 186 418 c 128,-1,22
 163 396 163 396 148.5 362 c 128,-1,23
 134 328 134 328 134 280 c 2,24,-1
 134 260 l 2,25,26
 134 208 134 208 148.5 172 c 128,-1,27
 163 136 163 136 186 113.5 c 128,-1,28
 209 91 209 91 239 80.5 c 128,-1,29
 269 70 269 70 299 70 c 256,30,31
 329 70 329 70 359 80.5 c 128,-1,32
 389 91 389 91 412 113.5 c 128,-1,33
 435 136 435 136 449.5 172 c 0,34,-1
 464 260 l 2,35,-1
 465 258 l 5,18,-1
EndSplineSet
EndChar

StartChar: uni043F
Encoding: 1087 1087 274
Width: 600
GlyphClass: 2
Flags: W
LayerCount: 2
Fore
SplineSet
80 530 m 1,0,-1
 520 530 l 1,1,-1
 520 0 l 1,2,-1
 432 0 l 1,3,-1
 432 452 l 1,4,-1
 168 452 l 1,5,-1
 168 0 l 1,6,-1
 80 0 l 1,7,-1
 80 530 l 1,0,-1
EndSplineSet
EndChar

StartChar: uni0440
Encoding: 1088 1088 275
Width: 615
GlyphClass: 2
Flags: W
LayerCount: 2
Fore
SplineSet
526 302 m 1,0,-1
 384 536 l 0,1,-1
 350 540 l 0,2,3
 286 540 286 540 237.5 511.5 c 128,-1,4
 189 483 189 483 162 430 c 1,5,-1
 162 530 l 1,6,-1
 80 530 l 1,7,-1
 80 -200 l 1,8,-1
 168 -200 l 1,9,-1
 168 95 l 1,10,11
 191 50 191 50 236.5 20 c 128,-1,12
 282 -10 282 -10 350 -10 c 0,13,14
 399 -10 399 -10 439.5 7 c 128,-1,15
 480 24 480 24 509 57.5 c 128,-1,16
 538 91 538 91 554 141.5 c 0,17,-1
 572 224 l 1,18,-1
 526 302 l 1,0,-1
330 462 m 6,19,20
 482 218 l 0,21,22
 458.120498262 143.905578441 458.120498262 143.905578441 441.25 122.5 c 0,23,24
 418 93 418 93 390 80.5 c 128,-1,25
 362 68 362 68 330 68 c 0,26,27
 294 68 294 68 264 80 c 128,-1,28
 234 92 234 92 213 113 c 128,-1,29
 192 134 192 134 180 164 c 128,-1,30
 168 194 168 194 168 230 c 2,31,-1
 168 310 l 2,32,33
 168 342 168 342 180 370 c 128,-1,34
 192 398 192 398 213 418.5 c 128,-1,35
 234 439 234 439 264 450.5 c 0,36,37
 322.619100623 473.848285841 322.619100623 473.848285841 330 462 c 6,19,20
EndSplineSet
EndChar

StartChar: uni0441
Encoding: 1089 1089 276
Width: 545
GlyphClass: 2
Flags: W
LayerCount: 2
Fore
SplineSet
190 68 m 1,0,-1
 250 -11 l 0,1,-1
 427 35.5 l 0,2,-1
 505 160 l 1,3,-1
 415 160 l 1,4,-1
 367.5 94 l 0,5,-1
 285 70 l 0,6,-1
 238 127 l 5,7,-1
 135 260 l 2,8,-1
 135 280 l 2,9,-1
 147.5 362 l 0,10,-1
 181 417.5 l 0,11,-1
 229 449.5 l 0,12,-1
 285 460 l 0,13,-1
 334 453 l 0,14,-1
 370.5 434 l 0,15,-1
 396.5 405.5 l 0,16,-1
 415 370 l 1,17,-1
 505 370 l 1,18,-1
 479.5 437 l 0,19,-1
 434.5 491 l 0,20,-1
 369.5 527 l 0,21,-1
 285 540 l 256,22,-1
 194.5 523.5 l 0,23,-1
 118 474.5 l 0,24,-1
 65 393 l 0,25,-1
 45 280 l 2,26,-1
 45 260 l 2,27,-1
 190 68 l 1,0,-1
EndSplineSet
EndChar

StartChar: uni0442
Encoding: 1090 1090 277
Width: 490
GlyphClass: 2
Flags: W
LayerCount: 2
Fore
SplineSet
201 452 m 1,0,-1
 20 452 l 1,1,-1
 20 530 l 1,2,-1
 470 530 l 1,3,-1
 470 452 l 1,4,-1
 289 452 l 1,5,-1
 289 0 l 1,6,-1
 201 0 l 1,7,-1
 201 452 l 1,0,-1
EndSplineSet
EndChar

StartChar: uni0443
Encoding: 1091 1091 278
Width: 560
GlyphClass: 2
Flags: W
LayerCount: 2
Fore
SplineSet
216.25 -214 m 0,0,1
 181 -212 l 1,2,-1
 179.5 -127 l 1,3,4
 192 -130 192 -130 204.25 -130 c 256,5,6
 217 -130 217 -130 225.700195312 -125 c 0,7,8
 235 -120 235 -120 243.025390625 -106 c 128,-1,9
 251 -92 251 -92 260.762695312 -66.5 c 0,10,11
 270 -41 270 -41 282.625 0 c 1,12,-1
 313 96 l 1,13,-1
 213 96 l 5,14,-1
 31 530 l 1,15,-1
 125.849609375 530 l 1,16,-1
 271 176 l 1,17,-1
 337 178 l 1,18,-1
 448.450195312 530 l 1,19,-1
 540 530 l 1,20,-1
 375 0 l 2,21,22
 357 -58 357 -58 342 -96 c 0,23,24
 326 -136 326 -136 307.638601036 -162.755181347 c 0,25,26
 289 -190 289 -190 269.5 -198.5 c 0,27,28
 233 -215 233 -215 216.25 -214 c 0,0,1
EndSplineSet
EndChar

StartChar: uni0444
Encoding: 1092 1092 279
Width: 740
GlyphClass: 2
Flags: W
LayerCount: 2
Fore
SplineSet
326 -10 m 1,0,1
 188 -10 188 -10 116.5 60 c 128,-1,2
 45 130 45 130 45 259 c 2,3,-1
 45 279 l 2,4,5
 45 402 45 402 116.5 471 c 128,-1,6
 188 540 188 540 326 540 c 1,7,-1
 326 700 l 1,8,-1
 414 700 l 1,9,-1
 414 540 l 1,10,11
 552 540 552 540 623.5 471 c 128,-1,12
 695 402 695 402 695 279 c 2,13,-1
 695 259 l 2,14,15
 695 130 695 130 623.5 60 c 128,-1,16
 552 -10 552 -10 414 -10 c 1,17,-1
 414 -200 l 1,18,-1
 326 -200 l 1,19,-1
 326 -10 l 1,0,1
605 279 m 2,20,21
 605 370 605 370 558.5 415 c 128,-1,22
 512 460 512 460 413 460 c 1,23,-1
 413 70 l 1,24,25
 512 70 512 70 558.5 116 c 128,-1,26
 605 162 605 162 605 259 c 2,27,-1
 605 279 l 2,20,21
135 259 m 2,28,29
 135 162 135 162 181.5 116 c 128,-1,30
 228 70 228 70 327 70 c 1,31,-1
 327 460 l 1,32,33
 228 460 228 460 181.5 415 c 128,-1,34
 135 370 135 370 135 279 c 2,35,-1
 135 259 l 2,28,29
EndSplineSet
EndChar

StartChar: uni0445
Encoding: 1093 1093 280
Width: 550
GlyphClass: 2
Flags: W
LayerCount: 2
Fore
SplineSet
224 269 m 1,0,-1
 35 530 l 1,1,-1
 137 530 l 1,2,-1
 277 337 l 1,3,-1
 417 530 l 1,4,-1
 515 530 l 1,5,-1
 326 274 l 1,6,-1
 523.735351562 -110.8046875 l 5,7,-1
 420.254882812 -110.8046875 l 5,8,-1
 273 207 l 1,9,-1
 125 0 l 1,10,-1
 25 0 l 1,11,-1
 224 269 l 1,0,-1
EndSplineSet
EndChar

StartChar: uni0446
Encoding: 1094 1094 281
Width: 620
GlyphClass: 2
Flags: W
LayerCount: 2
Fore
SplineSet
511 0 m 1,0,-1
 80 0 l 1,1,-1
 80 530 l 1,2,-1
 168 530 l 1,3,-1
 168 78 l 1,4,-1
 422 78 l 1,5,-1
 422 530 l 1,6,-1
 510 530 l 1,7,-1
 510 78 l 1,8,-1
 595 78 l 1,9,-1
 595 -125 l 1,10,-1
 511 -125 l 1,11,-1
 511 0 l 1,0,-1
EndSplineSet
EndChar

StartChar: uni0447
Encoding: 1095 1095 282
Width: 555
GlyphClass: 2
Flags: W
LayerCount: 2
Fore
SplineSet
387 211 m 1,0,1
 364 197 364 197 331.5 186 c 128,-1,2
 299 175 299 175 250 175 c 0,3,4
 204 175 204 175 167.5 185 c 128,-1,5
 131 195 131 195 106 217 c 128,-1,6
 81 239 81 239 68 274 c 128,-1,7
 55 309 55 309 55 360 c 2,8,-1
 55 530 l 1,9,-1
 143 530 l 1,10,-1
 143 375 l 2,11,12
 143 341 143 341 149.5 318 c 128,-1,13
 156 295 156 295 171 281 c 128,-1,14
 186 267 186 267 209 261 c 128,-1,15
 232 255 232 255 265 255 c 0,16,17
 310 255 310 255 342 264 c 128,-1,18
 374 273 374 273 387 283 c 1,19,-1
 387 530 l 1,20,-1
 475 530 l 1,21,-1
 475 0 l 1,22,-1
 387 0 l 1,23,-1
 387 211 l 1,0,1
EndSplineSet
EndChar

StartChar: uni0448
Encoding: 1096 1096 283
Width: 810
GlyphClass: 2
Flags: W
LayerCount: 2
Fore
SplineSet
80 530 m 1,0,-1
 168 530 l 1,1,-1
 168 78 l 1,2,-1
 361 78 l 1,3,-1
 361 530 l 1,4,-1
 449 530 l 1,5,-1
 449 78 l 1,6,-1
 642 78 l 1,7,-1
 642 530 l 1,8,-1
 730 530 l 1,9,-1
 730 0 l 1,10,-1
 80 0 l 1,11,-1
 80 530 l 1,0,-1
EndSplineSet
EndChar

StartChar: uni0449
Encoding: 1097 1097 284
Width: 840
GlyphClass: 2
Flags: W
LayerCount: 2
Fore
SplineSet
731 0 m 1,0,-1
 80 0 l 1,1,-1
 80 530 l 1,2,-1
 168 530 l 1,3,-1
 168 78 l 1,4,-1
 361 78 l 1,5,-1
 361 530 l 1,6,-1
 449 530 l 1,7,-1
 449 78 l 1,8,-1
 642 78 l 1,9,-1
 642 530 l 1,10,-1
 730 530 l 1,11,-1
 730 78 l 1,12,-1
 815 78 l 1,13,-1
 815 -125 l 1,14,-1
 731 -125 l 1,15,-1
 731 0 l 1,0,-1
EndSplineSet
EndChar

StartChar: uni044A
Encoding: 1098 1098 285
Width: 605
GlyphClass: 2
Flags: W
LayerCount: 2
Fore
SplineSet
160 452 m 1,0,-1
 20 452 l 1,1,-1
 20 530 l 1,2,-1
 248 530 l 1,3,-1
 248 330 l 1,4,-1
 375 330 l 2,5,6
 475 330 475 330 522.5 286 c 128,-1,7
 570 242 570 242 570 164 c 0,8,9
 570 88 570 88 522.5 44 c 128,-1,10
 475 0 475 0 375 0 c 2,11,-1
 160 0 l 1,12,-1
 160 452 l 1,0,-1
370 78 m 2,13,14
 432 78 432 78 457 100 c 128,-1,15
 482 122 482 122 482 165 c 256,16,17
 482 208 482 208 457 230 c 128,-1,18
 432 252 432 252 370 252 c 2,19,-1
 248 252 l 1,20,-1
 248 78 l 1,21,-1
 370 78 l 2,13,14
EndSplineSet
EndChar

StartChar: uni044B
Encoding: 1099 1099 286
Width: 720
GlyphClass: 2
Flags: W
LayerCount: 2
Fore
SplineSet
80 530 m 1,0,-1
 168 530 l 1,1,-1
 168 330 l 1,2,-1
 275 330 l 2,3,4
 375 330 375 330 422.5 286 c 128,-1,5
 470 242 470 242 470 164 c 0,6,7
 470 88 470 88 422.5 44 c 128,-1,8
 375 0 375 0 275 0 c 2,9,-1
 80 0 l 1,10,-1
 80 530 l 1,0,-1
270 78 m 2,11,12
 332 78 332 78 357 100 c 128,-1,13
 382 122 382 122 382 165 c 256,14,15
 382 208 382 208 357 230 c 128,-1,16
 332 252 332 252 270 252 c 2,17,-1
 168 252 l 1,18,-1
 168 78 l 1,19,-1
 270 78 l 2,11,12
552 530 m 1,20,-1
 640 530 l 1,21,-1
 640 0 l 1,22,-1
 552 0 l 1,23,-1
 552 530 l 1,20,-1
EndSplineSet
EndChar

StartChar: uni044C
Encoding: 1100 1100 287
Width: 525
GlyphClass: 2
Flags: W
LayerCount: 2
Fore
SplineSet
80 530 m 1,0,-1
 168 530 l 1,1,-1
 168 330 l 1,2,-1
 295 330 l 2,3,4
 395 330 395 330 442.5 286 c 128,-1,5
 490 242 490 242 490 164 c 0,6,7
 490 88 490 88 442.5 44 c 128,-1,8
 395 0 395 0 295 0 c 2,9,-1
 80 0 l 1,10,-1
 80 530 l 1,0,-1
290 78 m 2,11,12
 352 78 352 78 377 100 c 128,-1,13
 402 122 402 122 402 165 c 256,14,15
 402 208 402 208 377 230 c 128,-1,16
 352 252 352 252 290 252 c 2,17,-1
 168 252 l 1,18,-1
 168 78 l 1,19,-1
 290 78 l 2,11,12
EndSplineSet
EndChar

StartChar: uni044D
Encoding: 1101 1101 288
Width: 545
GlyphClass: 2
Flags: W
LayerCount: 2
Fore
SplineSet
260 -10 m 0,0,1
 177 -10 177 -10 118 35.5 c 128,-1,2
 59 81 59 81 40 160 c 1,3,-1
 130 160 l 1,4,5
 144 118 144 118 177.5 94 c 128,-1,6
 211 70 211 70 260 70 c 0,7,8
 290 70 290 70 315.5 79 c 128,-1,9
 341 88 341 88 360.5 107 c 128,-1,10
 380 126 380 126 393 156.5 c 128,-1,11
 406 187 406 187 409 231 c 1,12,-1
 200 231 l 1,13,-1
 200 309 l 1,14,-1
 409 309 l 1,15,16
 402 389 402 389 361 424.5 c 128,-1,17
 320 460 320 460 260 460 c 0,18,19
 232 460 232 460 211 453 c 128,-1,20
 190 446 190 446 174.5 434 c 128,-1,21
 159 422 159 422 148 405.5 c 128,-1,22
 137 389 137 389 130 370 c 1,23,-1
 40 370 l 1,24,25
 47 406 47 406 65 437 c 128,-1,26
 83 468 83 468 110.5 491 c 128,-1,27
 138 514 138 514 175.5 527 c 128,-1,28
 213 540 213 540 260 540 c 0,29,30
 311 540 311 540 354.5 523.5 c 128,-1,31
 398 507 398 507 430.5 474.5 c 128,-1,32
 463 442 463 442 481.5 393 c 128,-1,33
 500 344 500 344 500 280 c 2,34,-1
 500 260 l 2,35,36
 500 192 500 192 482 141 c 128,-1,37
 464 90 464 90 432.5 56.5 c 128,-1,38
 401 23 401 23 356.5 6.5 c 128,-1,39
 312 -10 312 -10 260 -10 c 0,0,1
EndSplineSet
EndChar

StartChar: uni044E
Encoding: 1102 1102 289
Width: 775
GlyphClass: 2
Flags: W
LayerCount: 2
Fore
SplineSet
80 530 m 1,0,-1
 168 530 l 1,1,-1
 168 309 l 1,2,-1
 243 309 l 1,3,4
 247 366 247 366 268 409.5 c 128,-1,5
 289 453 289 453 321.5 482 c 128,-1,6
 354 511 354 511 396 525.5 c 128,-1,7
 438 540 438 540 485 540 c 0,8,9
 536 540 536 540 580.5 523.5 c 128,-1,10
 625 507 625 507 658 474.5 c 128,-1,11
 691 442 691 442 710.5 393 c 128,-1,12
 730 344 730 344 730 280 c 2,13,-1
 730 260 l 2,14,15
 730 192 730 192 710.5 141 c 128,-1,16
 691 90 691 90 658 56.5 c 128,-1,17
 625 23 625 23 580.5 6.5 c 128,-1,18
 536 -10 536 -10 485 -10 c 0,19,20
 438 -10 438 -10 395.5 4.5 c 128,-1,21
 353 19 353 19 320.5 49 c 128,-1,22
 288 79 288 79 267.5 124.5 c 128,-1,23
 247 170 247 170 243 231 c 1,24,-1
 168 231 l 1,25,-1
 168 0 l 1,26,-1
 80 0 l 1,27,-1
 80 530 l 1,0,-1
485 70 m 256,28,29
 515 70 515 70 543 80.5 c 128,-1,30
 571 91 571 91 592.5 113.5 c 128,-1,31
 614 136 614 136 627 172 c 128,-1,32
 640 208 640 208 640 260 c 2,33,-1
 640 280 l 2,34,35
 640 328 640 328 627 362 c 128,-1,36
 614 396 614 396 592.5 418 c 128,-1,37
 571 440 571 440 543 450 c 128,-1,38
 515 460 515 460 485 460 c 256,39,40
 455 460 455 460 427 450 c 128,-1,41
 399 440 399 440 377.5 418 c 128,-1,42
 356 396 356 396 343 362 c 128,-1,43
 330 328 330 328 330 280 c 2,44,-1
 330 260 l 2,45,46
 330 208 330 208 343 172 c 128,-1,47
 356 136 356 136 377.5 113.5 c 128,-1,48
 399 91 399 91 427 80.5 c 128,-1,49
 455 70 455 70 485 70 c 256,28,29
EndSplineSet
EndChar

StartChar: uni044F
Encoding: 1103 1103 290
Width: 570
GlyphClass: 2
Flags: W
LayerCount: 2
Fore
SplineSet
184 210 m 1,0,1
 118 225 118 225 89 264.5 c 128,-1,2
 60 304 60 304 60 366 c 0,3,4
 60 444 60 444 107.5 487 c 128,-1,5
 155 530 155 530 260 530 c 2,6,-1
 490 530 l 1,7,-1
 490 0 l 1,8,-1
 402 0 l 1,9,-1
 402 202 l 1,10,-1
 267 202 l 1,11,-1
 138 0 l 1,12,-1
 40 0 l 1,13,-1
 184 210 l 1,0,1
148 366 m 256,14,15
 148 324 148 324 172.5 302 c 128,-1,16
 197 280 197 280 255 280 c 2,17,-1
 402 280 l 1,18,-1
 402 452 l 1,19,-1
 255 452 l 2,20,21
 197 452 197 452 172.5 430 c 128,-1,22
 148 408 148 408 148 366 c 256,14,15
EndSplineSet
EndChar

StartChar: uni0452
Encoding: 1106 1106 292
Width: 620
GlyphClass: 2
Flags: W
LayerCount: 2
Fore
SplineSet
110 456 m 1,0,-1
 20 456 l 1,1,-1
 20 530 l 1,2,-1
 110 530 l 1,3,-1
 110 700 l 1,4,-1
 198 700 l 1,5,-1
 198 530 l 1,6,-1
 430 530 l 1,7,-1
 430 456 l 1,8,-1
 198 456 l 1,9,-1
 198 295 l 1,10,11
 208 316 208 316 224 335 c 128,-1,12
 240 354 240 354 261.5 368.5 c 128,-1,13
 283 383 283 383 310 391.5 c 128,-1,14
 337 400 337 400 368 400 c 0,15,16
 464 400 464 400 512 346.5 c 128,-1,17
 560 293 560 293 560 190 c 2,18,-1
 560 0 l 2,19,20
 560 -62 560 -62 551.5 -102.5 c 128,-1,21
 543 -143 543 -143 524 -167 c 128,-1,22
 505 -191 505 -191 474.5 -200.5 c 128,-1,23
 444 -210 444 -210 400 -210 c 0,24,25
 389 -210 389 -210 375 -209.5 c 128,-1,26
 361 -209 361 -209 350 -207 c 1,27,-1
 350 -127 l 1,28,29
 358 -129 358 -129 367.5 -129.5 c 128,-1,30
 377 -130 377 -130 385 -130 c 0,31,32
 410 -130 410 -130 427 -124.5 c 128,-1,33
 444 -119 444 -119 454 -104.5 c 128,-1,34
 464 -90 464 -90 468 -65 c 128,-1,35
 472 -40 472 -40 472 0 c 2,36,-1
 472 170 l 2,37,38
 472 244 472 244 441.5 282 c 128,-1,39
 411 320 411 320 342 320 c 0,40,41
 304 320 304 320 277 307 c 128,-1,42
 250 294 250 294 232.5 273 c 128,-1,43
 215 252 215 252 206.5 225 c 128,-1,44
 198 198 198 198 198 170 c 2,45,-1
 198 0 l 1,46,-1
 110 0 l 1,47,-1
 110 456 l 1,0,-1
EndSplineSet
EndChar

StartChar: uni0454
Encoding: 1108 1108 294
Width: 545
GlyphClass: 2
Flags: W
LayerCount: 2
Fore
SplineSet
285 -10 m 0,0,1
 234 -10 234 -10 190 6.5 c 128,-1,2
 146 23 146 23 114 56.5 c 128,-1,3
 82 90 82 90 63.5 141 c 128,-1,4
 45 192 45 192 45 260 c 2,5,-1
 45 280 l 2,6,7
 45 344 45 344 65 393 c 128,-1,8
 85 442 85 442 118 474.5 c 128,-1,9
 151 507 151 507 194.5 523.5 c 128,-1,10
 238 540 238 540 285 540 c 256,11,12
 332 540 332 540 369.5 527 c 128,-1,13
 407 514 407 514 434.5 491 c 128,-1,14
 462 468 462 468 479.5 437 c 128,-1,15
 497 406 497 406 505 370 c 1,16,-1
 415 370 l 1,17,18
 407 389 407 389 396.5 405.5 c 128,-1,19
 386 422 386 422 370.5 434 c 128,-1,20
 355 446 355 446 334 453 c 128,-1,21
 313 460 313 460 285 460 c 0,22,23
 259 460 259 460 233.5 451.5 c 128,-1,24
 208 443 208 443 188 424.5 c 128,-1,25
 168 406 168 406 154 377.5 c 128,-1,26
 140 349 140 349 136 309 c 1,27,-1
 345 309 l 1,28,-1
 345 231 l 1,29,-1
 136 231 l 1,30,31
 139 187 139 187 153 156.5 c 128,-1,32
 167 126 167 126 187.5 107 c 128,-1,33
 208 88 208 88 233 79 c 128,-1,34
 258 70 258 70 285 70 c 0,35,36
 334 70 334 70 367.5 94 c 128,-1,37
 401 118 401 118 415 160 c 1,38,-1
 505 160 l 1,39,40
 486 81 486 81 427 35.5 c 128,-1,41
 368 -10 368 -10 285 -10 c 0,0,1
EndSplineSet
EndChar

StartChar: uni0459
Encoding: 1113 1113 299
Width: 840
GlyphClass: 2
Flags: W
LayerCount: 2
Fore
SplineSet
55 -10 m 0,0,1
 40 -10 40 -10 25 -7 c 1,2,-1
 25 81 l 1,3,4
 30 80 30 80 40 80 c 0,5,6
 62 80 62 80 78.5 94 c 128,-1,7
 95 108 95 108 105 143 c 128,-1,8
 115 178 115 178 120 238 c 128,-1,9
 125 298 125 298 125 390 c 2,10,-1
 125 530 l 1,11,-1
 495 530 l 1,12,-1
 495 330 l 1,13,-1
 610 330 l 2,14,15
 710 330 710 330 757.5 286 c 128,-1,16
 805 242 805 242 805 164 c 0,17,18
 805 88 805 88 757.5 44 c 128,-1,19
 710 0 710 0 610 0 c 2,20,-1
 407 0 l 1,21,-1
 407 452 l 1,22,-1
 213 452 l 1,23,-1
 213 370 l 2,24,25
 213 259 213 259 203 186 c 128,-1,26
 193 113 193 113 173.5 69.5 c 128,-1,27
 154 26 154 26 124 8 c 128,-1,28
 94 -10 94 -10 55 -10 c 0,0,1
605 76 m 2,29,30
 667 76 667 76 692 98 c 128,-1,31
 717 120 717 120 717 165 c 256,32,33
 717 210 717 210 692 232 c 128,-1,34
 667 254 667 254 605 254 c 2,35,-1
 495 254 l 1,36,-1
 495 76 l 1,37,-1
 605 76 l 2,29,30
EndSplineSet
EndChar

StartChar: uni045A
Encoding: 1114 1114 300
Width: 875
GlyphClass: 2
Flags: W
LayerCount: 2
Fore
SplineSet
80 530 m 1,0,-1
 168 530 l 1,1,-1
 168 324 l 1,2,-1
 435 324 l 1,3,-1
 435 530 l 1,4,-1
 523 530 l 1,5,-1
 523 324 l 1,6,-1
 650 324 l 2,7,8
 746 324 746 324 793 280.5 c 128,-1,9
 840 237 840 237 840 162 c 256,10,11
 840 87 840 87 793 43.5 c 128,-1,12
 746 0 746 0 650 0 c 2,13,-1
 435 0 l 1,14,-1
 435 246 l 1,15,-1
 168 246 l 1,16,-1
 168 0 l 1,17,-1
 80 0 l 1,18,-1
 80 530 l 1,0,-1
645 78 m 2,19,20
 703 78 703 78 727.5 99.5 c 128,-1,21
 752 121 752 121 752 162 c 256,22,23
 752 203 752 203 727.5 224.5 c 128,-1,24
 703 246 703 246 645 246 c 2,25,-1
 523 246 l 1,26,-1
 523 78 l 1,27,-1
 645 78 l 2,19,20
EndSplineSet
EndChar

StartChar: uni045B
Encoding: 1115 1115 301
Width: 620
GlyphClass: 2
Flags: W
LayerCount: 2
Fore
SplineSet
110 456 m 1,0,-1
 20 456 l 1,1,-1
 20 530 l 1,2,-1
 110 530 l 1,3,-1
 110 700 l 1,4,-1
 198 700 l 1,5,-1
 198 530 l 1,6,-1
 430 530 l 1,7,-1
 430 456 l 1,8,-1
 198 456 l 1,9,-1
 198 295 l 1,10,11
 208 316 208 316 224 335 c 128,-1,12
 240 354 240 354 261.5 368.5 c 128,-1,13
 283 383 283 383 310 391.5 c 128,-1,14
 337 400 337 400 368 400 c 0,15,16
 464 400 464 400 512 346.5 c 128,-1,17
 560 293 560 293 560 190 c 2,18,-1
 560 0 l 1,19,-1
 472 0 l 1,20,-1
 472 170 l 2,21,22
 472 244 472 244 441.5 282 c 128,-1,23
 411 320 411 320 342 320 c 0,24,25
 304 320 304 320 277 307 c 128,-1,26
 250 294 250 294 232.5 273 c 128,-1,27
 215 252 215 252 206.5 225 c 128,-1,28
 198 198 198 198 198 170 c 2,29,-1
 198 0 l 1,30,-1
 110 0 l 1,31,-1
 110 456 l 1,0,-1
EndSplineSet
EndChar

StartChar: uni045F
Encoding: 1119 1119 304
Width: 590
GlyphClass: 2
Flags: W
LayerCount: 2
Fore
SplineSet
252 0 m 1,0,-1
 80 0 l 1,1,-1
 80 530 l 1,2,-1
 168 530 l 1,3,-1
 168 78 l 1,4,-1
 422 78 l 1,5,-1
 422 530 l 1,6,-1
 510 530 l 1,7,-1
 510 0 l 1,8,-1
 338 0 l 1,9,-1
 338 -125 l 1,10,-1
 252 -125 l 1,11,-1
 252 0 l 1,0,-1
EndSplineSet
EndChar

StartChar: uni0490
Encoding: 1168 1168 305
Width: 560
GlyphClass: 2
Flags: W
LayerCount: 2
Fore
SplineSet
100 700 m 1,0,-1
 450 700 l 1,1,-1
 450 830 l 1,2,-1
 540 830 l 1,3,-1
 540 618 l 1,4,-1
 194 618 l 1,5,-1
 194 0 l 1,6,-1
 100 0 l 1,7,-1
 100 700 l 1,0,-1
EndSplineSet
Position2: "'cpsp' Capital Spacing lookup 0 subtable" dx=5 dy=0 dh=10 dv=0
EndChar

StartChar: uni0491
Encoding: 1169 1169 306
Width: 460
GlyphClass: 2
Flags: W
LayerCount: 2
Fore
SplineSet
80 530 m 1,0,-1
 356 530 l 1,1,-1
 356 655 l 1,2,-1
 440 655 l 1,3,-1
 440 452 l 1,4,-1
 168 452 l 1,5,-1
 168 0 l 1,6,-1
 80 0 l 1,7,-1
 80 530 l 1,0,-1
EndSplineSet
EndChar

StartChar: uni0492
Encoding: 1170 1170 307
Width: 560
GlyphClass: 2
Flags: W
LayerCount: 2
Fore
SplineSet
100 700 m 1,0,-1
 540 700 l 1,1,-1
 540 618 l 1,2,-1
 194 618 l 1,3,-1
 194 401 l 1,4,-1
 390 401 l 1,5,-1
 390 319 l 1,6,-1
 194 319 l 1,7,-1
 194 0 l 1,8,-1
 100 0 l 1,9,-1
 100 319 l 1,10,-1
 20 319 l 1,11,-1
 20 401 l 1,12,-1
 100 401 l 1,13,-1
 100 700 l 1,0,-1
EndSplineSet
Position2: "'cpsp' Capital Spacing lookup 0 subtable" dx=5 dy=0 dh=10 dv=0
EndChar

StartChar: uni0493
Encoding: 1171 1171 308
Width: 495
GlyphClass: 2
Flags: W
LayerCount: 2
Fore
SplineSet
35 309 m 1,0,-1
 115 309 l 1,1,-1
 115 530 l 1,2,-1
 475 530 l 1,3,-1
 475 452 l 1,4,-1
 203 452 l 1,5,-1
 203 309 l 1,6,-1
 380 309 l 1,7,-1
 380 231 l 1,8,-1
 203 231 l 1,9,-1
 203 0 l 1,10,-1
 115 0 l 1,11,-1
 115 231 l 1,12,-1
 35 231 l 1,13,-1
 35 309 l 1,0,-1
EndSplineSet
EndChar

StartChar: uni0494
Encoding: 1172 1172 309
Width: 633
GlyphClass: 2
Flags: W
LayerCount: 2
Fore
SplineSet
100 700 m 1,0,-1
 518 700 l 1,1,-1
 518 618 l 1,2,-1
 194 618 l 1,3,-1
 194 388 l 1,4,5
 201 394 201 394 214.5 402 c 128,-1,6
 228 410 228 410 248 418 c 128,-1,7
 268 426 268 426 294.5 431.5 c 128,-1,8
 321 437 321 437 354 437 c 0,9,10
 398 437 398 437 436.5 425 c 128,-1,11
 475 413 475 413 503 388 c 128,-1,12
 531 363 531 363 547 324 c 128,-1,13
 563 285 563 285 563 232 c 2,14,-1
 563 -12 l 2,15,16
 563 -109 563 -109 516.5 -154.5 c 128,-1,17
 470 -200 470 -200 370 -200 c 2,18,-1
 337 -200 l 1,19,-1
 337 -123 l 1,20,-1
 360 -123 l 2,21,22
 423 -123 423 -123 448.5 -97 c 128,-1,23
 474 -71 474 -71 474 -8 c 2,24,-1
 474 220 l 2,25,26
 474 291 474 291 439 322.5 c 128,-1,27
 404 354 404 354 334 354 c 0,28,29
 282 354 282 354 246.5 334.5 c 128,-1,30
 211 315 211 315 194 295 c 1,31,-1
 194 0 l 1,32,-1
 100 0 l 1,33,-1
 100 700 l 1,0,-1
EndSplineSet
Position2: "'cpsp' Capital Spacing lookup 0 subtable" dx=5 dy=0 dh=10 dv=0
EndChar

StartChar: uni0495
Encoding: 1173 1173 310
Width: 559
GlyphClass: 2
Flags: W
LayerCount: 2
Fore
SplineSet
80 530 m 1,0,-1
 440 530 l 1,1,-1
 440 452 l 1,2,-1
 168 452 l 1,3,-1
 168 319 l 1,4,5
 191 333 191 333 223 344 c 128,-1,6
 255 355 255 355 304 355 c 0,7,8
 397 355 397 355 448 313 c 128,-1,9
 499 271 499 271 499 170 c 2,10,-1
 499 0 l 2,11,12
 499 -62 499 -62 490.5 -102.5 c 128,-1,13
 482 -143 482 -143 463 -167 c 128,-1,14
 444 -191 444 -191 413.5 -200.5 c 128,-1,15
 383 -210 383 -210 339 -210 c 0,16,17
 328 -210 328 -210 314 -209.5 c 128,-1,18
 300 -209 300 -209 289 -207 c 1,19,-1
 289 -127 l 1,20,21
 297 -129 297 -129 306.5 -129.5 c 128,-1,22
 316 -130 316 -130 324 -130 c 0,23,24
 349 -130 349 -130 366 -124.5 c 128,-1,25
 383 -119 383 -119 393 -104.5 c 128,-1,26
 403 -90 403 -90 407 -65 c 128,-1,27
 411 -40 411 -40 411 0 c 2,28,-1
 411 155 l 2,29,30
 411 223 411 223 383 249 c 128,-1,31
 355 275 355 275 289 275 c 0,32,33
 244 275 244 275 213 266 c 128,-1,34
 182 257 182 257 168 247 c 1,35,-1
 168 0 l 1,36,-1
 80 0 l 1,37,-1
 80 530 l 1,0,-1
EndSplineSet
EndChar

StartChar: uni0496
Encoding: 1174 1174 311
Width: 976
GlyphClass: 2
Flags: W
LayerCount: 2
Fore
SplineSet
856 -130 m 1,0,-1
 856 0 l 1,1,-1
 820 0 l 1,2,-1
 597 321 l 1,3,-1
 527 321 l 1,4,-1
 527 0 l 1,5,-1
 433 0 l 1,6,-1
 433 321 l 1,7,-1
 363 321 l 1,8,-1
 138 0 l 1,9,-1
 30 0 l 1,10,-1
 288 364 l 1,11,-1
 40 700 l 1,12,-1
 144 700 l 1,13,-1
 363 399 l 1,14,-1
 433 399 l 1,15,-1
 433 700 l 1,16,-1
 527 700 l 1,17,-1
 527 399 l 1,18,-1
 597 399 l 1,19,-1
 818 700 l 1,20,-1
 920 700 l 1,21,-1
 672 367 l 1,22,-1
 872 82 l 1,23,-1
 946 82 l 1,24,-1
 946 -130 l 1,25,-1
 856 -130 l 1,0,-1
EndSplineSet
Position2: "'cpsp' Capital Spacing lookup 0 subtable" dx=5 dy=0 dh=10 dv=0
EndChar

StartChar: uni0497
Encoding: 1175 1175 312
Width: 816
GlyphClass: 2
Flags: W
LayerCount: 2
Fore
SplineSet
707 -125 m 1,0,-1
 707 0 l 1,1,-1
 671 0 l 1,2,-1
 504 232 l 1,3,-1
 444 232 l 1,4,-1
 444 0 l 1,5,-1
 356 0 l 1,6,-1
 356 232 l 1,7,-1
 295 232 l 1,8,-1
 127 0 l 1,9,-1
 25 0 l 1,10,-1
 225 273 l 1,11,-1
 35 530 l 1,12,-1
 133 530 l 1,13,-1
 295 308 l 1,14,-1
 356 308 l 1,15,-1
 356 530 l 1,16,-1
 444 530 l 1,17,-1
 444 308 l 1,18,-1
 504 308 l 1,19,-1
 669 530 l 1,20,-1
 765 530 l 1,21,-1
 575 276 l 1,22,-1
 718 78 l 1,23,-1
 791 78 l 1,24,-1
 791 -125 l 1,25,-1
 707 -125 l 1,0,-1
EndSplineSet
EndChar

StartChar: uni0498
Encoding: 1176 1176 313
Width: 640
GlyphClass: 2
Flags: W
LayerCount: 2
Fore
SplineSet
275 -130 m 1,0,-1
 275 -7 l 1,1,2
 240 -4 240 -4 211 5 c 0,3,4
 163 21 163 21 129 49 c 128,-1,5
 95 77 95 77 75 115.5 c 128,-1,6
 55 154 55 154 51 200 c 1,7,-1
 145 200 l 1,8,9
 153 143 153 143 199 108.5 c 128,-1,10
 245 74 245 74 321 74 c 0,11,12
 414 74 414 74 455.5 107 c 128,-1,13
 497 140 497 140 497 196 c 0,14,15
 497 250 497 250 457 285.5 c 128,-1,16
 417 321 417 321 326 321 c 2,17,-1
 231 321 l 1,18,-1
 231 399 l 1,19,-1
 326 399 l 2,20,21
 401 399 401 399 436.5 431.5 c 128,-1,22
 472 464 472 464 472 514 c 256,23,24
 472 564 472 564 434 595 c 128,-1,25
 396 626 396 626 321 626 c 0,26,27
 241 626 241 626 203.5 595.5 c 128,-1,28
 166 565 166 565 160 515 c 1,29,-1
 66 515 l 1,30,31
 70 557 70 557 87.5 593 c 128,-1,32
 105 629 105 629 137 655 c 128,-1,33
 169 681 169 681 215 695.5 c 128,-1,34
 261 710 261 710 321 710 c 0,35,36
 442 710 442 710 504 656 c 128,-1,37
 566 602 566 602 566 514 c 0,38,39
 566 459 566 459 534.5 420.5 c 128,-1,40
 503 382 503 382 451 365 c 1,41,42
 514 350 514 350 552.5 307 c 128,-1,43
 591 264 591 264 591 196 c 0,44,45
 591 151 591 151 573.5 113.5 c 128,-1,46
 556 76 556 76 521.5 48.5 c 128,-1,47
 487 21 487 21 437 5 c 0,48,49
 404 -4 404 -4 365 -8 c 1,50,-1
 365 -130 l 1,51,-1
 275 -130 l 1,0,-1
EndSplineSet
Position2: "'cpsp' Capital Spacing lookup 0 subtable" dx=5 dy=0 dh=10 dv=0
EndChar

StartChar: uni0499
Encoding: 1177 1177 314
Width: 525
GlyphClass: 2
Flags: W
LayerCount: 2
Fore
SplineSet
217 -125 m 1,0,-1
 217 -8 l 1,1,2
 147 0 147 0 103 32 c 0,3,4
 46 74 46 74 40 150 c 1,5,-1
 128 150 l 1,6,7
 135 111 135 111 169.5 90.5 c 128,-1,8
 204 70 204 70 260 70 c 0,9,10
 329 70 329 70 360.5 93.5 c 128,-1,11
 392 117 392 117 392 150 c 0,12,13
 392 189 392 189 366 211.5 c 128,-1,14
 340 234 340 234 276 234 c 2,15,-1
 185 234 l 1,16,-1
 185 306 l 1,17,-1
 270 306 l 2,18,19
 325 306 325 306 348.5 327 c 128,-1,20
 372 348 372 348 372 386 c 0,21,22
 372 416 372 416 344 438 c 128,-1,23
 316 460 316 460 260 460 c 0,24,25
 199 460 199 460 171.5 440.5 c 128,-1,26
 144 421 144 421 138 385 c 1,27,-1
 50 385 l 1,28,29
 53 418 53 418 68.5 446.5 c 128,-1,30
 84 475 84 475 111 496 c 128,-1,31
 138 517 138 517 175.5 528.5 c 128,-1,32
 213 540 213 540 260 540 c 0,33,34
 311 540 311 540 348.5 528.5 c 128,-1,35
 386 517 386 517 411 496.5 c 128,-1,36
 436 476 436 476 448 448 c 128,-1,37
 460 420 460 420 460 386 c 0,38,39
 460 348 460 348 441 319.5 c 128,-1,40
 422 291 422 291 380 275 c 1,41,42
 436 260 436 260 458 227 c 128,-1,43
 480 194 480 194 480 150 c 0,44,45
 480 117 480 117 466 88 c 128,-1,46
 452 59 452 59 424.5 37.5 c 128,-1,47
 397 16 397 16 355 3 c 0,48,49
 331 -4 331 -4 303 -8 c 1,50,-1
 303 -125 l 1,51,-1
 217 -125 l 1,0,-1
EndSplineSet
EndChar

StartChar: uni049A
Encoding: 1178 1178 315
Width: 716
GlyphClass: 2
Flags: W
LayerCount: 2
Fore
SplineSet
596 -130 m 1,0,-1
 596 0 l 1,1,-1
 550 0 l 1,2,-1
 274 321 l 1,3,-1
 194 321 l 1,4,-1
 194 0 l 1,5,-1
 100 0 l 1,6,-1
 100 700 l 1,7,-1
 194 700 l 1,8,-1
 194 399 l 1,9,-1
 274 399 l 1,10,-1
 548 700 l 1,11,-1
 660 700 l 1,12,-1
 354 366 l 1,13,-1
 599 82 l 1,14,-1
 686 82 l 1,15,-1
 686 -130 l 1,16,-1
 596 -130 l 1,0,-1
EndSplineSet
Position2: "'cpsp' Capital Spacing lookup 0 subtable" dx=5 dy=0 dh=10 dv=0
EndChar

StartChar: uni049B
Encoding: 1179 1179 316
Width: 583
GlyphClass: 2
Flags: W
LayerCount: 2
Fore
SplineSet
474 -125 m 1,0,-1
 474 0 l 1,1,-1
 438 0 l 1,2,-1
 238 232 l 1,3,-1
 168 232 l 1,4,-1
 168 0 l 1,5,-1
 80 0 l 1,6,-1
 80 530 l 1,7,-1
 168 530 l 1,8,-1
 168 308 l 1,9,-1
 238 308 l 1,10,-1
 436 530 l 1,11,-1
 540 530 l 1,12,-1
 310 276 l 1,13,-1
 482 78 l 1,14,-1
 558 78 l 1,15,-1
 558 -125 l 1,16,-1
 474 -125 l 1,0,-1
EndSplineSet
EndChar

StartChar: uni049C
Encoding: 1180 1180 317
Width: 709
GlyphClass: 2
Flags: W
LayerCount: 2
Fore
SplineSet
100 700 m 1,0,-1
 194 700 l 1,1,-1
 194 395 l 1,2,-1
 248 395 l 1,3,-1
 248 512 l 1,4,-1
 333 512 l 1,5,-1
 333 395 l 1,6,-1
 350 395 l 1,7,-1
 552 700 l 1,8,-1
 659 700 l 1,9,-1
 427 359 l 1,10,-1
 679 0 l 1,11,-1
 565 0 l 1,12,-1
 350 314 l 1,13,-1
 333 314 l 1,14,-1
 333 200 l 1,15,-1
 248 200 l 1,16,-1
 248 314 l 1,17,-1
 194 314 l 1,18,-1
 194 0 l 1,19,-1
 100 0 l 1,20,-1
 100 700 l 1,0,-1
EndSplineSet
Position2: "'cpsp' Capital Spacing lookup 0 subtable" dx=5 dy=0 dh=10 dv=0
EndChar

StartChar: uni049D
Encoding: 1181 1181 318
Width: 588
GlyphClass: 2
Flags: W
LayerCount: 2
Fore
SplineSet
80 530 m 1,0,-1
 169 530 l 1,1,-1
 169 308 l 1,2,-1
 203 308 l 1,3,-1
 203 403 l 1,4,-1
 278 403 l 1,5,-1
 278 308 l 1,6,-1
 288 308 l 1,7,-1
 448 530 l 1,8,-1
 547 530 l 1,9,-1
 361 273 l 1,10,-1
 563 0 l 1,11,-1
 459 0 l 1,12,-1
 289 232 l 1,13,-1
 278 232 l 1,14,-1
 278 130 l 1,15,-1
 203 130 l 1,16,-1
 203 232 l 1,17,-1
 169 232 l 1,18,-1
 169 0 l 1,19,-1
 80 0 l 1,20,-1
 80 530 l 1,0,-1
EndSplineSet
EndChar

StartChar: uni04A0
Encoding: 1184 1184 319
Width: 780
GlyphClass: 2
Flags: W
LayerCount: 2
Fore
SplineSet
20 700 m 1,0,-1
 274 700 l 1,1,-1
 274 399 l 1,2,-1
 354 399 l 1,3,-1
 628 700 l 1,4,-1
 740 700 l 1,5,-1
 434 366 l 1,6,-1
 750 0 l 1,7,-1
 630 0 l 1,8,-1
 354 321 l 1,9,-1
 274 321 l 1,10,-1
 274 0 l 1,11,-1
 180 0 l 1,12,-1
 180 618 l 1,13,-1
 20 618 l 1,14,-1
 20 700 l 1,0,-1
EndSplineSet
Position2: "'cpsp' Capital Spacing lookup 0 subtable" dx=5 dy=0 dh=10 dv=0
EndChar

StartChar: uni04A1
Encoding: 1185 1185 320
Width: 655
GlyphClass: 2
Flags: W
LayerCount: 2
Fore
SplineSet
20 530 m 1,0,-1
 248 530 l 1,1,-1
 248 308 l 1,2,-1
 318 308 l 1,3,-1
 516 530 l 1,4,-1
 620 530 l 1,5,-1
 390 276 l 1,6,-1
 630 0 l 1,7,-1
 518 0 l 1,8,-1
 318 232 l 1,9,-1
 248 232 l 1,10,-1
 248 0 l 1,11,-1
 160 0 l 1,12,-1
 160 452 l 1,13,-1
 20 452 l 1,14,-1
 20 530 l 1,0,-1
EndSplineSet
EndChar

StartChar: uni04A2
Encoding: 1186 1186 321
Width: 775
GlyphClass: 2
Flags: W
LayerCount: 2
Fore
SplineSet
655 -130 m 1,0,-1
 655 0 l 1,1,-1
 566 0 l 1,2,-1
 566 319 l 1,3,-1
 194 319 l 1,4,-1
 194 0 l 1,5,-1
 100 0 l 1,6,-1
 100 700 l 1,7,-1
 194 700 l 1,8,-1
 194 401 l 1,9,-1
 566 401 l 1,10,-1
 566 700 l 1,11,-1
 660 700 l 1,12,-1
 660 82 l 1,13,-1
 745 82 l 1,14,-1
 745 -130 l 1,15,-1
 655 -130 l 1,0,-1
EndSplineSet
Position2: "'cpsp' Capital Spacing lookup 0 subtable" dx=5 dy=0 dh=10 dv=0
EndChar

StartChar: uni04A3
Encoding: 1187 1187 322
Width: 630
GlyphClass: 2
Flags: W
LayerCount: 2
Fore
SplineSet
521 -125 m 1,0,-1
 521 0 l 1,1,-1
 442 0 l 1,2,-1
 442 231 l 1,3,-1
 168 231 l 1,4,-1
 168 0 l 1,5,-1
 80 0 l 1,6,-1
 80 530 l 1,7,-1
 168 530 l 1,8,-1
 168 309 l 1,9,-1
 442 309 l 1,10,-1
 442 530 l 1,11,-1
 530 530 l 1,12,-1
 530 78 l 1,13,-1
 605 78 l 1,14,-1
 605 -125 l 1,15,-1
 521 -125 l 1,0,-1
EndSplineSet
EndChar

StartChar: uni04A4
Encoding: 1188 1188 323
Width: 1026
GlyphClass: 2
Flags: W
LayerCount: 2
Fore
SplineSet
100 0 m 1,0,-1
 100 700 l 1,1,-1
 194 700 l 1,2,-1
 194 401 l 1,3,-1
 566 401 l 1,4,-1
 566 700 l 1,5,-1
 1006 700 l 1,6,-1
 1006 618 l 1,7,-1
 660 618 l 1,8,-1
 660 0 l 1,9,-1
 566 0 l 1,10,-1
 566 319 l 1,11,-1
 194 319 l 1,12,-1
 194 0 l 1,13,-1
 100 0 l 1,0,-1
EndSplineSet
Position2: "'cpsp' Capital Spacing lookup 0 subtable" dx=5 dy=0 dh=10 dv=0
EndChar

StartChar: uni04A5
Encoding: 1189 1189 324
Width: 822
GlyphClass: 2
Flags: W
LayerCount: 2
Fore
SplineSet
442 231 m 1,0,-1
 168 231 l 1,1,-1
 168 0 l 1,2,-1
 80 0 l 1,3,-1
 80 530 l 1,4,-1
 168 530 l 1,5,-1
 168 309 l 1,6,-1
 442 309 l 1,7,-1
 442 530 l 1,8,-1
 802 530 l 1,9,-1
 802 452 l 1,10,-1
 530 452 l 1,11,-1
 530 0 l 1,12,-1
 442 0 l 1,13,-1
 442 231 l 1,0,-1
EndSplineSet
EndChar

StartChar: uni04AA
Encoding: 1194 1194 325
Width: 680
GlyphClass: 2
Flags: W
LayerCount: 2
Fore
SplineSet
315 -130 m 1,0,-1
 315 -7 l 1,1,2
 278 -3 278 -3 243 10 c 0,3,4
 190 31 190 31 149 74.5 c 128,-1,5
 108 118 108 118 84 185 c 128,-1,6
 60 252 60 252 60 345 c 2,7,-1
 60 365 l 2,8,9
 60 455 60 455 84 520 c 128,-1,10
 108 585 108 585 149 627 c 128,-1,11
 190 669 190 669 243 689.5 c 128,-1,12
 296 710 296 710 355 710 c 0,13,14
 412 710 412 710 459.5 695 c 128,-1,15
 507 680 507 680 543 652 c 128,-1,16
 579 624 579 624 601.5 583 c 128,-1,17
 624 542 624 542 630 490 c 1,18,-1
 530 490 l 1,19,20
 516 558 516 558 471 592 c 128,-1,21
 426 626 426 626 355 626 c 0,22,23
 318 626 318 626 283 612 c 128,-1,24
 248 598 248 598 220.5 567.5 c 128,-1,25
 193 537 193 537 176.5 487 c 128,-1,26
 160 437 160 437 160 365 c 2,27,-1
 160 345 l 2,28,29
 160 269 160 269 178 217.5 c 128,-1,30
 196 166 196 166 224 134 c 128,-1,31
 252 102 252 102 287 88 c 128,-1,32
 322 74 322 74 355 74 c 0,33,34
 433 74 433 74 477 112 c 128,-1,35
 521 150 521 150 530 210 c 1,36,-1
 630 210 l 1,37,38
 622 152 622 152 598 110.5 c 128,-1,39
 574 69 574 69 537.5 42 c 128,-1,40
 501 15 501 15 454 2 c 0,41,42
 431 -4 431 -4 405 -7 c 1,43,-1
 405 -130 l 1,44,-1
 315 -130 l 1,0,-1
EndSplineSet
Position2: "'cpsp' Capital Spacing lookup 0 subtable" dx=5 dy=0 dh=10 dv=0
EndChar

StartChar: uni04AB
Encoding: 1195 1195 326
Width: 545
GlyphClass: 2
Flags: W
LayerCount: 2
Fore
SplineSet
243 -125 m 1,0,-1
 243 -7 l 1,1,2
 215 -3 215 -3 190 6 c 0,3,4
 146 23 146 23 114 56.5 c 128,-1,5
 82 90 82 90 63.5 141 c 128,-1,6
 45 192 45 192 45 260 c 2,7,-1
 45 280 l 2,8,9
 45 344 45 344 65 393 c 128,-1,10
 85 442 85 442 118 474.5 c 128,-1,11
 151 507 151 507 194.5 523.5 c 128,-1,12
 238 540 238 540 285 540 c 256,13,14
 332 540 332 540 369.5 527 c 128,-1,15
 407 514 407 514 434.5 491 c 128,-1,16
 462 468 462 468 479.5 437 c 128,-1,17
 497 406 497 406 505 370 c 1,18,-1
 415 370 l 1,19,20
 407 389 407 389 396.5 405.5 c 128,-1,21
 386 422 386 422 370.5 434 c 128,-1,22
 355 446 355 446 334 453 c 128,-1,23
 313 460 313 460 285 460 c 0,24,25
 256 460 256 460 229 449.5 c 128,-1,26
 202 439 202 439 181 417.5 c 128,-1,27
 160 396 160 396 147.5 362 c 128,-1,28
 135 328 135 328 135 280 c 2,29,-1
 135 260 l 2,30,31
 135 209 135 209 147.5 172.5 c 128,-1,32
 160 136 160 136 181 113.5 c 128,-1,33
 202 91 202 91 229 80.5 c 128,-1,34
 256 70 256 70 285 70 c 0,35,36
 334 70 334 70 367.5 94 c 128,-1,37
 401 118 401 118 415 160 c 1,38,-1
 505 160 l 1,39,40
 486 81 486 81 427 35 c 0,41,42
 384 2 384 2 329 -6 c 1,43,-1
 329 -125 l 1,44,-1
 243 -125 l 1,0,-1
EndSplineSet
EndChar

StartChar: uni04AE
Encoding: 1198 1198 327
Width: 640
GlyphClass: 2
Flags: W
LayerCount: 2
Fore
SplineSet
283 0 m 1,0,-1
 283 277 l 1,1,-1
 10 700 l 1,2,-1
 118 700 l 1,3,-1
 329 374 l 1,4,-1
 526 700 l 1,5,-1
 630 700 l 1,6,-1
 377 277 l 1,7,-1
 377 0 l 1,8,-1
 283 0 l 1,0,-1
EndSplineSet
Position2: "'cpsp' Capital Spacing lookup 0 subtable" dx=5 dy=0 dh=10 dv=0
EndChar

StartChar: uni04AF
Encoding: 1199 1199 328
Width: 560
GlyphClass: 2
Flags: W
LayerCount: 2
Fore
SplineSet
245 -230 m 1,0,-1
 245 -11 l 1,1,-1
 20 530 l 1,2,-1
 118 530 l 1,3,-1
 290 90 l 1,4,-1
 446 530 l 1,5,-1
 540 530 l 1,6,-1
 333 -16 l 1,7,-1
 333 -230 l 1,8,-1
 245 -230 l 1,0,-1
EndSplineSet
EndChar

StartChar: uni04B0
Encoding: 1200 1200 329
Width: 599
GlyphClass: 2
Flags: W
LayerCount: 2
Fore
SplineSet
268 219 m 1,0,-1
 122 219 l 1,1,-1
 122 301 l 1,2,-1
 265 301 l 1,3,-1
 21 700 l 1,4,-1
 128 700 l 1,5,-1
 314 394 l 1,6,-1
 486 700 l 1,7,-1
 589 700 l 1,8,-1
 364 301 l 1,9,-1
 497 301 l 1,10,-1
 497 219 l 1,11,-1
 362 219 l 1,12,-1
 362 0 l 1,13,-1
 268 0 l 1,14,-1
 268 219 l 1,0,-1
EndSplineSet
Position2: "'cpsp' Capital Spacing lookup 0 subtable" dx=5 dy=0 dh=10 dv=0
EndChar

StartChar: uni04B1
Encoding: 1201 1201 330
Width: 536
GlyphClass: 2
Flags: W
LayerCount: 2
Fore
SplineSet
114 77 m 1,0,-1
 212 77 l 1,1,-1
 20 530 l 1,2,-1
 119 530 l 1,3,-1
 278 132 l 1,4,-1
 421 530 l 1,5,-1
 516 530 l 1,6,-1
 339 77 l 1,7,-1
 445 77 l 1,8,-1
 445 0 l 1,9,-1
 322 0 l 1,10,-1
 322 -230 l 1,11,-1
 234 -230 l 1,12,-1
 234 0 l 1,13,-1
 114 0 l 1,14,-1
 114 77 l 1,0,-1
EndSplineSet
EndChar

StartChar: uni04B2
Encoding: 1202 1202 331
Width: 684
GlyphClass: 2
Flags: W
LayerCount: 2
Fore
SplineSet
564 -130 m 1,0,-1
 564 0 l 1,1,-1
 524 0 l 1,2,-1
 329 288 l 1,3,-1
 132 0 l 1,4,-1
 30 0 l 1,5,-1
 277 357 l 1,6,-1
 40 700 l 1,7,-1
 144 700 l 1,8,-1
 331 429 l 1,9,-1
 520 700 l 1,10,-1
 620 700 l 1,11,-1
 384 359 l 1,12,-1
 574 82 l 1,13,-1
 654 82 l 1,14,-1
 654 -130 l 1,15,-1
 564 -130 l 1,0,-1
EndSplineSet
Position2: "'cpsp' Capital Spacing lookup 0 subtable" dx=5 dy=0 dh=10 dv=0
EndChar

StartChar: uni04B3
Encoding: 1203 1203 332
Width: 566
GlyphClass: 2
Flags: W
LayerCount: 2
Fore
SplineSet
457 -125 m 1,0,-1
 457 0 l 1,1,-1
 421 0 l 1,2,-1
 273 207 l 1,3,-1
 125 0 l 1,4,-1
 25 0 l 1,5,-1
 224 269 l 1,6,-1
 35 530 l 1,7,-1
 137 530 l 1,8,-1
 277 337 l 1,9,-1
 417 530 l 1,10,-1
 515 530 l 1,11,-1
 326 274 l 1,12,-1
 468 78 l 1,13,-1
 541 78 l 1,14,-1
 541 -125 l 1,15,-1
 457 -125 l 1,0,-1
EndSplineSet
EndChar

StartChar: uni04B6
Encoding: 1206 1206 333
Width: 695
GlyphClass: 2
Flags: W
LayerCount: 2
Fore
SplineSet
476 0 m 1,0,-1
 476 308 l 1,1,2
 450 291 450 291 403 277 c 128,-1,3
 356 263 356 263 295 263 c 0,4,5
 172 263 172 263 116 318.5 c 128,-1,6
 60 374 60 374 60 495 c 2,7,-1
 60 700 l 1,8,-1
 154 700 l 1,9,-1
 154 495 l 2,10,11
 154 416 154 416 189 381.5 c 128,-1,12
 224 347 224 347 305 347 c 0,13,14
 368 347 368 347 409 362 c 128,-1,15
 450 377 450 377 476 394 c 1,16,-1
 476 700 l 1,17,-1
 570 700 l 1,18,-1
 570 82 l 1,19,-1
 665 82 l 1,20,-1
 665 -130 l 1,21,-1
 575 -130 l 1,22,-1
 575 0 l 1,23,-1
 476 0 l 1,0,-1
EndSplineSet
Position2: "'cpsp' Capital Spacing lookup 0 subtable" dx=5 dy=0 dh=10 dv=0
EndChar

StartChar: uni04B7
Encoding: 1207 1207 334
Width: 585
GlyphClass: 2
Flags: W
LayerCount: 2
Fore
SplineSet
476 0 m 1,0,-1
 387 0 l 1,1,-1
 387 211 l 1,2,3
 364 197 364 197 331.5 186 c 128,-1,4
 299 175 299 175 250 175 c 0,5,6
 157 175 157 175 106 217 c 128,-1,7
 55 259 55 259 55 360 c 2,8,-1
 55 530 l 1,9,-1
 143 530 l 1,10,-1
 143 375 l 2,11,12
 143 307 143 307 171 281 c 128,-1,13
 199 255 199 255 265 255 c 0,14,15
 310 255 310 255 342 264 c 128,-1,16
 374 273 374 273 387 283 c 1,17,-1
 387 530 l 1,18,-1
 475 530 l 1,19,-1
 475 78 l 1,20,-1
 560 78 l 1,21,-1
 560 -125 l 1,22,-1
 476 -125 l 1,23,-1
 476 0 l 1,0,-1
EndSplineSet
EndChar

StartChar: uni04B8
Encoding: 1208 1208 335
Width: 632
GlyphClass: 2
Flags: W
LayerCount: 2
Fore
SplineSet
438 0 m 1,0,-1
 438 334 l 1,1,2
 416 317 416 317 388 305.5 c 128,-1,3
 360 294 360 294 331 289 c 1,4,-1
 331 190 l 1,5,-1
 246 190 l 1,6,-1
 246 283 l 1,7,8
 187 286 187 286 147.5 303.5 c 128,-1,9
 108 321 108 321 84 353.5 c 128,-1,10
 60 386 60 386 50 431.5 c 128,-1,11
 40 477 40 477 40 535 c 2,12,-1
 40 700 l 1,13,-1
 134 700 l 1,14,-1
 134 535 l 2,15,16
 134 497 134 497 138.5 467.5 c 128,-1,17
 143 438 143 438 155.5 417 c 128,-1,18
 168 396 168 396 190 383.5 c 128,-1,19
 212 371 212 371 246 367 c 1,20,-1
 246 502 l 1,21,-1
 331 502 l 1,22,-1
 331 369 l 1,23,24
 362 376 362 376 389 390.5 c 128,-1,25
 416 405 416 405 438 430 c 1,26,-1
 438 700 l 1,27,-1
 532 700 l 1,28,-1
 532 0 l 1,29,-1
 438 0 l 1,0,-1
EndSplineSet
Position2: "'cpsp' Capital Spacing lookup 0 subtable" dx=5 dy=0 dh=10 dv=0
EndChar

StartChar: uni04B9
Encoding: 1209 1209 336
Width: 555
GlyphClass: 2
Flags: W
LayerCount: 2
Fore
SplineSet
387 237 m 1,0,1
 370 226 370 226 349.5 218 c 128,-1,2
 329 210 329 210 300 205 c 1,3,-1
 300 121 l 1,4,-1
 225 121 l 1,5,-1
 225 202 l 1,6,7
 184 205 184 205 152.5 216 c 128,-1,8
 121 227 121 227 99.5 249 c 128,-1,9
 78 271 78 271 66.5 305 c 128,-1,10
 55 339 55 339 55 386 c 2,11,-1
 55 530 l 1,12,-1
 143 530 l 1,13,-1
 143 401 l 2,14,15
 143 344 143 344 162 317.5 c 128,-1,16
 181 291 181 291 225 284 c 1,17,-1
 225 374 l 1,18,-1
 300 374 l 1,19,-1
 300 283 l 1,20,21
 332 286 332 286 354.5 293.5 c 128,-1,22
 377 301 377 301 387 309 c 1,23,-1
 387 530 l 1,24,-1
 475 530 l 1,25,-1
 475 0 l 1,26,-1
 387 0 l 1,27,-1
 387 237 l 1,0,1
EndSplineSet
EndChar

StartChar: uni04BA
Encoding: 1210 1210 337
Width: 655
GlyphClass: 2
Flags: W
LayerCount: 2
Fore
SplineSet
194 700 m 1,0,-1
 194 415 l 1,1,2
 220 432 220 432 268 446 c 128,-1,3
 316 460 316 460 382 460 c 0,4,5
 500 460 500 460 555 404.5 c 128,-1,6
 610 349 610 349 610 228 c 2,7,-1
 610 0 l 1,8,-1
 516 0 l 1,9,-1
 516 228 l 2,10,11
 516 307 516 307 481 341.5 c 128,-1,12
 446 376 446 376 364 376 c 0,13,14
 302 376 302 376 261 361 c 128,-1,15
 220 346 220 346 194 329 c 1,16,-1
 194 0 l 1,17,-1
 100 0 l 1,18,-1
 100 700 l 1,19,-1
 194 700 l 1,0,-1
EndSplineSet
Position2: "'cpsp' Capital Spacing lookup 0 subtable" dx=5 dy=0 dh=10 dv=0
EndChar

StartChar: uni04BB
Encoding: 1211 1211 338
Width: 615
GlyphClass: 2
Flags: W
LayerCount: 2
Fore
SplineSet
80 0 m 1,0,-1
 80 700 l 1,1,-1
 168 700 l 1,2,-1
 168 435 l 1,3,4
 188 477 188 477 232 508.5 c 128,-1,5
 276 540 276 540 343 540 c 0,6,7
 443 540 443 540 491.5 486.5 c 128,-1,8
 540 433 540 433 540 330 c 2,9,-1
 540 0 l 1,10,-1
 452 0 l 1,11,-1
 452 310 l 2,12,13
 452 385 452 385 421 422.5 c 128,-1,14
 390 460 390 460 317 460 c 0,15,16
 278 460 278 460 249.5 447 c 128,-1,17
 221 434 221 434 203 413 c 128,-1,18
 185 392 185 392 176.5 365 c 128,-1,19
 168 338 168 338 168 310 c 2,20,-1
 168 0 l 1,21,-1
 80 0 l 1,0,-1
EndSplineSet
EndChar

